<svg width="61" height="82" viewBox="0 0 61 82" fill="none" xmlns="http://www.w3.org/2000/svg">
<path d="M51.3246 38.8164H8.80469V51.29H51.3246V38.8164Z" fill="#EBB600"/>
<path d="M51.388 8.81152H8.86816V21.2851H51.388V8.81152Z" fill="#EBB600"/>
<path d="M30.1253 -0.000417964L0 30.0059L8.80264 38.8434L38.928 8.83715L30.1253 -0.000417964Z" fill="#A70E08"/>
<path d="M51.3949 21.3033L21.2695 51.3096L30.0722 60.1471L60.1975 30.1409L51.3949 21.3033Z" fill="#A70E08"/>
<path fill-rule="evenodd" clip-rule="evenodd" d="M58.0666 79.8618C58.1509 79.925 58.1509 79.9882 58.0666 80.0725L57.0763 81.0628C57.0131 81.126 56.9288 81.126 56.8656 81.0628L55.8543 80.0935C55.77 80.0093 55.77 79.925 55.8753 79.8196L56.8235 78.8925C56.9078 78.8083 56.9921 78.8083 57.0763 78.8925L58.0666 79.8618ZM46.8783 77.6915H46.7519C46.2883 77.6915 45.7616 77.5019 45.1927 77.1437C44.7081 76.8276 44.2867 76.4484 43.9495 76.027C43.5703 76.8066 42.9171 77.3333 42.0111 77.6283C41.379 77.818 40.5572 77.9233 39.5037 77.9233H39.0191C39.0191 77.9233 38.9137 77.9233 38.7241 77.9233C38.682 77.9233 38.6398 77.9233 38.5766 77.9233C37.1228 77.9233 36.0271 77.7337 35.3107 77.3333C34.3626 76.8066 33.8779 75.8795 33.8779 74.552C33.8779 73.9831 33.9622 73.4142 34.1518 72.8664C34.3626 72.2343 34.5943 71.9393 34.8893 71.9393C35.1632 71.9393 35.3107 72.1922 35.3107 72.6979C35.3107 73.2878 35.4371 73.7092 35.7321 73.9621C36.2167 74.4046 37.207 74.6153 38.682 74.6153C40.3887 74.6153 41.5264 74.531 42.0743 74.3624C42.2007 74.3203 42.2639 74.2571 42.2639 74.1938C42.2639 74.1306 42.2218 74.0674 42.1375 73.9621C41.7793 73.5196 40.9786 72.6768 39.7776 71.4126L40.1779 69.0316C40.199 68.9263 40.2412 68.842 40.3465 68.8209L46.0776 66.9246C46.1408 66.9035 46.1619 66.9035 46.183 66.9035C46.2041 66.9035 46.2041 66.9667 46.2041 67.0721L45.9512 69.5162C45.9512 69.6005 45.9301 69.6637 45.9301 69.6848C45.9091 69.7269 45.8669 69.748 45.7827 69.7902L42.4114 70.9279C43.781 72.5082 44.5395 73.351 44.6449 73.4564C45.277 74.0674 45.9091 74.3624 46.5412 74.3624H46.8783H47.3208H48.5639C48.8589 74.3624 49.0064 74.2781 49.0064 74.1096C49.0064 74.0253 48.9643 73.9199 48.88 73.8146C48.5639 73.4142 48.1847 73.0139 47.7001 72.5714C47.6368 72.5082 47.6368 72.4029 47.7001 72.2975L49.0696 70.2958C49.1539 70.1905 49.196 70.1273 49.2382 70.1273C49.2803 70.1273 49.3435 70.1694 49.4278 70.2748C50.2074 71.2229 50.5867 72.4029 50.5867 73.7935C50.5867 75.1631 50.397 76.1323 49.9967 76.7012C49.5332 77.3544 48.7114 77.6915 47.4683 77.6915H47.3208H46.8783ZM49.7017 67.7463L48.6904 66.7771C48.6061 66.6928 48.5218 66.6928 48.4375 66.7771L47.5104 67.7253C47.4051 67.8306 47.4051 67.9149 47.4893 67.9992L48.5007 68.9684C48.5639 69.0316 48.6482 69.0316 48.7114 68.9684L49.7228 67.9781C49.786 67.8938 49.786 67.8095 49.7017 67.7463ZM54.9272 77.6915H54.5479C52.6937 77.6915 51.7666 76.7223 51.7666 74.7838C51.7666 73.9621 51.7455 72.8664 51.6823 71.539C51.6191 70.1273 51.5559 69.1791 51.4927 68.7156C51.4506 68.4838 51.4927 68.3363 51.6191 68.231L53.7683 66.7139C53.9158 66.6085 54.0211 66.5664 54.0633 66.5664C54.1265 66.5664 54.1686 66.6296 54.1686 66.735V73.2668C54.1686 73.9199 54.4425 74.2781 54.9693 74.3413H56.6128C56.9078 74.3413 57.0553 74.2571 57.0553 74.0885C57.0553 74.0042 57.0131 73.8989 56.9288 73.7935C56.6128 73.3932 56.2335 72.9928 55.7489 72.5504C55.6857 72.4872 55.6857 72.3818 55.7489 72.2765L57.1185 70.2748C57.2028 70.1694 57.2449 70.1062 57.287 70.1062C57.3292 70.1062 57.3924 70.1484 57.4767 70.2537C58.2563 71.2019 58.6355 72.3818 58.6355 73.7724C58.6355 75.142 58.4459 76.1113 58.0456 76.6802C57.582 77.3333 56.7603 77.6704 55.5171 77.6704L54.9272 77.6915Z" fill="#1A1A18"/>
<path fill-rule="evenodd" clip-rule="evenodd" d="M25.1966 67.7459C25.2809 67.8091 25.2809 67.8934 25.1966 67.9566L24.1852 68.9469C24.122 69.0101 24.0377 69.0101 23.9745 68.9469L22.9631 67.9777C22.8789 67.8934 22.8789 67.8091 22.9842 67.7038L23.9113 66.7556C23.9956 66.6713 24.0799 66.6713 24.1641 66.7556L25.1966 67.7459Z" fill="#1A1A18"/>
<path fill-rule="evenodd" clip-rule="evenodd" d="M22.3749 77.6915H22.1431C21.4267 77.6915 20.8578 77.249 20.4364 76.3852C19.8043 77.228 18.7508 77.6494 17.2548 77.6494C16.7913 77.6494 16.3067 77.5651 15.801 77.4176C15.2321 77.2491 14.8317 77.0173 14.5789 76.7434C14.1786 77.3755 13.715 77.6915 13.1883 77.6915H12.5561H12.1979C10.3438 77.6915 9.41667 76.7223 9.41667 74.7838C9.41667 73.9621 9.3956 72.8664 9.33239 71.539C9.26918 70.1273 9.20597 69.1791 9.14276 68.7156C9.10062 68.4838 9.14276 68.3363 9.26918 68.231L11.4183 66.7139C11.5658 66.6085 11.6712 66.5664 11.7133 66.5664C11.7765 66.5664 11.8187 66.6296 11.8187 66.735V73.2668C11.8187 73.9199 12.0926 74.2781 12.6194 74.3413H13.125C13.4411 74.3413 13.6729 74.1939 13.8414 73.8989C13.8836 73.8357 13.9679 73.5617 14.1364 73.0561C14.2207 72.7611 14.3682 72.6136 14.5157 72.6136C14.7053 72.6136 14.8949 72.8875 15.0424 73.4353C15.211 73.9831 15.4006 74.2571 15.6324 74.2571C15.6746 74.2571 15.9274 73.9621 16.4331 73.3721C17.0231 72.6557 17.5709 72.1079 18.0555 71.7286C18.814 71.1387 19.5093 70.8437 20.1836 70.8437C20.7525 70.8437 21.216 71.0333 21.5742 71.4336C21.9324 71.834 22.1221 72.3186 22.1221 72.8875C22.1221 73.3721 22.0167 73.7935 21.8271 74.1728C21.8903 74.2781 22.0167 74.3413 22.2274 74.3413H22.417H22.8385H24.0816C24.3766 74.3413 24.5241 74.2571 24.5241 74.0885C24.5241 74.0042 24.4819 73.8989 24.3977 73.7935C24.0816 73.3932 23.7023 72.9928 23.2177 72.5504C23.1545 72.4872 23.1545 72.3818 23.2177 72.2765L24.5873 70.2748C24.6716 70.1694 24.7137 70.1062 24.7559 70.1062C24.798 70.1062 24.8612 70.1484 24.9455 70.2537C25.7251 71.2019 26.1044 72.3818 26.1044 73.7724C26.1044 75.142 25.9147 76.1113 25.5144 76.6802C25.0508 77.3333 24.2291 77.6704 22.9859 77.6704H22.8385H22.3749V77.6915ZM20.1625 73.941C20.1625 73.3721 19.8254 73.0982 19.1512 73.0982C18.498 73.0982 17.6341 73.6039 16.6016 74.6363C16.8334 74.6363 17.0441 74.6574 17.2759 74.6574C18.1608 74.6574 18.8983 74.5731 19.4672 74.4045C19.9308 74.2571 20.1625 74.0885 20.1625 73.941Z" fill="#1A1A18"/>
<path fill-rule="evenodd" clip-rule="evenodd" d="M8.21444 77.0798C8.21444 78.9129 7.72982 80.3668 6.76058 81.3781C6.65523 81.5045 6.48667 81.5467 6.31811 81.5467H2.84151C2.44117 81.5467 2.23047 81.3781 2.23047 81.041C2.23047 80.8514 2.31475 80.7249 2.48331 80.6407C3.13649 80.3246 3.93716 79.84 4.9064 79.1868C6.14955 78.344 6.78166 77.733 6.78166 77.3748C6.78166 77.0798 6.23383 76.4055 5.1171 75.3731L6.29704 72.9289C6.36025 72.8025 6.4656 72.7814 6.57095 72.8868C7.18199 73.4346 7.58233 73.9824 7.83517 74.5513C8.08802 75.1834 8.21444 76.0263 8.21444 77.0798Z" fill="#1A1A18"/>
<path fill-rule="evenodd" clip-rule="evenodd" d="M30.0019 73.8353C30.0019 74.2777 29.9387 74.8256 29.8123 75.4787C29.6648 76.1741 29.5173 76.7219 29.3487 77.0801C29.138 77.5226 28.9484 77.7333 28.7587 77.7333C28.5691 77.7333 28.3795 77.4804 28.2531 76.9326C28.0424 76.1951 27.621 73.6245 26.9678 69.2209L29.2012 66.7767C29.3276 66.6292 29.433 66.5449 29.4751 66.5449C29.5173 66.5449 29.5383 66.6081 29.5805 66.7556C29.7912 67.7459 29.9387 68.9048 29.9808 70.2744C30.0019 70.6958 30.0019 71.8757 30.0019 73.8353Z" fill="#1A1A18"/>
</svg>
