<svg width="32" height="32" viewBox="0 0 32 32" fill="none" xmlns="http://www.w3.org/2000/svg">
<path d="M15.9997 29.3337C19.0845 29.334 22.074 28.2647 24.4587 26.308C26.8435 24.3513 28.4761 21.6281 29.0782 18.6027C29.6803 15.5772 29.2146 12.4366 27.7607 9.71591C26.3067 6.99525 23.9543 4.86293 21.1044 3.68226C18.2545 2.50158 15.0834 2.34561 12.1314 3.24093C9.17941 4.13626 6.62918 6.02748 4.91527 8.59233C3.20136 11.1572 2.42987 14.237 2.73217 17.3069C3.03446 20.3769 4.39189 23.247 6.57315 25.4284C9.07493 27.926 12.4646 29.3303 15.9997 29.3337V29.3337Z" stroke="#F8FAFC" stroke-width="2" stroke-miterlimit="10" stroke-linecap="round"/>
<path d="M13.2004 12.4667C12.8821 12.7869 12.6761 13.2018 12.6136 13.6489C12.5511 14.0961 12.6354 14.5515 12.8537 14.9467C13.7882 16.68 15.1993 18.1097 16.9203 19.0667C17.3589 19.3086 17.8656 19.3977 18.3604 19.32C18.8621 19.2503 19.3265 19.0158 19.6804 18.6534L19.8804 18.4534C20.0716 18.2627 20.298 18.111 20.5471 18.0067C20.8014 17.9047 21.073 17.8527 21.347 17.8534C21.8956 17.8538 22.4221 18.0692 22.8137 18.4534L23.3871 19.04C23.7714 19.4315 23.9867 19.9581 23.9867 20.5067C23.9867 21.0553 23.7714 21.582 23.3871 21.9734L21.9737 23.3867C21.7612 23.5973 21.5069 23.7608 21.2271 23.8667C20.9461 23.9716 20.6464 24.017 20.347 24C17.1374 23.8016 14.111 22.4371 11.8371 20.1633C9.56324 17.8894 8.19876 14.863 8.00035 11.6534C7.97315 11.3547 8.01414 11.0538 8.1203 10.7734C8.22535 10.4932 8.38897 10.2386 8.60028 10.0267L10.0137 8.61337C10.2022 8.41781 10.4292 8.26346 10.6804 8.16004C10.9341 8.05528 11.2058 8.00095 11.4803 8.00005C11.7547 7.99821 12.0267 8.05125 12.2803 8.15605C12.5319 8.26044 12.759 8.41619 12.947 8.61337L13.5337 9.18673C13.9181 9.57816 14.1333 10.1048 14.1333 10.6534C14.1333 11.2019 13.9181 11.7286 13.5337 12.12L13.2004 12.4667Z" stroke="#F8FAFC" stroke-width="2" stroke-miterlimit="10" stroke-linecap="round"/>
</svg>
