<svg width="32" height="32" viewBox="0 0 32 32" fill="none" xmlns="http://www.w3.org/2000/svg">
<path d="M20.8536 11.1451V19.0264C20.8526 19.5831 20.9613 20.1345 21.1736 20.6491C21.3849 21.1651 21.6977 21.6335 22.0935 22.0264C22.4891 22.4166 22.9552 22.7283 23.4668 22.9451C24.5093 23.3717 25.6778 23.3717 26.7203 22.9451C27.2319 22.7283 27.6978 22.4166 28.0935 22.0264C28.4893 21.6335 28.8023 21.1652 29.0136 20.6491C29.2258 20.1345 29.3345 19.5831 29.3335 19.0264V16.5464C29.386 13.1093 28.1441 9.77821 25.8544 7.21434C23.5647 4.65046 20.3946 3.04132 16.9735 2.7064C15.0622 2.56455 13.1429 2.83745 11.3469 3.50641C9.18792 4.29022 7.27142 5.6249 5.78749 7.37803C4.30356 9.13117 3.30368 11.2418 2.88726 13.5006C2.47084 15.7594 2.65224 18.0878 3.41346 20.2549C4.17468 22.4219 5.4894 24.3522 7.22694 25.8544C9.78927 28.1474 13.1222 29.3897 16.5603 29.3331H23.2802" stroke="#F8FAFC" stroke-width="2" stroke-linecap="round" stroke-linejoin="round"/>
<path d="M20.8931 19.5851C20.1355 20.6102 19.0777 21.3744 17.8664 21.7717C16.6517 22.1608 15.345 22.1561 14.133 21.7584C12.9155 21.3734 11.8543 20.6067 11.1063 19.5717C10.362 18.5405 9.95665 17.3034 9.94635 16.0317C9.94054 14.7578 10.3363 13.5144 11.0772 12.4781C11.8181 11.4418 12.8666 10.6651 14.074 10.2585C15.2813 9.8519 16.5859 9.83593 17.8028 10.2129C19.0197 10.5898 20.087 11.3405 20.8531 12.3584" stroke="#F8FAFC" stroke-width="2" stroke-linecap="round" stroke-linejoin="round"/>
</svg>
