<svg width="44" height="44" viewBox="0 0 44 44" fill="none" xmlns="http://www.w3.org/2000/svg">
<path d="M40.3333 0H3.6667C1.6133 0 0 1.6133 0 3.6667V40.3334C0 42.3867 1.6133 44 3.6667 44H20.5334H29.3334H40.3334C42.3867 44 44 42.3867 44 40.3333V3.6667C44 1.6133 42.3867 0 40.3333 0ZM22 42.5333V27.8667H16.1333V22H22V16.8667C22 12.6867 25.2267 9.1667 29.3333 8.8H35.9333V14.6667H30.0666C28.8199 14.6667 27.8666 15.62 27.8666 16.8667V22H35.2V27.8667H27.8667V42.5334H22V42.5333ZM42.5333 40.3333C42.5333 41.58 41.58 42.5333 40.3333 42.5333H29.3333V29.3333H36.6666V20.5333H29.3333V16.8666C29.3333 16.4266 29.6266 16.1333 30.0666 16.1333H37.4V7.3333H29.26C24.3467 7.7733 20.5333 11.9533 20.5333 16.8666V20.5333H14.6666V29.3333H20.5333V42.5333H3.6667C2.42 42.5333 1.4667 41.58 1.4667 40.3333V3.6667C1.4667 2.42 2.42 1.4667 3.6667 1.4667H40.3334C41.5801 1.4667 42.5334 2.42 42.5334 3.6667V40.3333H42.5333Z" fill="#F8FAFC"/>
</svg>
