<svg width="44" height="44" viewBox="0 0 44 44" fill="none" xmlns="http://www.w3.org/2000/svg">
<path d="M31.46 0H12.54C5.6467 0 0 5.6467 0 12.54V31.46C0 38.3533 5.6467 44 12.54 44H31.46C38.3533 44 44 38.3533 44 31.46V12.54C44 5.6467 38.3533 0 31.46 0ZM42.5333 31.46C42.5333 37.5467 37.5466 42.5333 31.46 42.5333H12.54C6.4533 42.5333 1.4667 37.5466 1.4667 31.46V12.54C1.4667 6.4533 6.45339 1.4667 12.54 1.4667H31.46C37.5467 1.4667 42.5333 6.45339 42.5333 12.54V31.46Z" fill="#F8FAFC"/>
<path d="M31.4594 4.39941H12.5394C8.06611 4.39941 4.39941 8.06611 4.39941 12.5394V31.4594C4.39941 35.9327 8.06611 39.5994 12.5394 39.5994H31.4594C35.9327 39.5994 39.5994 35.9327 39.5994 31.4594V12.5394C39.5994 8.06611 35.9327 4.39941 31.4594 4.39941ZM38.1327 31.4594C38.1327 35.1261 35.126 38.1327 31.4594 38.1327H12.5394C8.87272 38.1327 5.86611 35.126 5.86611 31.4594V12.5394C5.86611 8.87272 8.8728 5.86611 12.5394 5.86611H31.4594C35.1261 5.86611 38.1327 8.8728 38.1327 12.5394V31.4594Z" fill="#F8FAFC"/>
<path d="M21.9999 10.2666C15.5466 10.2666 10.2666 15.5466 10.2666 21.9999C10.2666 28.4532 15.5466 33.7332 21.9999 33.7332C28.4532 33.7332 33.7332 28.4532 33.7332 21.9999C33.7332 15.5466 28.4532 10.2666 21.9999 10.2666ZM21.9999 32.2666C16.3532 32.2666 11.7332 27.6466 11.7332 21.9999C11.7332 16.3532 16.3532 11.7332 21.9999 11.7332C27.6466 11.7332 32.2666 16.3532 32.2666 21.9999C32.2666 27.6466 27.6466 32.2666 21.9999 32.2666Z" fill="#F8FAFC"/>
<path d="M22.0003 13.9336C17.527 13.9336 13.9336 17.5269 13.9336 22.0003C13.9336 26.4736 17.5269 30.067 22.0003 30.067C26.4737 30.067 30.067 26.4737 30.067 22.0003C30.067 17.5269 26.4736 13.9336 22.0003 13.9336ZM22.0003 28.6003C18.3336 28.6003 15.4003 25.667 15.4003 22.0003C15.4003 18.3336 18.3336 15.4003 22.0003 15.4003C25.667 15.4003 28.6003 18.3336 28.6003 22.0003C28.6003 25.667 25.667 28.6003 22.0003 28.6003Z" fill="#F8FAFC"/>
<path d="M33.7332 8.06641C32.4865 8.06641 31.5332 9.01971 31.5332 10.2664C31.5332 11.5131 32.4865 12.4664 33.7332 12.4664C34.9799 12.4664 35.9332 11.5131 35.9332 10.2664C35.9332 9.01971 34.9799 8.06641 33.7332 8.06641Z" fill="#F8FAFC"/>
</svg>
