<svg width="105" height="114" viewBox="0 0 105 114" fill="none" xmlns="http://www.w3.org/2000/svg">
<path fill-rule="evenodd" clip-rule="evenodd" d="M20.3266 11.9639C4.84372 48.3553 33.3216 75.8804 64.4727 62.5413C25.6199 95.3333 -12.9153 45.5234 20.3266 11.9639Z" fill="#4C2F92"/>
<path fill-rule="evenodd" clip-rule="evenodd" d="M20.0098 74.5047C56.6394 89.3789 83.7146 60.451 69.8461 29.5117C103.273 67.8087 54.0986 107.191 20.0098 74.5047Z" fill="#4C2F92"/>
<path fill-rule="evenodd" clip-rule="evenodd" d="M81.7029 74.6092C96.9476 38.112 68.2844 10.7721 37.2393 24.3229C75.8538 -8.70722 114.733 40.838 81.7029 74.6092Z" fill="#4C2F92"/>
<path fill-rule="evenodd" clip-rule="evenodd" d="M84.6398 15.3515C49.5718 -2.93687 19.9028 23.3179 30.7806 55.4217C1.11165 14.1075 53.7799 -20.4312 84.6398 15.3515Z" fill="#4C2F92"/>
<path d="M54.6433 59.1327C63.3492 57.077 68.7402 48.353 66.6845 39.6471C64.6288 30.9413 55.9048 25.5502 47.1989 27.6059C38.4931 29.6616 33.102 38.3856 35.1577 47.0915C37.2134 55.7974 45.9374 61.1884 54.6433 59.1327Z" fill="#D0108C"/>
<path fill-rule="evenodd" clip-rule="evenodd" d="M93.5052 98.2705V98.7469C93.5052 99.6203 93.7434 100.229 94.1933 100.547C94.458 100.732 94.802 100.838 95.1726 100.838C95.4637 100.838 95.7283 100.52 95.9665 99.8585C96.0195 99.6997 96.0459 99.5409 96.0989 99.3556C96.1518 99.1704 96.2312 99.0645 96.3106 99.0645C96.4165 99.0645 96.4694 99.1704 96.4694 99.3821C96.4694 99.4615 96.4429 99.5938 96.4165 99.7526C96.39 99.9114 96.3635 100.07 96.3371 100.176C96.0724 101.42 95.7019 102.399 95.2784 103.087C94.855 103.776 94.4315 104.12 93.9816 104.12C93.2934 104.12 92.7906 103.802 92.5259 103.167C92.2612 102.532 92.1289 101.738 92.1289 100.758L93.5052 98.2705Z" fill="#4C2F92"/>
<path fill-rule="evenodd" clip-rule="evenodd" d="M95.5968 109.254C95.6497 109.466 95.6232 109.704 95.5438 109.942C95.4644 110.18 95.3586 110.471 95.1998 110.762C95.041 111.08 94.8292 111.345 94.5381 111.609C94.3793 111.768 94.2205 111.874 94.1146 111.874C94.0617 111.874 93.9029 111.768 93.6912 111.583C93.4795 111.398 93.2677 111.239 93.0825 111.08C92.8972 110.948 92.7384 110.815 92.6325 110.683C92.5002 110.551 92.4473 110.445 92.4473 110.365C92.5796 110.101 92.659 109.889 92.7384 109.73C92.9501 109.254 93.1089 108.936 93.2148 108.724C93.4001 108.407 93.5853 108.089 93.7971 107.745C93.85 107.692 93.9029 107.586 93.9823 107.454C94.0353 107.507 94.1147 107.56 94.1676 107.613C94.2205 107.666 94.3264 107.719 94.4323 107.772C94.8822 108.142 95.1733 108.407 95.3321 108.592C95.4644 108.777 95.5438 109.016 95.5968 109.254Z" fill="#4C2F92"/>
<path fill-rule="evenodd" clip-rule="evenodd" d="M93.5313 98.271C93.3725 98.8268 93.1873 99.3561 93.0285 99.8855C92.7903 100.468 92.5256 100.732 92.208 100.732C92.208 100.468 92.3139 99.3826 92.5521 97.4241C92.7903 95.4656 92.9755 93.957 93.1343 92.9248C93.1608 92.8454 93.3196 92.3955 93.6372 91.6279C93.9548 90.8339 94.2195 90.2517 94.4047 89.8547C94.4577 89.8282 94.4841 89.8018 94.5371 89.8018C94.5635 89.8547 94.5371 90.0399 94.5106 90.3046L94.3783 91.1251L93.8489 94.9892C93.7431 95.7832 93.6637 96.4448 93.6372 97.0271C93.5578 97.6094 93.5313 98.0064 93.5313 98.271Z" fill="#4C2F92"/>
<path fill-rule="evenodd" clip-rule="evenodd" d="M87.3919 98.2705V98.7469C87.3919 99.6203 87.6301 100.229 88.08 100.547C88.3447 100.732 88.6887 100.838 89.0593 100.838C89.3504 100.838 89.6151 100.52 89.8533 99.8585C89.9062 99.6997 89.9327 99.5409 89.9856 99.3556C90.0385 99.1704 90.1179 99.0645 90.1973 99.0645C90.3032 99.0645 90.3561 99.1704 90.3561 99.3821C90.3561 99.4615 90.3297 99.5938 90.3032 99.7526C90.2767 99.9114 90.2503 100.07 90.2238 100.176C89.9591 101.42 89.5886 102.399 89.1651 103.087C88.7417 103.776 88.3182 104.12 87.8683 104.12C87.1801 104.12 86.6773 103.802 86.4126 103.167C86.148 102.532 86.0156 101.738 86.0156 100.758L87.3919 98.2705Z" fill="#4C2F92"/>
<path fill-rule="evenodd" clip-rule="evenodd" d="M91.837 91.8661C91.8899 92.0779 91.8635 92.316 91.7841 92.5542C91.7047 92.7924 91.5988 93.0836 91.44 93.3747C91.2812 93.6923 91.0695 93.957 90.7784 94.2216C90.6196 94.3804 90.4608 94.4863 90.3549 94.4863C90.302 94.4863 90.1432 94.3804 89.9314 94.1952C89.7197 94.0099 89.508 93.8511 89.3227 93.6923C89.1374 93.56 88.9786 93.4277 88.8728 93.2953C88.7404 93.163 88.6875 93.0571 88.6875 92.9777C88.8198 92.7131 88.8992 92.5013 88.9786 92.3425C89.1904 91.8661 89.3492 91.5485 89.455 91.3368C89.6403 91.0192 89.8256 90.7016 90.0373 90.3575C90.0902 90.3046 90.1432 90.1987 90.2226 90.0664C90.2755 90.1193 90.3549 90.1723 90.4078 90.2252C90.4608 90.2781 90.5666 90.3311 90.6725 90.384C91.1224 90.7545 91.4136 91.0192 91.5724 91.2045C91.6782 91.3897 91.7841 91.6015 91.837 91.8661Z" fill="#4C2F92"/>
<path fill-rule="evenodd" clip-rule="evenodd" d="M87.3119 98.2715C87.259 98.5361 87.1796 98.8008 87.1267 99.0655C87.0737 99.3301 86.9679 99.6213 86.8355 99.9388C86.7032 100.256 86.5444 100.468 86.3856 100.627C86.2268 100.786 86.0945 100.812 86.0151 100.759C86.0151 100.283 86.0415 99.7271 86.1209 99.0919C86.2003 98.4567 86.2533 98.0597 86.2533 97.8745L86.2797 97.5304C86.2797 97.4775 86.2797 97.4245 86.2533 97.3981C86.2268 97.3716 86.2003 97.3981 86.1209 97.451C86.0415 97.5569 85.9092 97.7421 85.6975 98.0333C85.3005 98.5891 85.0093 98.9861 84.7976 99.2507C84.1624 100.045 83.3684 100.812 82.4156 101.5C81.4628 102.189 80.4571 102.744 79.372 103.141C78.2869 103.538 77.0694 103.882 75.6932 104.173C74.3169 104.465 72.9142 104.597 71.4321 104.597H70.9556C70.0558 104.597 69.3147 104.544 68.7325 104.438C67.8326 104.279 67.1974 103.988 66.8798 103.591C66.5622 103.194 66.377 102.612 66.377 101.792C66.377 101.103 66.4299 100.415 66.5093 99.7006C66.6152 98.986 66.7475 98.6155 66.9063 98.6155C66.9592 98.6155 67.0121 98.8273 67.0386 99.2242C67.0651 99.6477 67.2239 99.9918 67.4885 100.309C68.0708 100.945 69.4471 101.262 71.6438 101.262C72.8612 101.262 73.814 101.236 74.5286 101.156C77.9957 100.865 80.8276 100.018 83.0508 98.642C84.083 98.0333 84.9035 97.2922 85.4857 96.4453C85.9357 95.7836 86.2797 95.0161 86.5444 94.0898L86.9943 92.29C87.0473 92.1048 87.259 91.549 87.6825 90.6756C87.9471 90.0933 88.1324 89.7493 88.2118 89.5905C88.2912 89.4317 88.3971 89.2993 88.5294 89.167C88.5294 89.3258 88.5294 89.4846 88.5294 89.6434C88.4235 90.1198 88.3441 90.4639 88.3177 90.7285L87.656 94.0633C87.5237 94.9631 87.4443 95.8101 87.3649 96.5511C87.3384 97.3187 87.3119 97.9009 87.3119 98.2715Z" fill="#4C2F92"/>
<path fill-rule="evenodd" clip-rule="evenodd" d="M89.7986 86.8635C90.275 86.3606 91.2543 85.4872 92.7893 84.2698C94.1391 83.1847 95.4889 82.0995 96.8652 80.9879C97.8444 80.1939 98.7707 79.3735 99.6706 78.553C100.306 77.9708 101.153 77.1503 102.185 76.1446C103.773 74.6095 104.567 73.842 104.567 73.7891C104.567 73.8949 104.54 74.0008 104.514 74.0802C104.461 74.3713 104.249 74.8212 103.905 75.4035C103.561 75.9858 103.27 76.4357 103.058 76.7268C102.714 77.1768 102.344 77.6002 101.973 78.0502C101.576 78.4736 101.259 78.8177 101.047 79.0559C100.729 79.3735 100.2 79.8763 99.4324 80.538C98.8501 81.0409 98.0032 81.7819 96.8652 82.7612C96.0712 83.4493 95.3301 84.0316 94.6949 84.508C93.848 85.1696 93.0011 85.8048 92.1541 86.44L89.9574 88.1604C89.6398 88.425 89.3487 88.6632 89.0576 88.8749C88.7664 89.0867 88.6076 89.1661 88.5547 89.1131C88.7135 88.6367 88.9252 88.2133 89.137 87.8428C89.2958 87.4722 89.534 87.1282 89.7986 86.8635Z" fill="#4C2F92"/>
<path fill-rule="evenodd" clip-rule="evenodd" d="M62.3288 92.1841C62.3817 92.0518 62.4876 91.893 62.6199 91.7077C62.6464 91.6548 62.6993 91.6019 62.7787 91.5225C62.8316 91.6283 62.8846 91.7077 62.8846 91.7871L62.7258 92.8722L62.5405 94.6455L62.1965 97.4774C62.1171 98.1126 62.0112 98.6419 61.9053 99.0389C61.7995 99.4624 61.6407 99.8859 61.4554 100.362L60.7143 101.897C60.3967 102.453 60.1585 102.824 60.0262 102.982C59.8939 103.168 59.7615 103.247 59.6557 103.247L59.5498 103.035C59.7086 102.453 59.8674 101.897 60.0262 101.368C60.185 100.839 60.2909 100.415 60.3438 100.124C60.5555 99.1448 60.7143 98.2979 60.7937 97.5304C60.8731 96.7893 60.9525 96.1012 61.0055 95.5189L61.3495 94.5396L62.3288 92.1841Z" fill="#4C2F92"/>
<path fill-rule="evenodd" clip-rule="evenodd" d="M58.8611 94.487C58.3583 96.3396 57.776 97.3983 57.1143 97.7159L55.8969 98.3246C55.791 98.3776 55.6587 98.457 55.4734 98.5893C55.2881 98.7216 55.1558 98.8539 55.0764 98.9598C54.8911 99.2245 54.6794 99.595 54.4677 100.071C54.0972 100.998 53.8325 101.659 53.6472 102.083C53.3032 102.797 52.8003 103.3 52.1122 103.618C51.8475 103.724 51.424 103.83 50.8418 103.962C50.2595 104.068 49.8096 104.147 49.5449 104.147C49.2803 104.174 49.1215 104.094 49.0421 103.962C49.0156 103.883 49.1215 103.75 49.3597 103.565C49.5979 103.38 49.889 103.168 50.2066 102.956C50.2595 102.903 50.63 102.665 51.3182 102.215C51.7681 101.924 52.0063 101.739 52.0857 101.712C52.668 101.236 53.0914 100.865 53.3296 100.601C53.409 100.495 53.6737 99.9655 54.0707 99.0392C54.4941 98.1129 54.8117 97.5042 55.0235 97.1866C55.2352 96.8954 55.5793 96.6043 56.0557 96.2867C56.1351 96.2338 56.4527 96.075 56.982 95.8103C57.3525 95.625 57.6172 95.4662 57.776 95.3339C57.9348 95.2016 58.1201 94.9369 58.3583 94.5135C58.5965 94.09 58.7552 93.9047 58.8346 93.9312C58.9405 93.9312 58.9405 94.1429 58.8611 94.487Z" fill="#4C2F92"/>
<path fill-rule="evenodd" clip-rule="evenodd" d="M54.6261 110.128C54.679 110.339 54.6525 110.577 54.5731 110.816C54.4937 111.054 54.3879 111.345 54.2291 111.636C54.0703 111.954 53.8585 112.218 53.5674 112.483C53.4086 112.642 53.2498 112.748 53.1439 112.748C53.091 112.748 52.9322 112.642 52.7205 112.457C52.5087 112.271 52.297 112.113 52.1118 111.954C51.9265 111.821 51.7677 111.689 51.6618 111.557C51.5295 111.424 51.4766 111.319 51.4766 111.239C51.6089 110.974 51.6883 110.763 51.7677 110.604C51.9794 110.128 52.1382 109.81 52.2441 109.598C52.4294 109.281 52.6146 108.963 52.8263 108.619C52.8793 108.566 52.9322 108.46 53.0116 108.328C53.0645 108.381 53.1439 108.434 53.1969 108.487C53.2498 108.54 53.3557 108.593 53.4615 108.645C53.9115 109.016 54.2026 109.281 54.3614 109.466C54.4673 109.651 54.5731 109.889 54.6261 110.128ZM57.8814 109.942C57.9344 110.154 57.9079 110.392 57.8285 110.63C57.7491 110.869 57.6432 111.16 57.4844 111.451C57.3256 111.768 57.1139 112.033 56.8228 112.298C56.664 112.457 56.5052 112.562 56.3993 112.562C56.3464 112.562 56.1876 112.457 55.9759 112.271C55.7641 112.086 55.5524 111.927 55.3671 111.768C55.1819 111.636 55.0231 111.504 54.9172 111.371C54.7849 111.239 54.7319 111.133 54.7319 111.054C54.8643 110.789 54.9437 110.577 55.0231 110.419C55.2348 109.942 55.3936 109.625 55.4995 109.413C55.6847 109.095 55.87 108.778 56.0817 108.434C56.1347 108.381 56.1876 108.275 56.267 108.143C56.3199 108.196 56.3993 108.248 56.4523 108.301C56.5052 108.354 56.6111 108.407 56.7169 108.46C57.1669 108.831 57.458 109.095 57.6168 109.281C57.7491 109.466 57.855 109.678 57.8814 109.942Z" fill="#4C2F92"/>
<path fill-rule="evenodd" clip-rule="evenodd" d="M49.0417 92.1841C49.0946 92.0518 49.2005 91.893 49.3328 91.7077C49.3593 91.6548 49.4122 91.6019 49.4916 91.5225C49.5445 91.6283 49.5975 91.7077 49.5975 91.7871L49.4387 92.8722L49.2534 94.6455L48.9093 97.4774C48.8299 98.1126 48.7241 98.6419 48.6182 99.0389C48.5123 99.4624 48.3535 99.8859 48.1683 100.362L47.4272 101.897C47.1096 102.453 46.8714 102.824 46.7391 102.982C46.6068 103.168 46.4744 103.247 46.3686 103.247L46.2627 103.035C46.4215 102.453 46.5803 101.897 46.7391 101.368C46.8979 100.839 47.0038 100.415 47.0567 100.124C47.2684 99.1448 47.4272 98.2979 47.5066 97.5304C47.586 96.7893 47.6654 96.1012 47.7184 95.5189L48.0624 94.5396L49.0417 92.1841Z" fill="#4C2F92"/>
<path fill-rule="evenodd" clip-rule="evenodd" d="M44.2516 102.215C44.1457 102.665 44.0663 103.009 44.0134 103.247C43.9604 103.486 43.881 103.75 43.7752 104.068C43.537 104.809 43.2194 105.55 42.7959 106.318C42.3725 107.085 41.8961 107.8 41.3403 108.488C40.4933 109.494 39.5935 110.261 38.6407 110.79C37.6879 111.32 36.6292 111.558 35.4647 111.558C34.1414 111.558 33.1092 111.134 32.3946 110.314C31.68 109.494 31.3359 108.408 31.3359 107.112C31.3359 106.45 31.4153 105.735 31.6006 104.994C31.7594 104.227 31.9447 103.592 32.1564 103.115C32.3681 102.612 32.6063 102.083 32.871 101.554C33.2415 100.839 33.6121 100.098 34.0355 99.3569C34.1943 99.0657 34.3002 98.907 34.3266 98.854C34.3531 98.8276 34.406 98.8275 34.5119 98.8275C34.5648 98.854 34.5648 98.9599 34.5384 99.1716C34.5119 99.3833 34.459 99.5686 34.4325 99.7009L33.3739 101.977C33.1092 102.665 32.9239 103.142 32.8445 103.406C32.6857 103.883 32.6328 104.359 32.6328 104.835C32.6328 106.079 33.0563 106.979 33.9032 107.535C34.5384 107.958 35.3324 108.17 36.3116 108.17C36.9998 108.17 37.635 108.117 38.1643 107.985C38.6936 107.879 39.2494 107.641 39.8581 107.323C40.4404 107.006 40.9697 106.582 41.4461 106.079C41.7637 105.735 42.1343 105.259 42.5577 104.624C42.8224 104.2 43.0077 103.803 43.14 103.433C43.2723 103.062 43.3252 102.612 43.3252 102.056L43.3782 99.7803C43.3782 99.4098 43.4311 99.0393 43.5105 98.7217C43.5899 98.4041 43.7222 98.0071 43.934 97.5042L44.5692 96.2603C44.7015 96.0221 44.7809 95.8898 44.8074 95.8368C44.8338 95.7839 44.8868 95.7045 44.9926 95.5986C45.0985 95.7045 45.1514 95.8368 45.125 96.0221L44.9662 97.1337L44.8074 98.7217C44.8074 99.3304 44.7809 99.8862 44.7015 100.336C44.5427 100.813 44.4104 101.421 44.2516 102.215ZM40.1757 100.548C40.2022 100.627 40.2022 100.76 40.2022 100.892C40.2022 101.262 40.0699 101.633 39.8317 102.004C39.3288 102.718 38.9583 103.115 38.7201 103.142C38.6671 103.142 38.5877 103.089 38.4289 102.983C37.9526 102.612 37.6879 102.427 37.6614 102.401C37.4497 102.268 37.2644 102.162 37.0792 102.03C36.8939 101.924 36.788 101.792 36.788 101.633L37.5291 99.9921C37.7673 99.5951 37.9526 99.251 38.1378 99.0128C38.1908 98.9599 38.2437 98.854 38.3231 98.7217C38.4554 98.7746 38.5613 98.854 38.6936 98.9069C38.7995 98.9599 38.9053 99.0128 38.9847 99.0922C39.4347 99.4363 39.7258 99.7009 39.9111 99.9127C40.0699 100.098 40.1757 100.336 40.1757 100.548Z" fill="#4C2F92"/>
<path fill-rule="evenodd" clip-rule="evenodd" d="M26.0438 95.5442C26.0438 95.8088 25.9908 96.2323 25.885 96.8146C25.7791 97.3968 25.6732 97.9261 25.5674 98.3761L25.1968 99.9376C24.9851 100.52 24.8263 100.97 24.694 101.234C24.5087 101.631 24.3234 101.976 24.1646 102.214C24.0058 102.478 23.847 102.664 23.6618 102.796C23.503 102.928 23.2118 103.114 22.8148 103.325L21.6768 103.802C21.5709 103.855 21.3327 103.908 20.9357 103.987C20.5387 104.066 20.3005 104.119 20.1947 104.119C20.0888 104.119 20.0359 104.093 20.0094 104.013C19.9829 103.934 20.0094 103.855 20.0623 103.749C20.1682 103.564 20.4329 103.299 20.8828 102.955C21.3063 102.611 21.7562 102.293 22.1797 101.976C22.6561 101.526 23.0266 101.182 23.2648 100.917C23.6088 100.546 23.9264 100.123 24.2176 99.62C24.2705 99.5141 24.3764 99.3024 24.4822 98.9583C24.5881 98.6407 24.7734 98.0849 25.038 97.3439L25.4086 96.2058C25.4615 96.047 25.5144 95.8353 25.5938 95.5971C25.6732 95.3589 25.7791 95.2266 25.9114 95.2266C25.9908 95.3589 26.0438 95.4648 26.0438 95.5442Z" fill="#4C2F92"/>
<path fill-rule="evenodd" clip-rule="evenodd" d="M27.3663 88.4784C27.4192 88.6902 27.3928 88.9284 27.3134 89.1665C27.234 89.4047 27.1281 89.6959 26.9693 89.987C26.8105 90.3046 26.5988 90.5693 26.3077 90.8339C26.1489 90.9927 25.9901 91.0986 25.8842 91.0986C25.8313 91.0986 25.6725 90.9927 25.4607 90.8075C25.249 90.6222 25.0373 90.4634 24.852 90.3046C24.6667 90.1723 24.5079 90.0399 24.4021 89.9076C24.2697 89.7753 24.2168 89.6694 24.2168 89.59C24.3491 89.3254 24.4285 89.1136 24.5079 88.9548C24.7197 88.4784 24.8785 88.1608 24.9843 87.9491C25.1696 87.6315 25.3549 87.3139 25.5666 86.9698C25.6195 86.9169 25.6725 86.811 25.7519 86.6787C25.8048 86.7316 25.8842 86.7846 25.9371 86.8375C25.9901 86.8904 26.0959 86.9434 26.2018 86.9963C26.6517 87.3668 26.9428 87.6315 27.1016 87.8168C27.234 88.002 27.3398 88.2138 27.3663 88.4784Z" fill="#4C2F92"/>
<path fill-rule="evenodd" clip-rule="evenodd" d="M15.1387 96.4708C15.2975 96.365 15.4563 96.2326 15.5886 96.1003C15.7209 95.9415 15.8797 95.7827 16.0121 95.571L16.7531 94.3006C17.2031 93.4801 17.4942 93.0566 17.653 93.0566C17.7059 93.0566 17.7589 93.0831 17.8118 93.136C17.8647 93.189 17.8912 93.2154 17.9177 93.2419C17.8647 93.4272 17.8118 93.6124 17.7589 93.7712C17.7059 93.93 17.7059 94.0624 17.7059 94.1682C17.7059 94.8299 17.9706 95.1475 18.4734 95.1475C18.5264 95.1475 18.6322 94.9622 18.8175 94.5917C19.0028 94.2212 19.1351 94.0359 19.188 94.0359C19.3468 94.1418 19.4792 94.2476 19.5586 94.327C19.8232 94.6182 19.982 94.9358 19.982 95.2798C19.982 95.8092 19.8232 96.365 19.5056 96.9472C19.188 97.5295 18.844 97.9794 18.447 98.2705C18.1823 98.4293 18.0235 98.5087 17.9177 98.5352C17.8118 98.5617 17.6795 98.5881 17.4942 98.5881C17.256 98.5881 17.0443 98.5352 16.859 98.4558C16.6737 98.3499 16.5149 98.2441 16.3561 98.0853C16.2238 97.9265 16.1179 97.7941 16.065 97.6618C16.0121 97.5295 15.9591 97.3971 15.9327 97.2913C15.8533 97.2913 15.7209 97.3971 15.5621 97.6353C15.4033 97.8471 15.271 98.0323 15.1387 98.1647V96.4708Z" fill="#4C2F92"/>
<path fill-rule="evenodd" clip-rule="evenodd" d="M8.8398 101.103C8.8398 101.58 8.62807 102.083 8.23107 102.612C7.80761 103.141 7.41061 103.432 7.04008 103.432C6.90775 103.3 6.82835 103.194 6.74895 103.115C6.48429 102.85 6.27256 102.638 6.11376 102.48C5.95496 102.321 5.76969 102.189 5.61089 102.03C5.45209 101.871 5.37269 101.765 5.37269 101.712C5.37269 101.659 5.42563 101.527 5.55796 101.289C5.61089 101.183 5.82262 100.839 6.16669 100.283C6.43135 99.8066 6.69602 99.436 6.96068 99.1449C6.98715 99.092 7.01362 99.039 7.09302 98.9596C7.46355 99.2243 7.75468 99.4625 7.93994 99.6213C8.5222 100.151 8.8398 100.653 8.8398 101.103ZM15.0594 98.1127C14.8742 98.298 14.6889 98.4568 14.5036 98.5626C14.3184 98.6685 14.1066 98.7479 13.8155 98.7744C13.5508 98.8008 13.3656 98.8802 13.3126 99.0126C13.2597 99.1449 13.1803 99.436 13.1274 99.9124C13.0744 100.389 12.995 100.786 12.9421 101.156C12.8892 101.527 12.8098 101.844 12.7568 102.083C12.7039 102.347 12.6245 102.638 12.5451 102.983C12.3863 103.565 12.0687 104.332 11.6452 105.338C10.8777 107.085 9.89846 108.488 8.681 109.599C7.25181 110.896 5.71676 111.531 4.0229 111.531C2.59372 111.531 1.53506 111.081 0.846928 110.208C0.264666 109.467 0 108.435 0 107.085C0 106.45 0.105867 105.656 0.317599 104.729C0.476398 104.041 0.635195 103.485 0.793994 103.035L1.69385 100.998C1.90559 100.601 2.11732 100.177 2.32905 99.7801C2.54078 99.3566 2.72605 99.1714 2.91131 99.1714C2.96424 99.3302 3.01718 99.4625 3.01718 99.5419C2.96425 99.7272 2.85838 100.018 2.69958 100.389C2.43492 100.998 2.22318 101.421 2.11732 101.659C1.82619 102.347 1.61446 102.903 1.48212 103.3C1.29686 103.962 1.19099 104.571 1.19099 105.153C1.19099 106.053 1.50859 106.794 2.17025 107.35C2.80545 107.905 3.70531 108.196 4.8169 108.196C6.08729 108.196 7.22535 107.932 8.20461 107.376C9.18387 106.82 10.0308 106.026 10.6925 104.968C11.2218 104.147 11.5923 103.327 11.8305 102.533C12.0422 101.739 12.1746 100.865 12.1746 99.886L12.201 97.9804C12.201 97.6098 12.3334 97.2658 12.598 96.9746C12.8627 96.6835 13.1803 96.5776 13.5244 96.6306H14.0537C14.5301 96.6306 14.8742 96.5776 15.1124 96.4453C15.1653 96.5512 15.2447 96.6835 15.2976 96.8158C15.3506 96.9482 15.377 97.107 15.377 97.2393C15.377 97.3981 15.3241 97.6363 15.2182 97.901C15.1388 97.9539 15.1124 98.0333 15.0594 98.1127Z" fill="#4C2F92"/>
<path fill-rule="evenodd" clip-rule="evenodd" d="M14.5558 111.108C14.6087 111.32 14.5822 111.558 14.5028 111.796C14.4234 112.034 14.3176 112.325 14.1588 112.617C14 112.934 13.7882 113.199 13.4971 113.464C13.3383 113.622 13.1795 113.728 13.0736 113.728C13.0207 113.728 12.8619 113.622 12.6502 113.437C12.4384 113.252 12.2267 113.093 12.0414 112.934C11.8562 112.802 11.6974 112.67 11.5915 112.537C11.4592 112.405 11.4062 112.299 11.4062 112.22C11.5386 111.955 11.618 111.743 11.6974 111.584C11.9091 111.108 12.0679 110.79 12.1738 110.579C12.359 110.261 12.5443 109.944 12.756 109.599C12.809 109.547 12.8619 109.441 12.9413 109.308C12.9942 109.361 13.0736 109.414 13.1266 109.467C13.1795 109.52 13.2854 109.573 13.3912 109.626C13.8412 109.996 14.1323 110.261 14.2911 110.446C14.4234 110.632 14.5028 110.87 14.5558 111.108ZM17.8111 110.923C17.8641 111.134 17.8376 111.373 17.7582 111.611C17.6788 111.849 17.5729 112.14 17.4141 112.431C17.2553 112.749 17.0436 113.014 16.7525 113.278C16.5937 113.437 16.4349 113.543 16.329 113.543C16.2761 113.543 16.1173 113.437 15.9056 113.252C15.6938 113.067 15.4821 112.908 15.2968 112.749C15.1116 112.617 14.9528 112.484 14.8469 112.352C14.7146 112.22 14.6616 112.114 14.6616 112.034C14.794 111.77 14.8734 111.558 14.9528 111.399C15.1645 110.923 15.3233 110.605 15.4292 110.393C15.6144 110.076 15.7997 109.758 16.0114 109.414C16.0643 109.361 16.1173 109.255 16.1967 109.123C16.2496 109.176 16.329 109.229 16.3819 109.282C16.4349 109.335 16.5407 109.388 16.6466 109.441C17.0965 109.811 17.3877 110.076 17.5465 110.261C17.6788 110.446 17.7847 110.685 17.8111 110.923Z" fill="#4C2F92"/>
</svg>
