<svg width="44" height="44" viewBox="0 0 44 44" fill="none" xmlns="http://www.w3.org/2000/svg">
<path d="M5.94 0.34375C4.3267 0.34375 2.86 0.930445 1.76 2.03045C0.586695 3.20375 0 4.67036 0 6.21036C0 7.82366 0.66 9.29036 1.76 10.3904C2.86 11.4904 4.4 12.1504 5.8667 12.0771C5.8667 12.0771 5.94 12.0771 6.01339 12.0771C7.48009 12.0771 8.87339 11.4904 9.97339 10.3904C11.0734 9.29036 11.7334 7.82366 11.7334 6.21036C11.8067 4.67036 11.1467 3.20366 10.0467 2.10366C8.9467 0.930359 7.48 0.34375 5.94 0.34375ZM8.9467 9.36375C8.14 10.1704 7.04 10.6838 5.8667 10.6104C4.7667 10.6104 3.59339 10.1704 2.7867 9.36375C1.9067 8.55705 1.4667 7.38375 1.4667 6.21045C1.4667 5.03714 1.9067 3.93714 2.7867 3.05714C3.59339 2.25045 4.69339 1.81045 5.94 1.81045C7.04 1.81045 8.14 2.25045 8.9467 3.05714C9.8267 3.93714 10.2667 5.03714 10.2667 6.21045C10.2667 7.38375 9.8267 8.55705 8.9467 9.36375Z" fill="#F8FAFC"/>
<path d="M8.80009 13.5439H2.86009C1.68679 13.5439 0.733398 14.4972 0.733398 15.7439V41.4106C0.733398 42.5839 1.76009 43.6106 2.9334 43.6106H8.80009C9.97339 43.6106 11.0001 42.5839 11.0001 41.4839V15.7439C11.0001 14.5706 9.97339 13.5439 8.80009 13.5439ZM9.53339 41.4839C9.53339 41.8506 9.1667 42.1439 8.80009 42.1439H2.9334C2.5667 42.1439 2.20009 41.7773 2.20009 41.4106V15.7439C2.20009 15.3772 2.4934 15.0106 2.86009 15.0106H8.80009C9.16678 15.0106 9.53339 15.3773 9.53339 15.7439V41.4839Z" fill="#F8FAFC"/>
<path d="M33.7328 12.8096H32.1928C29.3328 12.8096 26.6195 14.0563 24.8595 16.0363V15.0096C24.8595 14.2763 24.1262 13.5429 23.3928 13.5429H16.0595C15.3995 13.5429 14.5928 14.1296 14.5928 14.9362V42.2895C14.5928 43.0962 15.3995 43.6095 16.0595 43.6095H24.1262C24.7862 43.6095 25.5929 43.0962 25.5929 42.2895V26.4495C25.5929 24.0295 27.3529 22.1228 29.6262 22.1228C30.7995 22.1228 31.8995 22.5628 32.7062 23.3695C33.4395 24.0295 33.7329 25.0562 33.7329 26.3762V42.1429C33.7329 42.8762 34.4662 43.6096 35.1996 43.6096H42.5329C43.2662 43.6096 43.9996 42.8763 43.9996 42.1429V23.2229C43.9995 17.3563 39.5262 12.8096 33.7328 12.8096ZM42.5328 42.0696L42.4595 42.1429H35.2728L35.1995 26.3763C35.1995 24.6163 34.7595 23.2963 33.8062 22.343C32.7062 21.243 31.2395 20.6563 29.6995 20.6563C26.6195 20.7296 24.1995 23.223 24.1995 26.4496V42.1429H16.1328V15.0096H23.3928L23.4661 15.0829V19.7029L25.4461 17.7229L25.5194 17.6496C26.9861 15.5963 29.5527 14.2763 32.2661 14.2763H33.8061C38.7194 14.2763 42.5328 18.2363 42.5328 23.223V42.0696Z" fill="#F8FAFC"/>
</svg>
