<svg width="32" height="32" viewBox="0 0 32 32" fill="none" xmlns="http://www.w3.org/2000/svg">
<path d="M25.3333 12.8932C25.3333 17.7999 18.5333 27.9999 16 27.9999C13.4666 27.9999 6.66663 17.7999 6.66663 12.8932C6.64385 11.7351 6.86606 10.5853 7.31873 9.51914C7.7714 8.45296 8.44426 7.49448 9.29326 6.70654C11.0942 4.97021 13.4983 4 16 4C18.5016 4 20.9058 4.97021 22.7067 6.70654C23.5557 7.49448 24.2285 8.45296 24.6812 9.51914C25.1339 10.5853 25.3561 11.7351 25.3333 12.8932V12.8932Z" stroke="#F8FAFC" stroke-width="2" stroke-linecap="round" stroke-linejoin="round"/>
<path d="M15.9336 16.6667C16.7611 16.6655 17.5586 16.3567 18.1709 15.8001C18.7833 15.2436 19.1668 14.4791 19.2468 13.6555C19.3268 12.8319 19.0976 12.008 18.6037 11.344C18.1099 10.68 17.3867 10.2235 16.5749 10.0632C15.7631 9.90285 14.9207 10.0502 14.2115 10.4766C13.5023 10.903 12.977 11.5779 12.7379 12.3701C12.4988 13.1623 12.5629 14.0151 12.9177 14.7626C13.2725 15.5102 13.8927 16.099 14.6576 16.4147C15.0623 16.5816 15.4959 16.6673 15.9336 16.6667V16.6667Z" stroke="#F8FAFC" stroke-width="2" stroke-linecap="round" stroke-linejoin="round"/>
</svg>
