<svg width="98" height="61" viewBox="0 0 98 61" fill="none" xmlns="http://www.w3.org/2000/svg">
<path fill-rule="evenodd" clip-rule="evenodd" d="M48.0418 5.17955V10.7956V10.8538H47.9836H47.9254H47.8672H47.809H47.7508H47.6926H47.6344H47.5762H47.518H47.4598H47.4016C47.1397 10.912 46.9069 10.9993 46.6741 11.0866C46.6159 11.1157 46.5868 11.1157 46.5286 11.1448C46.4704 11.1739 46.4414 11.1739 46.3832 11.203L46.325 11.2321L46.2668 11.2612L46.2086 11.2903L46.1504 11.3194H46.1213L46.0631 11.3485L46.034 11.3776H46.0049C45.9758 11.3776 45.9758 11.4067 45.9467 11.4067L45.8885 11.4358L45.8303 11.4649L45.7721 11.494L45.7139 11.5231C45.5684 11.6103 45.452 11.6976 45.3065 11.814C45.2774 11.8431 45.2483 11.8431 45.2192 11.8722C45.1901 11.9013 45.161 11.9013 45.1319 11.9304L45.1028 11.9595L45.0737 11.9886L45.0446 12.0177L45.0155 12.0468L44.9864 12.0759L44.9573 12.105L44.9282 12.1341L44.8991 12.1632L44.87 12.1923L44.8409 12.2214L44.8118 12.2505L44.7827 12.2796L44.7536 12.3087L44.7245 12.3378L44.6954 12.3669L44.6663 12.396L44.6372 12.4251L44.6081 12.4542L44.579 12.4833L44.5499 12.5124L44.5208 12.5415L44.4917 12.5706L44.4626 12.5997L44.5208 12.8034L44.4917 12.8325C44.4335 12.9198 44.3753 13.0071 44.3172 13.0944L44.2881 13.1526L44.259 13.2108L44.2299 13.2399L44.2008 13.269L44.1717 13.3272L44.1426 13.3854L44.1135 13.4436C44.1135 13.4727 44.0844 13.4727 44.0844 13.5018L44.0553 13.56L44.0262 13.589L43.9971 13.6181L43.968 13.6763L43.9389 13.7345L43.9098 13.7927L43.8807 13.8509L43.8516 13.9091L43.8225 13.9673L43.7934 13.9964L43.7643 14.0546L43.7352 14.1128L43.7061 14.171C43.7061 14.2001 43.677 14.2292 43.677 14.2292L43.6479 14.2874C43.6479 14.3165 43.6188 14.3456 43.6188 14.3747V14.4038L43.5897 14.462L43.5606 14.5202L43.5315 14.5784V14.6075V14.6366V14.6657V14.6948L43.5024 14.753V14.8112L43.4733 14.8694V14.9276C43.4733 14.9567 43.4733 14.9567 43.4442 14.9858V15.044V15.1022V15.1604V15.2186V15.2768V15.335V15.3932V15.4514V15.5096V15.5678V15.626V15.6841V15.7423V15.8296V15.8587V15.9169V15.9751V16.0333V16.0915V16.1497V16.2079V16.2661V16.3243V16.3825V16.4407C43.4442 16.528 43.4733 16.6153 43.4733 16.7026V16.7608V16.819V16.8772V16.9354C43.4733 16.9936 43.5024 17.0518 43.5024 17.11V17.1391V17.1682L43.5315 17.2264L43.5606 17.2846C43.5606 17.3137 43.5897 17.3428 43.5897 17.3719V17.401V17.4301L43.6188 17.4883L43.6479 17.5465L43.677 17.6047L43.7061 17.6629L43.7352 17.7211L43.7643 17.7793L43.7934 17.8374L43.8225 17.8956L43.8516 17.9538L43.7934 17.9829L40.2143 20.0489L40.127 20.1071V19.9907V7.30375V6.11071C40.127 5.26685 40.5634 4.56848 41.2327 4.1611L41.2618 4.132L42.804 3.22995L48.1291 0.145493C48.3037 0.0290986 48.4492 0 48.5947 0C48.7401 0 48.8856 0.058199 49.0893 0.174593L56.0439 4.1902C56.6841 4.59758 57.0914 5.29595 57.0914 6.11071V7.30375V9.54434V9.66074L57.0041 9.60254L48.5364 4.71397C48.4783 4.68488 48.391 4.65578 48.3328 4.65578C48.2746 4.65578 48.2164 4.65578 48.1873 4.68488C48.1291 4.71398 48.1 4.74307 48.0709 4.80127C48.0709 5.00496 48.0418 5.06316 48.0418 5.17955Z" fill="black"/>
<path fill-rule="evenodd" clip-rule="evenodd" d="M39.544 21.9409L44.4035 19.1475L44.4617 19.1184L44.4908 19.1475L44.5199 19.2057L44.549 19.2639L44.5781 19.293L44.6072 19.3221L44.6363 19.3803L44.6654 19.4094L44.6945 19.4676L44.7236 19.4967L44.7527 19.5258L44.7818 19.5549C44.9564 19.7294 45.16 19.904 45.3346 20.0786C45.3637 20.1077 45.4219 20.1368 45.451 20.1659C45.4801 20.195 45.5383 20.2241 45.5674 20.2532L45.6256 20.2823L45.6838 20.3114L45.7129 20.3405L45.742 20.3696H45.7711L45.8002 20.3987L45.8293 20.4278C45.8584 20.4278 45.8584 20.4569 45.8875 20.4569L45.9457 20.486L46.0039 20.5151L46.0621 20.5442L46.1203 20.5733C46.2658 20.6606 46.4113 20.7188 46.5859 20.777C46.615 20.777 46.6441 20.8061 46.6732 20.8061C46.7023 20.8061 46.7314 20.8352 46.7605 20.8352L46.8187 20.8643L46.8769 20.8934L46.9351 20.9225H46.9933H47.0224H47.0806H47.1388H47.1679H47.226H47.2842H47.3133H47.3425H47.3715H47.4006H47.4297H47.4588H47.517H47.5461H47.5752H47.6043H47.6334H47.6625H47.6916H47.7498H47.7789H47.808C47.8953 20.9225 48.0117 20.9516 48.1281 20.9516H48.1863H48.2445H48.2736H48.3027H48.3318H48.39H48.4482H48.5064C48.5355 20.9516 48.5646 20.9516 48.5646 20.9516H48.6228H48.6519H48.681H48.7392H48.7974H48.8556H48.9138H48.972H49.0302H49.0884H49.1466H49.2048H49.263C49.2921 20.9516 49.3212 20.9516 49.3212 20.9516H49.3794C49.4085 20.9516 49.4375 20.9516 49.4666 20.9225H49.4957H49.5539H49.6121H49.6703H49.6994H49.7285H49.7576H49.7867L49.8449 20.8934L49.9031 20.8643L49.9613 20.8352L50.0195 20.8061C50.0486 20.8061 50.0486 20.8061 50.0777 20.777L50.1359 20.7479L50.1941 20.7188L50.2523 20.6897L50.3105 20.6606L50.3687 20.6315L50.4269 20.6024L50.4851 20.5733L50.5433 20.5442L50.6015 20.5151L50.6597 20.486L50.7179 20.4569L50.7761 20.4278L50.8052 20.3987L50.8634 20.3696L50.8925 20.3405L50.9507 20.3114L51.0089 20.2823L51.0671 20.2532L51.1253 20.2241L51.1835 20.195L51.2417 20.1659L51.2999 20.1368L51.3581 20.1077L51.4163 20.0786L51.4744 20.0495C51.5326 19.9913 51.6199 19.9331 51.6781 19.904L51.7363 19.8749L51.7945 19.8458L51.8527 19.8167L51.9109 19.7876C51.9691 19.7585 51.9982 19.7003 52.0564 19.6712L52.0855 19.6421L52.1146 19.613L52.1728 19.5549L52.231 19.4967C52.2601 19.4676 52.2601 19.4676 52.2892 19.4385L52.3183 19.3803L52.3474 19.3221L52.3765 19.2639L52.4056 19.2057L52.4347 19.1475L52.4638 19.0893L52.4929 19.0311L52.522 18.9729L52.5511 18.9438L52.6093 18.9729L56.1884 21.0389L56.2757 21.0971L56.1884 21.1553L45.1891 27.4988L44.1707 28.0807C43.4432 28.4881 42.5994 28.459 41.9301 28.0807L41.901 28.0516L40.3588 27.1496L35.0337 24.0651C34.8591 23.9778 34.7428 23.8614 34.6555 23.716C34.5682 23.5705 34.5391 23.425 34.5391 23.2213V15.1901C34.5682 14.4335 34.9755 13.7351 35.6739 13.3278L36.6924 12.7458L38.642 11.6109L38.7293 11.5527V11.6691V21.4463C38.7293 21.5336 38.7584 21.5918 38.7875 21.65C38.8166 21.7081 38.8457 21.7372 38.9039 21.7663C38.933 21.7954 38.9911 21.7954 39.0493 21.7954C39.3694 21.9991 39.4567 21.97 39.544 21.9409Z" fill="black"/>
<path fill-rule="evenodd" clip-rule="evenodd" d="M58.3133 20.9214L53.4539 18.1279L53.3957 18.0988L53.4248 18.0406L53.4539 17.9824L53.483 17.9242L53.5121 17.866L53.5412 17.8078L53.5703 17.7496L53.5994 17.6914L53.6285 17.6333L53.6576 17.5751L53.6867 17.5169L53.7158 17.4587C53.8031 17.2259 53.8322 16.964 53.8904 16.7021C53.8904 16.6439 53.8904 16.6148 53.9194 16.5566C53.9194 16.4984 53.9194 16.4693 53.9194 16.4111V16.3529V16.2947V16.2365V16.1783V16.1492V16.091V16.0328V16.0037C53.9194 15.9746 53.9194 15.9455 53.9194 15.9455V15.9164V15.8582V15.8V15.7418V15.6836C53.9194 15.509 53.8904 15.3636 53.8613 15.189C53.8613 15.1599 53.8613 15.1308 53.8322 15.1017C53.8322 15.0726 53.8322 15.0435 53.8031 15.0144V14.9562V14.898V14.8398V14.7816V14.7525V14.6943V14.6361V14.607V14.5488V14.4906V14.4615V14.4324V14.4033V14.3742V14.3451V14.316L53.774 14.2578V14.2287V14.1996V14.1705V14.1414V14.1123V14.0832L53.7449 14.0541L53.7158 14.025V13.9959C53.6867 13.9086 53.6285 13.8213 53.5994 13.7049L53.5703 13.6467L53.5412 13.5885V13.5594L53.5121 13.5303L53.483 13.5012L53.4539 13.443L53.4248 13.3849L53.3957 13.3267C53.3957 13.2976 53.3666 13.2976 53.3666 13.2685L53.3375 13.2103L53.3084 13.1812L53.2793 13.1521L53.2502 13.0939L53.2211 13.0357L52.9592 13.0939L52.9301 13.0357L52.901 12.9775L52.8719 12.9193L52.8428 12.8902L52.8137 12.832L52.7846 12.7738L52.7555 12.7156C52.7264 12.6865 52.7264 12.6865 52.7264 12.6574L52.6973 12.6283C52.6682 12.5992 52.6391 12.5701 52.6391 12.541V12.5119L52.61 12.4828L52.5809 12.4537L52.5518 12.4246L52.5227 12.3955L52.4936 12.3664L52.4645 12.3373L52.4354 12.3082L52.4063 12.2791L52.3481 12.2209L52.319 12.1918C52.319 12.1918 52.2899 12.1627 52.2608 12.1336L52.2317 12.1045L52.1735 12.0463L52.1444 12.0172L52.0862 11.959L52.028 11.9299L51.9698 11.9008L51.9116 11.8717L51.8535 11.8426L51.7953 11.8135L51.7371 11.7844L51.6789 11.7553L51.6207 11.7262L51.5916 11.6971L51.5334 11.668L51.5043 11.6389L51.4461 11.6098L51.3879 11.5807L51.3297 11.5516L51.2715 11.5225L51.2133 11.4934L51.1551 11.4643L51.0969 11.4352L51.0387 11.4061L50.9805 11.377L50.9223 11.3479C50.835 11.3189 50.7768 11.2898 50.6895 11.2607L50.6313 11.2316L50.5731 11.2025L50.3403 11.057L50.2821 11.0279C50.2239 10.9988 50.1657 10.9988 50.1075 10.9697H50.0784H50.0493L49.9911 10.9406L49.9329 10.9115C49.9038 10.9115 49.8747 10.9115 49.8456 10.8824H49.8166H49.7875H49.7293H49.6711H49.6129H49.5547H49.4965H49.4383H49.3801H49.3219H49.2637V10.766V6.63398V6.51758L49.351 6.57578L60.3502 12.9193L61.3687 13.5012C62.0962 13.9086 62.5035 14.6652 62.5035 15.4509V15.5091V17.2841V23.453C62.5035 23.6567 62.4744 23.8022 62.3871 23.9476C62.2999 24.0931 62.1835 24.1804 62.0089 24.2968L54.9961 28.2833C54.3268 28.6325 53.5121 28.6325 52.8137 28.2542L51.7953 27.6723L49.8456 26.5374L49.7584 26.4792L49.8456 26.421L58.3133 21.5325C58.3715 21.5034 58.4297 21.4452 58.4588 21.387C58.4879 21.3288 58.4879 21.2997 58.4879 21.2415C58.4879 21.1833 58.4879 21.1542 58.4588 21.096C58.4588 21.0378 58.4006 20.9796 58.3133 20.9214Z" fill="black"/>
<path fill-rule="evenodd" clip-rule="evenodd" d="M48.6238 11.959C50.8644 11.959 52.6685 13.7631 52.6685 16.0037C52.6685 18.2443 50.8644 20.0484 48.6238 20.0484C46.3832 20.0484 44.5791 18.2443 44.5791 16.0037C44.5791 13.7922 46.3832 11.959 48.6238 11.959Z" fill="#512200"/>
<path fill-rule="evenodd" clip-rule="evenodd" d="M47.8383 5.09285V10.7089V10.7671H47.7801H47.7219H47.6637H47.6055H47.5473H47.4891H47.4309H47.3727H47.3145H47.2563H47.1981C46.9363 10.8253 46.7035 10.9126 46.4707 10.9999C46.4125 11.029 46.3834 11.029 46.3252 11.0581C46.267 11.0872 46.2379 11.0872 46.1797 11.1163L46.1215 11.1454L46.0633 11.1745L46.0051 11.2036L45.9469 11.2327H45.9178L45.8596 11.2618L45.8305 11.2909H45.8014C45.7723 11.2909 45.7723 11.32 45.7432 11.32L45.685 11.3491L45.6268 11.3782L45.5686 11.4072L45.5104 11.4363C45.3649 11.5236 45.2485 11.6109 45.103 11.7273C45.0739 11.7564 45.0448 11.7564 45.0157 11.7855C44.9866 11.8146 44.9575 11.8146 44.9284 11.8437L44.8993 11.8728L44.8703 11.9019L44.8412 11.931L44.8121 11.9601L44.783 11.9892L44.7539 12.0183L44.7248 12.0474L44.6957 12.0765L44.6666 12.1056L44.6375 12.1347L44.6084 12.1638L44.5793 12.1929L44.5502 12.222L44.5211 12.2511L44.492 12.2802L44.4629 12.3093L44.4338 12.3384L44.4047 12.3675L44.3756 12.3966L44.3465 12.4257L44.3174 12.4548L44.2883 12.4839L44.2592 12.513L44.2301 12.5421L44.201 12.5712C44.1428 12.6585 44.0846 12.7458 44.0264 12.8331L43.9973 12.8913L43.9682 12.9495L43.9391 12.9786L43.91 13.0077L43.8809 13.0659L43.8518 13.1241L43.8227 13.1823C43.8227 13.2114 43.7936 13.2114 43.7936 13.2405L43.7645 13.2987L43.7354 13.3278L43.7063 13.3569L43.6772 13.4151L43.6481 13.4733L43.619 13.5314L43.5899 13.5896L43.5608 13.6478L43.5317 13.706L43.5026 13.7351L43.4735 13.7933L43.4444 13.8515L43.4153 13.9097C43.4153 13.9388 43.3862 13.9679 43.3862 13.9679L43.3571 14.0261C43.3571 14.0552 43.328 14.0843 43.328 14.1134V14.1425L43.2989 14.2007L43.2698 14.2589L43.2407 14.3171V14.3462V14.3753V14.4044V14.4335L43.2116 14.4917V14.5499L43.1825 14.6081V14.6663C43.1825 14.6954 43.1825 14.6954 43.1534 14.7245V14.7827V14.8409V14.8991V14.9573V15.0155V15.0737V15.1319V15.1901V15.2483V15.3065V15.3647V15.4229V15.4811V15.5684V15.5975V15.6556V15.7138V15.772V15.8302V15.8884V15.9466V16.0048V16.063V16.1212V16.1794C43.1534 16.2667 43.1825 16.354 43.1825 16.4413V16.4995V16.5577V16.6159V16.6741C43.1825 16.7323 43.2116 16.7905 43.2116 16.8487V16.8778V16.9069L43.2407 16.9651L43.2698 17.0233C43.2698 17.0524 43.2989 17.0815 43.2989 17.1106V17.1397V17.1688L43.328 17.227L43.3571 17.2852L43.3862 17.3434L43.4153 17.4016L43.4444 17.4598L43.4735 17.518L43.5026 17.5762L43.5317 17.6344L43.5608 17.6926L43.5026 17.7216L39.9235 19.7877L39.8362 19.8458V20.0786V7.39164V6.1986C39.8362 5.35474 40.2727 4.65637 40.9419 4.24899L40.971 4.21989L42.5133 3.31783L47.8383 0.233384C48.0129 0.116989 48.1584 0.0878906 48.333 0.0878906C48.4785 0.0878906 48.624 0.146085 48.8277 0.26248L55.7822 4.27809C56.4224 4.68547 56.8298 5.38384 56.8298 6.1986V7.39164V9.63224V9.74863L56.7425 9.69043L48.2748 4.80187C48.2166 4.77277 48.1293 4.74367 48.0711 4.74367C48.0129 4.74367 47.9547 4.74367 47.9256 4.77276C47.8674 4.80186 47.8383 4.83096 47.8092 4.88916C47.8674 4.91826 47.8383 5.00556 47.8383 5.09285ZM58.1101 20.8643C58.1974 20.9225 58.2556 20.9807 58.2847 21.0389C58.3138 21.0971 58.3138 21.1262 58.3138 21.1844C58.3138 21.2426 58.2847 21.2717 58.2847 21.3299C58.2556 21.3881 58.1974 21.4463 58.1392 21.4754L49.6715 26.3639L49.5842 26.4221L49.6715 26.4803L51.6211 27.6152L52.6396 28.1971C53.3379 28.6045 54.1527 28.5754 54.822 28.2262L61.7765 24.2106C61.9511 24.0942 62.0675 24.0069 62.1548 23.8615C62.2421 23.716 62.2712 23.5705 62.2712 23.3668V17.1979V15.4229V15.3647C62.2712 14.579 61.8638 13.8515 61.1364 13.4151L60.1179 12.8331L49.1186 6.48959L49.0314 6.43139V6.54778V10.6798V10.738H49.0896H49.1477H49.2059H49.2641H49.3223H49.3805H49.4387H49.4969H49.5551H49.5842H49.6133C49.6424 10.738 49.6715 10.738 49.7006 10.7671L49.7588 10.7962L49.817 10.8253H49.8461H49.8752C49.9334 10.8544 49.9916 10.8544 50.0498 10.8835L50.108 10.9126L50.1662 10.9417L50.2244 10.9708L50.2826 10.9999C50.3699 11.029 50.4572 11.0581 50.5154 11.0872L50.5736 11.1163L50.6318 11.1454L50.69 11.1745L50.7482 11.2036L50.8064 11.2327L50.8646 11.2618L50.9228 11.2909L50.981 11.32L51.0392 11.3491L51.0974 11.3782L51.1265 11.4072L51.1846 11.4363L51.2137 11.4654L51.2719 11.4945L51.3301 11.5236L51.3883 11.5527L51.4465 11.5818L51.5047 11.6109L51.5629 11.64L51.6211 11.6691L51.6793 11.6982L51.7375 11.7564L51.7666 11.7855L51.8248 11.8437L51.8539 11.8728C51.883 11.9019 51.883 11.9019 51.9121 11.931L51.9412 11.9601L51.9994 12.0183L52.0285 12.0474L52.0576 12.0765L52.0867 12.1056L52.1158 12.1347L52.1449 12.1638L52.174 12.1929L52.2031 12.222L52.2322 12.2511V12.2802C52.2613 12.3093 52.2613 12.3384 52.2904 12.3675L52.3195 12.3966C52.3195 12.3966 52.3486 12.4257 52.3486 12.4548L52.3777 12.513L52.4068 12.5712L52.4359 12.6294L52.465 12.6585L52.4941 12.7167L52.5232 12.7749L52.5523 12.8331L52.5814 12.8913L52.6105 12.9495L52.6396 13.0077L52.6687 13.0368L52.6978 13.0659L52.7269 13.1241C52.7269 13.1532 52.756 13.1532 52.756 13.1823L52.7851 13.2405L52.8142 13.2987L52.8433 13.3569L52.8724 13.386L52.9015 13.4151V13.4442L52.9306 13.5023L52.9597 13.5605C53.0179 13.6478 53.047 13.7351 53.0761 13.8515V13.8806L53.1052 13.9097L53.1343 13.9388V13.9679V13.997V14.0261V14.0552V14.0843V14.1134L53.1634 14.1716V14.2007V14.2298V14.2589V14.288V14.3171V14.3462V14.4044V14.4626V14.4917V14.5499V14.6081V14.6372V14.6954V14.7536V14.8118V14.87C53.1634 14.8991 53.1634 14.9282 53.1924 14.9573C53.1924 14.9864 53.1925 15.0155 53.2215 15.0446C53.2506 15.2192 53.2507 15.3647 53.2798 15.5393V15.5975V15.6556V15.7138V15.772V15.8011C53.2798 15.8302 53.2798 15.8593 53.2798 15.8593V15.8884V15.9466V16.0048V16.0339V16.0921V16.1503V16.2085V16.2667C53.2798 16.3249 53.2798 16.354 53.2798 16.4122C53.2798 16.4704 53.2797 16.4995 53.2507 16.5577C53.2216 16.8196 53.1634 17.0524 53.0761 17.3143L53.047 17.3725L53.0179 17.4307L52.9888 17.4889L52.9597 17.5471L52.9306 17.6053L52.9015 17.6635L52.8724 17.7216L52.8433 17.7798L52.8142 17.838L52.7851 17.8962L52.756 17.9544L52.8142 17.9835L58.1101 20.8643ZM39.3124 21.8537C39.2251 21.9118 39.1669 21.9118 39.0796 21.9118C39.0214 21.9118 38.9632 21.9119 38.9341 21.8828C38.905 21.8537 38.8468 21.8245 38.8177 21.7664C38.7886 21.7082 38.7595 21.6209 38.7595 21.5627V11.7855V11.6691L38.6722 11.7273L36.7226 12.8622L35.7042 13.4442C35.0058 13.8515 34.5984 14.579 34.5693 15.3065V23.3377C34.5693 23.5414 34.5984 23.716 34.6857 23.8324C34.773 23.9778 34.8894 24.0651 35.064 24.1815L40.3891 27.266L41.9313 28.168L41.9604 28.1971C42.6297 28.5754 43.4735 28.6045 44.201 28.1971L45.2194 27.6152L56.2187 21.2717L56.306 21.2135L56.2187 21.1553L52.6396 19.0893L52.5814 19.0602L52.5523 19.0893L52.5232 19.1475L52.4941 19.2057L52.465 19.2639L52.4359 19.3221L52.4068 19.3803L52.3777 19.4385L52.3486 19.4967L52.3195 19.5549C52.2904 19.584 52.2904 19.6131 52.2613 19.6131L52.2031 19.6713L52.1449 19.7295L52.1158 19.7586L52.0867 19.7877C52.0285 19.8167 51.9994 19.8749 51.9412 19.904L51.883 19.9331L51.8248 19.9622L51.7666 19.9913L51.7084 20.0204C51.6502 20.0786 51.5629 20.1368 51.5047 20.1659L51.4465 20.195L51.3883 20.2241L51.3301 20.2532L51.2719 20.2823L51.2137 20.3696L51.1555 20.3987L51.0974 20.4278L51.0392 20.4569L50.981 20.486L50.9228 20.5151L50.8937 20.5442L50.8355 20.5733L50.8064 20.6024L50.7482 20.6315L50.69 20.6606L50.6318 20.6897L50.5736 20.7188L50.5154 20.7479L50.4572 20.777L50.399 20.8061L50.3408 20.8352L50.2826 20.8643L50.2244 20.8934L50.1662 20.9225L50.108 20.9516C50.0789 20.9516 50.0498 20.9807 50.0498 20.9807L49.9916 21.0098L49.9334 21.0389L49.8752 21.068L49.817 21.0971H49.7879H49.7588H49.7297H49.7006H49.6424H49.5842H49.526H49.4969C49.4678 21.0971 49.4387 21.0971 49.4096 21.1262H49.3514C49.3223 21.1262 49.3223 21.1262 49.2932 21.1262H49.235H49.1768H49.1186H49.0605H49.0023H48.9441H48.8859H48.8277H48.7695H48.7113H48.6822H48.6531H48.5949C48.5658 21.1262 48.5658 21.1262 48.5367 21.1262H48.4785H48.4203H48.3621H48.333H48.3039H48.2748H48.2166H48.1584C48.042 21.1262 47.9547 21.0971 47.8383 21.0971H47.8092H47.7801H47.7219H47.6928H47.6637H47.6346H47.6055H47.5764H47.5473H47.4891H47.46H47.4309H47.4018H47.3727H47.3436H47.3145H47.2563H47.1981H47.169H47.1108H47.0526H47.0235H46.9653L46.9072 21.068L46.849 21.0389L46.7908 21.0098C46.7617 21.0098 46.7326 20.9807 46.7035 20.9807C46.6744 20.9807 46.6453 20.9516 46.6162 20.9516C46.4707 20.8934 46.3252 20.8352 46.1506 20.7479L46.0924 20.7188L46.0342 20.6897L45.976 20.6606L45.9178 20.6315C45.8887 20.6315 45.8596 20.6024 45.8596 20.6024L45.8305 20.5733L45.8014 20.5442H45.7723L45.7432 20.5151L45.7141 20.486L45.6559 20.4569L45.5977 20.4278C45.5686 20.3987 45.5104 20.3696 45.4813 20.3405C45.4522 20.3114 45.394 20.2823 45.3649 20.2532C45.1612 20.1077 44.9866 19.9331 44.8121 19.7295L44.783 19.7004L44.7539 19.6713L44.7248 19.6422L44.6957 19.584L44.6666 19.5549L44.6375 19.4967L44.6084 19.4676L44.5793 19.4385L44.5502 19.3803L44.5211 19.3221L44.492 19.293L44.4338 19.3221L39.3124 21.8537Z" fill="url(#paint0_linear_522_1856)"/>
<path fill-rule="evenodd" clip-rule="evenodd" d="M48.4197 11.9014C50.6603 11.9014 52.4644 13.7055 52.4644 15.9461C52.4644 18.1867 50.6603 19.9908 48.4197 19.9908C46.1791 19.9908 44.375 18.1867 44.375 15.9461C44.375 13.7055 46.1791 11.9014 48.4197 11.9014Z" fill="url(#paint1_linear_522_1856)"/>
<path fill-rule="evenodd" clip-rule="evenodd" d="M48.4197 11.9014C50.6603 11.9014 52.4644 13.7055 52.4644 15.9461C52.4644 18.1867 50.6603 19.9908 48.4197 19.9908C46.1791 19.9908 44.375 18.1867 44.375 15.9461C44.375 13.7055 46.1791 11.9014 48.4197 11.9014ZM48.4197 12.4251C46.4701 12.4251 44.8988 13.9965 44.8988 15.9461C44.8988 17.8957 46.4701 19.467 48.4197 19.467C50.3693 19.467 51.9406 17.8957 51.9406 15.9461C51.9406 14.0256 50.3693 12.4251 48.4197 12.4251Z" fill="url(#paint2_linear_522_1856)"/>
<path fill-rule="evenodd" clip-rule="evenodd" d="M48.4203 12.4238C50.37 12.4238 51.9413 13.9952 51.9413 15.9448C51.9413 17.8944 50.37 19.4657 48.4203 19.4657C46.4707 19.4657 44.8994 17.8944 44.8994 15.9448C44.8994 14.0243 46.4707 12.4238 48.4203 12.4238Z" fill="url(#paint3_linear_522_1856)"/>
<path fill-rule="evenodd" clip-rule="evenodd" d="M49.5547 26.4208L50.4858 26.3044L52.9301 27.7011L53.3084 27.9048L53.7449 27.9921L54.1814 27.9339L54.5597 27.7884L61.6306 23.7146L61.7761 23.5691L61.8343 23.3945L61.8634 23.1908V15.4215C61.8925 14.8977 61.5142 14.083 61.0777 13.9084C61.0486 13.6756 61.1941 13.7629 61.1068 13.501C61.5142 13.7629 62.2126 14.3739 62.1835 15.4506V23.3945C62.1835 23.5982 62.1544 23.7437 62.0671 23.8892C61.9798 24.0347 61.8634 24.122 61.6888 24.2384L54.7924 28.2249C54.1232 28.5741 53.3084 28.5741 52.61 28.1958L51.5916 27.6138L49.642 26.479L49.5547 26.4208Z" fill="url(#paint4_linear_522_1856)"/>
<path fill-rule="evenodd" clip-rule="evenodd" d="M34.5977 23.3958V16.2666H35.0923V23.1921C35.0923 23.454 35.1214 23.6867 35.4706 23.8322L42.3379 27.7315L42.7162 27.9351L43.1526 28.0224L43.5891 27.9642L43.9674 27.8188L55.4323 21.2134C55.4323 21.2134 56.3634 21.2425 56.3052 21.2134L44.2002 28.2261C43.5309 28.5753 42.7162 28.5753 42.0178 28.197L40.9994 27.6151L35.1214 24.2396C34.8305 24.065 34.6268 23.8904 34.5977 23.3958Z" fill="url(#paint5_linear_522_1856)"/>
<path fill-rule="evenodd" clip-rule="evenodd" d="M51.6205 2.47437L51.5623 2.44527L51.5041 2.41618L51.475 2.38708C50.5438 1.8633 49.6418 1.33953 48.7397 0.815753C48.7106 0.786655 48.6815 0.786653 48.6524 0.786653C48.5651 0.757554 48.5069 0.728457 48.4196 0.728457C48.3614 0.728457 48.2742 0.757554 48.1869 0.786653C48.1578 0.786653 48.1287 0.815753 48.0996 0.815753C47.1975 1.33953 46.2663 1.8633 45.3643 2.38708L45.3352 2.41618L45.277 2.44527L45.2188 2.47437C43.9385 3.23094 42.629 3.9875 41.3196 4.74407C40.7085 5.09325 40.4757 5.73342 40.4757 6.40269V19.2643L39.9229 20.1954V6.1699C39.9229 5.41333 40.3302 4.68587 41.0286 4.27849L47.8959 0.321078C48.0414 0.233782 48.216 0.146484 48.4196 0.146484C48.6233 0.146484 48.7979 0.233782 48.9434 0.321078L55.8107 4.27849C56.5091 4.68587 56.8873 5.44243 56.9164 6.1699V9.74903L56.3636 8.81787V6.37359C56.3636 5.67522 56.1017 5.09325 55.5197 4.74407C54.2103 3.9584 52.9299 3.20184 51.6205 2.47437Z" fill="url(#paint6_linear_522_1856)"/>
<path fill-rule="evenodd" clip-rule="evenodd" d="M43.6185 18.0416L42.9492 17.8088C42.7455 17.2268 42.6582 16.6158 42.6582 15.9756C42.6582 12.9784 44.9279 10.5342 47.8378 10.2432V10.796C47.1394 10.8833 46.4701 11.087 45.8882 11.4071C45.5099 11.6108 45.1316 11.8727 44.8115 12.1928C44.5205 12.4838 44.2295 12.8038 43.9967 13.153C43.473 13.9678 43.182 14.928 43.182 15.9756C43.182 16.5285 43.2693 17.0522 43.4148 17.5469C43.473 17.6924 43.5603 17.867 43.6185 18.0416Z" fill="#DB0D2E"/>
<path fill-rule="evenodd" clip-rule="evenodd" d="M47.838 5.03516H47.2852V10.302L47.838 10.7676V5.03516Z" fill="#DB0D2E"/>
<path fill-rule="evenodd" clip-rule="evenodd" d="M48.333 4.77222L48.624 4.30664L56.3933 8.78783L56.9171 9.74808L48.333 4.77222Z" fill="#DB0D2E"/>
<path fill-rule="evenodd" clip-rule="evenodd" d="M43.6184 18.0404L42.9491 17.8076L40.4466 19.2335L39.9229 20.1646L43.6184 18.0404Z" fill="#DB0D2E"/>
<path fill-rule="evenodd" clip-rule="evenodd" d="M48.6239 4.30654L48.362 4.77211C48.362 4.77211 48.2165 4.65572 48.0419 4.74302C47.8673 4.83031 47.8673 5.0049 47.8673 5.0049H47.3145C47.3145 5.0049 47.3435 4.51023 47.7218 4.27744C48.1001 4.10285 48.362 4.19014 48.6239 4.30654Z" fill="#DB0D2E"/>
<path fill-rule="evenodd" clip-rule="evenodd" d="M59.2451 56.685C59.3033 55.1719 60.7 55.0264 60.9619 55.0264H64.9484C65.9087 55.0555 66.6653 55.6665 66.6944 56.7141V57.0633C66.6944 57.587 66.2579 58.0235 65.705 58.0235C65.705 58.0235 62.5333 58.0235 62.2714 58.0235C62.0386 58.0235 61.8931 57.9944 61.7185 57.9362C61.3984 57.8198 61.2238 57.6161 61.1947 57.4124C61.1947 57.4997 61.1947 58.46 61.1947 58.46C61.1947 58.6637 61.3693 58.8383 61.573 58.8383H65.0648C65.7632 58.8965 66.4616 59.3621 66.5198 60.1768C64.6866 60.1768 62.8533 60.1768 61.0201 60.1768H60.991C60.7291 60.1768 59.2742 60.0313 59.2742 58.4309L59.2451 56.685ZM64.4829 57.2088C64.6284 57.2088 64.7448 57.0924 64.7448 56.9469V56.6559C64.7448 56.5104 64.6284 56.394 64.4829 56.394H61.5439C61.3402 56.394 61.1656 56.5686 61.1656 56.7723V57.2088C62.2714 57.2088 63.3771 57.2088 64.4829 57.2088Z" fill="#6E6E6E"/>
<path fill-rule="evenodd" clip-rule="evenodd" d="M67.9451 51.8242H68.2652C68.9054 51.8242 69.4 52.057 69.6619 52.4644C69.8074 52.6681 69.8656 52.9882 69.8656 53.3082V60.2337H67.916C67.9451 57.4112 67.9451 54.6177 67.9451 51.8242Z" fill="#6E6E6E"/>
<path fill-rule="evenodd" clip-rule="evenodd" d="M71.4666 51.8242H71.7867C72.4269 51.8242 72.9215 52.057 73.1834 52.4644C73.3289 52.6681 73.3871 52.9882 73.3871 53.3082C73.3871 55.607 73.3871 57.9058 73.3871 60.2337H71.4375L71.4666 51.8242Z" fill="#6E6E6E"/>
<path fill-rule="evenodd" clip-rule="evenodd" d="M83.8044 55.0254V53.3086H84.1245C84.7646 53.3086 85.2593 53.5414 85.5212 53.9488C85.6667 54.1524 85.7249 54.4725 85.7249 54.7926V55.0545H86.627V56.393H85.7249V58.0808V58.4881C85.7249 58.6918 85.8995 58.8664 86.1032 58.8664H86.627V60.205H86.4233H85.5503C85.5503 60.205 83.8044 60.205 83.8044 58.459V58.3718V58.3427V57.7607V57.7316V57.7025V57.6443V57.6152V57.5861V57.557V57.5279V57.4988V57.4697V57.4406V57.4115V57.3824V57.3533V57.3242V57.2951V57.3242V57.2951V57.266V57.2369V57.2078V57.1787V57.1496V57.1205V57.0914V57.0623V57.0332V57.0041V56.9459V56.9168V56.8877V56.8586V56.7713V56.7422V56.7131V56.684V56.6549V56.7422V56.6549V56.6258V56.5967V56.5676V56.5385V56.5094V56.4803V56.4512V56.4221V56.393H82.9023V55.0545H83.8044V55.0254Z" fill="#6E6E6E"/>
<path fill-rule="evenodd" clip-rule="evenodd" d="M47.1687 55.0252H47.4888C48.0999 55.0252 48.5946 55.258 48.8856 55.6363C49.2056 55.2289 49.7294 54.9961 50.2532 54.9961H51.7663C51.7663 54.9961 52.6393 54.9961 53.134 55.6072C53.454 55.1998 53.9778 54.9961 54.5016 54.9961H54.7344H55.3164H56.1602C56.2184 54.9961 56.3057 54.9961 56.3639 54.9961C56.8004 55.0543 57.9061 55.3162 57.9643 56.6547C57.9643 56.6838 57.9643 56.7129 57.9643 56.742C57.9643 56.9166 57.9643 57.0912 57.9643 57.2367V60.1466H56.0147V59.1863C56.0147 59.1572 56.0147 59.1572 56.0147 59.1281V56.742C56.0147 56.5383 55.8401 56.3928 55.6364 56.3637H53.5122C53.5413 56.451 53.5413 56.5674 53.5413 56.6838V60.2047H51.5917V56.742C51.5917 56.5383 51.4171 56.3928 51.2135 56.3637H49.0893V60.1756H47.1396C47.1687 58.4879 47.1687 56.7711 47.1687 55.0252Z" fill="#6E6E6E"/>
<path fill-rule="evenodd" clip-rule="evenodd" d="M82.1457 57.6736V57.8191V60.2051H81.8257C81.2146 60.2051 80.749 59.9723 80.458 59.6232C80.0216 60.2051 79.1486 60.2051 79.0322 60.2051H77.49H76.617H76.5879C76.326 60.2051 74.8711 60.0596 74.8711 58.4592V58.1973V58.0809V58.0227V57.9354C74.8711 57.6445 74.8711 57.2662 74.8711 56.8006C74.8711 55.2584 76.2387 55.0547 76.5588 55.0547H76.617H77.49H79.5269H80.2543H80.4289C80.4289 55.0547 82.1749 55.0547 82.1749 56.8006C82.1749 56.9752 82.1749 57.1207 82.1749 57.2662L82.1457 57.6736ZM80.1961 58.8666V57.0043V56.7424C80.167 56.5387 80.0215 56.3932 79.8179 56.3932H77.1699C77.1699 56.3932 77.1699 56.3932 77.1408 56.3932C76.9662 56.3932 76.8207 56.5387 76.7916 56.7133V58.2264V58.4883V58.5174C76.7916 58.5174 76.7916 58.5174 76.7916 58.5465C76.7916 58.5465 76.7916 58.5465 76.7916 58.5756C76.8498 58.692 76.9662 58.7502 77.1117 58.7502H78.9449H80.1961V58.8666Z" fill="#6E6E6E"/>
<path fill-rule="evenodd" clip-rule="evenodd" d="M35.501 51.8242H35.8211C36.4612 51.8242 36.9559 52.057 37.2178 52.4644C37.3633 52.6681 37.4215 52.9882 37.4215 53.3082C37.4215 54.5304 37.4215 55.7234 37.4215 56.9456H38.4108C39.5457 56.8292 40.1277 55.9853 40.5059 55.0542C41.1461 55.0542 41.6117 55.0542 42.2228 55.0542C42.0773 56.0726 41.5244 56.6255 40.826 57.1493C41.4953 57.3821 42.1937 57.964 42.1937 59.1862V60.2337H40.244V58.6624C40.2149 58.4587 40.0695 58.3132 39.8658 58.3132H37.3924V60.2337H35.501C35.501 57.4112 35.501 54.6177 35.501 51.8242Z" fill="#6E6E6E"/>
<path fill-rule="evenodd" clip-rule="evenodd" d="M27.4402 55.0264C28.0222 55.0264 28.6624 55.1719 29.0406 55.6665C29.448 55.0555 30.2919 55.0264 30.4665 55.0264H31.6304H32.387H32.5034C32.5034 55.0264 34.1911 55.0264 34.2493 56.685V60.2059H32.2997C32.2997 59.042 32.2997 57.9071 32.2997 56.7432C32.2997 56.5395 32.1251 56.3649 31.9214 56.3649H29.3607V60.1768H27.4111C27.4402 58.4891 27.4402 56.7432 27.4402 55.0264Z" fill="#6E6E6E"/>
<path fill-rule="evenodd" clip-rule="evenodd" d="M26.218 57.6743V57.8198V60.2059H25.8979C25.2869 60.2059 24.8213 59.9731 24.5303 59.6239C24.0938 60.2059 23.2209 60.2059 23.1045 60.2059H21.5622H20.6893H20.6602C20.3983 60.2059 18.9434 60.0604 18.9434 58.46V58.1981V58.0817V58.0235V57.9071C18.9434 57.6161 18.9434 57.2379 18.9434 56.7723C18.9434 55.2301 20.311 55.0264 20.6311 55.0264H20.6893H21.5622H23.5991H24.3266H24.5012C24.5012 55.0264 26.2471 55.0264 26.2471 56.7723C26.2471 56.9469 26.2471 57.0924 26.2471 57.2379L26.218 57.6743ZM24.2684 58.8674V57.0051V56.7432C24.2393 56.5395 24.0938 56.394 23.8901 56.394H21.2421C21.2421 56.394 21.2421 56.394 21.213 56.394C21.0385 56.394 20.893 56.5395 20.8639 56.7141V58.2272V58.4891V58.5182C20.8639 58.5182 20.8639 58.5182 20.8639 58.5473C20.8639 58.5473 20.8639 58.5473 20.8639 58.5764C20.9221 58.6928 21.0385 58.751 21.1839 58.751H23.0172H24.2684V58.8674Z" fill="#6E6E6E"/>
<path fill-rule="evenodd" clip-rule="evenodd" d="M17.8965 56.6837C17.8383 55.1997 16.4998 55.0542 16.2088 55.0251H16.1506H15.2777H14.0846H13.9682H13.9391C13.7354 55.0251 12.9498 55.0542 12.5133 55.6361V54.5595V53.7447V53.2791C12.5133 53.2501 12.5133 53.2209 12.5133 53.2209V53.1918C12.5133 52.9009 12.426 52.639 12.3096 52.4644C12.0477 52.057 11.553 51.8242 10.9129 51.8242H10.5928V53.7738V58.4005V58.4587C10.5928 60.2046 12.3387 60.2046 12.3387 60.2046H13.2116H15.2777H16.1506H16.1797C16.4707 60.1755 17.8674 60.03 17.8674 58.4587V58.1968V58.0804V58.0222C17.8674 56.8001 17.8674 57.2366 17.8674 57.2366V56.6837H17.8965ZM12.5133 56.3927H13.9391H13.9973H14.0846H15.5977C15.8014 56.3927 15.976 56.5673 15.976 56.771V57.1784V58.2259V58.4878V58.5169C15.976 58.5169 15.976 58.5169 15.976 58.546V58.5751C15.976 58.6042 15.9469 58.6042 15.9178 58.6333C15.8596 58.6915 15.7432 58.7497 15.6559 58.7497H12.9789C12.7752 58.7497 12.6297 58.6042 12.6006 58.4005V57.964V56.3927H12.5133Z" fill="#6E6E6E"/>
<path fill-rule="evenodd" clip-rule="evenodd" d="M20.6309 41.3192V38.1183C20.4272 38.1183 20.1944 38.1183 19.9907 38.1183C18.7686 38.1183 17.7792 38.613 17.2846 39.3696C17.0227 39.777 16.8772 40.3589 16.8772 40.9991C16.8772 41.8721 16.8772 42.745 16.8772 43.5889C16.8772 44.4618 16.1788 45.1602 15.3059 45.1602H5.35414C4.48118 45.1602 3.78282 44.4618 3.78282 43.5889C3.78282 42.7159 3.78282 41.8721 3.78282 40.9991C3.78282 40.3007 3.52094 39.3114 2.53158 38.7294C1.83322 38.2929 1.04755 38.1183 0.174593 38.1183H0C0 40.2425 0 42.3667 0 44.4909C0 46.3241 1.48403 47.7791 3.28814 47.7791H5.12136H15.3059H16.7608C17.5756 47.7791 18.3903 47.459 19.0596 46.877C19.6707 47.4008 20.4272 47.75 21.3002 47.7791C21.5621 47.7791 21.8531 47.7791 22.1149 47.7791H24.4428C25.3449 47.7791 26.1888 47.4299 26.8289 46.877C27.4982 47.459 28.342 47.7791 29.215 47.7791H34.1909C35.0056 47.7791 35.7622 47.4008 36.2278 46.7897C37.1589 47.8664 38.7884 47.7791 38.7884 47.7791H41.6692C43.4733 47.75 44.9574 46.295 44.9574 44.4909V41.4065C44.9283 39.6024 43.5024 38.1765 41.6983 38.1474H36.4024C34.5982 38.1765 33.1433 39.6024 33.1142 41.4065V44.4036C33.0851 44.8401 32.7359 45.1602 32.2995 45.1602H30.3498C29.4769 45.1602 28.7785 44.4618 28.7785 43.5889V38.9331V32.124H28.1384C26.9162 32.124 25.9269 32.6187 25.4322 33.3753C25.1703 33.7826 25.0248 34.3646 25.0248 35.0048V43.5889C25.0248 44.4618 24.3264 45.1602 23.4535 45.1602H20.2235C20.4272 44.6073 20.5727 43.9963 20.6018 43.2979C20.6309 42.6577 20.6309 41.9885 20.6309 41.3192ZM12.7743 34.772L14.4911 36.4888C14.6948 36.6925 14.6948 37.0126 14.4911 37.2163L12.7743 38.9331C12.5706 39.1368 12.2505 39.1368 12.0468 38.9331L10.4755 37.3618L8.90418 38.9331C8.70049 39.1368 8.3804 39.1368 8.17671 38.9331L6.45989 37.2163C6.2562 37.0126 6.2562 36.6925 6.45989 36.4888L8.17671 34.772C8.3804 34.5683 8.70049 34.5683 8.90418 34.772L10.4755 36.3433L12.0468 34.772C12.2505 34.5683 12.5706 34.5683 12.7743 34.772ZM36.7806 45.1893V41.3192C36.8097 40.9118 37.1589 40.5626 37.5663 40.5626H40.5926C41.029 40.5626 41.3782 40.9118 41.3782 41.3483V44.4036C41.3491 44.8401 40.9999 45.1602 40.5926 45.1602L36.7806 45.1893Z" fill="#6E6E6E"/>
<path fill-rule="evenodd" clip-rule="evenodd" d="M84.7065 32.1533H85.3466C86.5688 32.1533 87.5581 32.648 88.0528 33.4046C88.3147 33.8119 88.4602 34.3939 88.4602 35.0341V43.6182C88.4602 44.4911 89.1586 45.1895 90.0315 45.1895H92.6213C93.0578 45.1895 93.407 44.8403 93.407 44.4038V41.0284C93.407 40.4173 93.5525 39.8063 93.8143 39.428C94.3381 38.6714 95.2984 38.1767 96.5205 38.1767H97.1607C97.1607 40.3009 97.1607 42.4251 97.1607 44.5493C97.1607 46.3825 95.6766 47.8375 93.8725 47.8375H87.9946C86.1614 47.8375 84.7065 46.3534 84.7065 44.5493V32.1533ZM91.3991 49.0596L93.116 50.7764C93.3197 50.9801 93.3197 51.3002 93.116 51.5039L91.3991 53.2207C91.1955 53.4244 90.8754 53.4244 90.6717 53.2207L88.9549 51.5039C88.7512 51.3002 88.7512 50.9801 88.9549 50.7764L90.6717 49.0596C90.8754 48.8559 91.1955 48.8559 91.3991 49.0596ZM62.0096 38.1476L61.2239 39.719C61.835 39.719 62.1841 39.719 62.7952 39.719C63.1153 39.719 63.6973 39.5735 63.9592 38.9915L64.4247 38.0021C64.6284 37.5366 64.5702 37.1874 64.3956 36.9546C64.1919 36.7218 63.9883 36.6636 63.7555 36.6636H63.1153L63.901 35.0923C63.2899 35.0923 62.9407 35.0923 62.3296 35.0923C62.0096 35.0923 61.4276 35.2378 61.1657 35.8197L60.7001 36.8091C60.4964 37.2747 60.5546 37.6239 60.7292 37.8566C60.9329 38.0894 61.1366 38.1476 61.3694 38.1476H62.0096ZM77.5482 33.23L79.265 34.9468C79.4687 35.1505 79.4687 35.4706 79.265 35.6743L77.5482 37.3911C77.3445 37.5948 77.0244 37.5948 76.8207 37.3911L75.1039 35.6743C74.9002 35.4706 74.9002 35.1505 75.1039 34.9468L76.8207 33.23C77.0244 33.0263 77.3445 33.0263 77.5482 33.23ZM72.8924 32.1533V43.6182C72.8924 44.4911 73.5908 45.1895 74.4638 45.1895H77.0535C77.49 45.1895 77.8392 44.8403 77.8392 44.4329V40.9993C77.8392 40.3882 77.9847 39.7772 78.2466 39.3989C78.7704 38.6423 79.7306 38.1476 80.9528 38.1476H81.5929V39.3989V44.5202C81.5929 46.3534 80.1089 47.8084 78.3048 47.8084H73.2416C72.3396 47.7793 71.5539 47.4592 70.9137 46.9063C70.3027 47.4301 69.517 47.7793 68.644 47.8084H55.5206C53.7164 47.8084 52.2324 46.3243 52.2324 44.5202V38.1476H52.3779C53.2509 38.1476 54.0365 38.3222 54.7349 38.7587C55.7243 39.3698 55.9861 40.33 55.9861 41.0284C55.9861 41.9014 55.9861 42.7452 55.9861 43.6182C55.9861 44.4911 56.6845 45.1895 57.5575 45.1895H67.5383C68.4113 45.1895 69.1096 44.4911 69.1096 43.6182C69.1096 40.7665 69.1096 37.8857 69.1096 35.0341C69.1096 34.423 69.2551 33.8119 69.517 33.4046C70.0408 32.648 71.001 32.1533 72.2232 32.1533H72.8924Z" fill="#6E6E6E"/>
<defs>
<linearGradient id="paint0_linear_522_1856" x1="48.4687" y1="19.5655" x2="46.5575" y2="10.574" gradientUnits="userSpaceOnUse">
<stop stop-color="#9C0624"/>
<stop offset="1" stop-color="#E3002C"/>
</linearGradient>
<linearGradient id="paint1_linear_522_1856" x1="49.0399" y1="20.3519" x2="47.8036" y2="11.5547" gradientUnits="userSpaceOnUse">
<stop stop-color="#C44D1B"/>
<stop offset="1" stop-color="#F8C119"/>
</linearGradient>
<linearGradient id="paint2_linear_522_1856" x1="49.7747" y1="19.3017" x2="47.0684" y2="12.6033" gradientUnits="userSpaceOnUse">
<stop stop-color="#CA8100"/>
<stop offset="1" stop-color="#FFEEA3"/>
</linearGradient>
<linearGradient id="paint3_linear_522_1856" x1="48.9579" y1="19.7622" x2="47.8869" y2="12.1417" gradientUnits="userSpaceOnUse">
<stop stop-color="#F29200"/>
<stop offset="1" stop-color="#FFCB00"/>
</linearGradient>
<linearGradient id="paint4_linear_522_1856" x1="86.3968" y1="193.795" x2="25.6117" y2="-150.935" gradientUnits="userSpaceOnUse">
<stop stop-color="#632825"/>
<stop offset="1" stop-color="#E30045"/>
</linearGradient>
<linearGradient id="paint5_linear_522_1856" x1="61.4935" y1="174.752" x2="29.4765" y2="-129.869" gradientUnits="userSpaceOnUse">
<stop stop-color="#632825"/>
<stop offset="1" stop-color="#E30045"/>
</linearGradient>
<linearGradient id="paint6_linear_522_1856" x1="126.753" y1="109.523" x2="-35.1579" y2="-90.4211" gradientUnits="userSpaceOnUse">
<stop stop-color="#DB0D2E"/>
<stop offset="0.0702498" stop-color="#E23954"/>
<stop offset="0.1544" stop-color="#E8677C"/>
<stop offset="0.2442" stop-color="#EF909F"/>
<stop offset="0.3382" stop-color="#F4B2BD"/>
<stop offset="0.4377" stop-color="#F8CED5"/>
<stop offset="0.5444" stop-color="#FBE4E8"/>
<stop offset="0.6619" stop-color="#FDF3F5"/>
<stop offset="0.7987" stop-color="#FFFCFD"/>
<stop offset="1" stop-color="white"/>
</linearGradient>
</defs>
</svg>
