<svg width="64" height="74" viewBox="0 0 64 74" fill="none" xmlns="http://www.w3.org/2000/svg">
<path fill-rule="evenodd" clip-rule="evenodd" d="M49.2698 7.43457C49.3732 7.49662 49.7662 7.72415 49.8696 7.76551C51.938 8.86177 53.1584 10.4545 53.1584 12.7297V48.4719L36.5697 48.4926L32.4536 48.4719V33.7448C32.4329 28.4496 33.0948 23.9405 34.7288 20.631C34.7288 20.631 36.4249 22.3685 37.1075 25.4711C37.7694 23.6716 39.0105 22.2444 40.872 21.1895C42.0924 28.2842 39.238 31.7384 34.522 33.5586V46.5689L51.1107 46.5483V14.5499C51.09 12.1506 49.7455 10.5165 47.5116 9.42024L49.2698 7.43457Z" fill="#D43E33"/>
<path fill-rule="evenodd" clip-rule="evenodd" d="M14.5205 7.43457C14.417 7.49662 14.024 7.72415 13.9206 7.76551C11.8522 8.86177 10.6318 10.4545 10.6318 12.7297V48.4719L27.2205 48.4926L31.3366 48.4719V33.7448C31.3573 28.4496 30.6954 23.9405 29.0614 20.631C29.0614 20.631 27.3653 22.3685 26.6827 25.4711C26.0208 23.6716 24.7798 22.2444 22.9182 21.1895C21.6978 28.2842 24.5523 31.7384 29.2682 33.5586V46.5689L12.6796 46.5483V14.5499C12.7003 12.1506 14.0447 10.5165 16.2786 9.42024L14.5205 7.43457Z" fill="#D43E33"/>
<path fill-rule="evenodd" clip-rule="evenodd" d="M51.3585 4.37305C46.7459 8.17893 43.726 12.8535 43.271 19.2863C43.0848 21.8098 42.6298 23.299 41.9885 24.5814L41.6162 19.6173C40.582 19.9689 39.8374 20.5067 39.2376 21.1272C38.5757 19.6586 36.9416 19.3484 34.625 19.8241C38.4102 10.4335 43.8708 5.03494 51.3585 4.37305Z" fill="#1A1A18"/>
<path fill-rule="evenodd" clip-rule="evenodd" d="M36.6528 13.4734C37.749 11.7153 39.0107 10.1433 40.5621 8.8402C39.9002 6.46152 39.5899 3.95874 39.5072 1.35254C38.4936 4.41379 36.9216 6.97862 34.543 8.79882C35.0187 10.4742 35.722 12.0255 36.6528 13.4734Z" fill="#D43E33"/>
<path fill-rule="evenodd" clip-rule="evenodd" d="M41.3685 8.11631C40.6446 6.33747 40.2516 4.45522 40.5825 2.34544C41.0583 -0.0746065 48.1736 1.7456 45.8984 4.57932L41.3685 8.11631Z" fill="#1A1A18"/>
<path fill-rule="evenodd" clip-rule="evenodd" d="M34.1907 7.86847C35.8868 6.31716 37.2106 4.47627 38.038 2.26307C38.9067 -0.0949176 32.8049 -1.12912 32.7842 1.74597C32.7842 3.87643 33.2392 5.92416 34.1907 7.86847Z" fill="#1A1A18"/>
<path fill-rule="evenodd" clip-rule="evenodd" d="M12.0801 4.37305C16.6926 8.17893 19.7125 12.8535 20.1676 19.2863C20.3537 21.8098 20.8088 23.299 21.45 24.5814L21.8223 19.6173C22.8565 19.9689 23.6011 20.5067 24.201 21.1272C24.8629 19.6586 26.4969 19.3484 28.8135 19.8241C25.0283 10.4335 19.5677 5.03494 12.0801 4.37305Z" fill="#1A1A18"/>
<path fill-rule="evenodd" clip-rule="evenodd" d="M26.7863 13.4734C25.69 11.7153 24.4283 10.1433 22.877 8.8402C23.5388 6.46152 23.8491 3.95874 23.9318 1.35254C24.9454 4.41379 26.5174 6.97862 28.896 8.79882C28.4203 10.4742 27.717 12.0255 26.7863 13.4734Z" fill="#D43E33"/>
<path fill-rule="evenodd" clip-rule="evenodd" d="M22.0702 8.11631C22.7941 6.33747 23.1871 4.45522 22.8562 2.34544C22.3804 -0.0746065 15.2651 1.7456 17.5404 4.57932L22.0702 8.11631Z" fill="#1A1A18"/>
<path fill-rule="evenodd" clip-rule="evenodd" d="M29.2474 7.86847C27.5513 6.31716 26.2275 4.47627 25.4001 2.26307C24.5314 -0.0949176 30.6332 -1.12912 30.6539 1.74597C30.6539 3.87643 30.1988 5.92416 29.2474 7.86847Z" fill="#1A1A18"/>
<path fill-rule="evenodd" clip-rule="evenodd" d="M31.6674 19.2245C32.5569 19.5762 33.1153 19.9898 33.4876 20.4656C34.1495 18.4178 34.9355 16.3701 36.0318 14.3638C33.8186 10.3924 32.5982 6.09011 31.6467 1.70508C30.6953 6.09011 29.4749 10.3924 27.2617 14.3638C28.3787 16.3701 29.144 18.4178 29.8059 20.4656C30.2195 19.9898 30.778 19.5762 31.6674 19.2245Z" fill="#1A1A18"/>
<path fill-rule="evenodd" clip-rule="evenodd" d="M57.0467 61.585V61.8745C57.0467 62.3916 57.1915 62.764 57.4604 62.9501C57.6259 63.0742 57.8121 63.1156 58.0603 63.1156C58.2464 63.1156 58.3912 62.9087 58.536 62.5157C58.5567 62.433 58.5981 62.3296 58.6187 62.2055C58.6601 62.0814 58.7015 62.04 58.7428 62.04C58.8049 62.04 58.8463 62.1021 58.8463 62.2262C58.8463 62.2675 58.8463 62.3503 58.8256 62.4537C58.8049 62.5571 58.7842 62.6399 58.7842 62.7019C58.6187 63.4465 58.4119 64.0257 58.1637 64.4394C57.9155 64.8531 57.6466 65.0599 57.3777 65.0599C56.964 65.0599 56.6744 64.8737 56.509 64.4807C56.3435 64.1084 56.2607 63.612 56.2607 63.0328L57.0467 61.585Z" fill="#000003"/>
<path fill-rule="evenodd" clip-rule="evenodd" d="M57.1916 69.9008C57.2123 70.0249 57.2123 70.1697 57.171 70.3145C57.1296 70.4592 57.0469 70.6247 56.9641 70.8109C56.8607 70.997 56.7366 71.1625 56.5711 71.3073C56.4677 71.4107 56.385 71.4521 56.3229 71.4521C56.2816 71.4521 56.1988 71.39 56.0747 71.2866C55.9506 71.1625 55.8265 71.0798 55.7231 70.997C55.6197 70.9143 55.5162 70.8316 55.4542 70.7488C55.3714 70.6661 55.3301 70.604 55.3301 70.5627C55.4128 70.3972 55.4542 70.2731 55.4956 70.1904C55.6197 69.9008 55.7231 69.7146 55.7851 69.5905C55.9092 69.4044 56.0127 69.1975 56.1368 68.9907C56.1574 68.9493 56.1988 68.8872 56.2609 68.8252C56.3022 68.8666 56.3436 68.8872 56.385 68.9286C56.4263 68.9493 56.4677 68.9907 56.5298 69.032C56.7987 69.2389 56.9641 69.4044 57.0676 69.5285C57.1089 69.6112 57.1503 69.7353 57.1916 69.9008Z" fill="#000003"/>
<path fill-rule="evenodd" clip-rule="evenodd" d="M57.0469 61.5854C56.9435 61.9163 56.8401 62.2473 56.7367 62.5575C56.5919 62.9091 56.4264 63.0746 56.2402 63.0746C56.2402 62.9298 56.3023 62.2679 56.4471 61.0889C56.5919 59.91 56.6953 59.0205 56.7987 58.4C56.8194 58.3586 56.9228 58.0897 57.109 57.614C57.2951 57.1383 57.4606 56.7867 57.564 56.5384C57.5847 56.5178 57.6054 56.5178 57.6468 56.4971C57.6674 56.5384 57.6468 56.6419 57.6261 56.8073L57.5433 57.3038L57.2124 59.6204C57.1503 60.0961 57.109 60.4891 57.0883 60.8407C57.0676 61.1924 57.0469 61.4406 57.0469 61.5854Z" fill="#000003"/>
<path fill-rule="evenodd" clip-rule="evenodd" d="M53.3856 61.585V61.8745C53.3856 62.3916 53.5304 62.764 53.7993 62.9501C53.9648 63.0742 54.1509 63.1156 54.3991 63.1156C54.5853 63.1156 54.7301 62.9087 54.8749 62.5157C54.8955 62.433 54.9369 62.3296 54.9576 62.2055C54.999 62.0814 55.0403 62.04 55.0817 62.04C55.1438 62.04 55.1851 62.1021 55.1851 62.2262C55.1851 62.2675 55.1851 62.3503 55.1644 62.4537C55.1438 62.5571 55.1231 62.6399 55.1231 62.7019C54.9576 63.4465 54.7508 64.0257 54.5025 64.4394C54.2543 64.8531 53.9854 65.0599 53.7166 65.0599C53.3029 65.0599 53.0133 64.8737 52.8478 64.4807C52.6823 64.1084 52.5996 63.612 52.5996 63.0328L53.3856 61.585Z" fill="#000003"/>
<path fill-rule="evenodd" clip-rule="evenodd" d="M54.2336 53.2084C54.2543 53.3325 54.2543 53.4773 54.213 53.6221C54.1716 53.7669 54.0889 53.9323 54.0061 54.1185C53.9027 54.3046 53.7786 54.4701 53.6131 54.6149C53.5097 54.7183 53.427 54.7597 53.3649 54.7597C53.3235 54.7597 53.2408 54.6976 53.1167 54.5942C52.9926 54.4701 52.8685 54.3874 52.7651 54.3046C52.6616 54.2219 52.5582 54.1392 52.4962 54.0564C52.4134 53.9737 52.3721 53.9116 52.3721 53.8703C52.4548 53.7048 52.4962 53.5807 52.5375 53.498C52.6616 53.2084 52.7651 53.0222 52.8271 52.8981C52.9512 52.712 53.0546 52.5051 53.1787 52.2983C53.1994 52.2569 53.2408 52.1949 53.3029 52.1328C53.3442 52.1742 53.3856 52.1949 53.427 52.2362C53.4683 52.2569 53.5097 52.2983 53.5717 52.3397C53.8406 52.5465 54.0061 52.712 54.1095 52.8361C54.1509 52.9188 54.213 53.0636 54.2336 53.2084Z" fill="#000003"/>
<path fill-rule="evenodd" clip-rule="evenodd" d="M53.3853 61.5853C53.344 61.73 53.3026 61.8955 53.2612 62.061C53.2199 62.2265 53.1578 62.3919 53.0751 62.5781C52.9923 62.7643 52.9096 62.909 52.8062 62.9918C52.7028 63.0745 52.62 63.1159 52.5787 63.0745C52.5787 62.7849 52.5993 62.454 52.6407 62.0817C52.6821 61.7094 52.7235 61.4612 52.7235 61.3577L52.7441 61.1509C52.7441 61.1095 52.7441 61.0888 52.7235 61.0681C52.7028 61.0475 52.6821 61.0682 52.6407 61.1095C52.5993 61.1716 52.5166 61.2957 52.3925 61.4612C52.1443 61.7921 51.9788 62.0403 51.8547 62.1851C51.4824 62.6608 51.0067 63.1159 50.4275 63.5296C49.8484 63.9432 49.2485 64.2742 48.6073 64.5224C47.9661 64.7706 47.2215 64.9775 46.4148 65.1429C45.5874 65.3084 44.7394 65.3911 43.85 65.3911H43.5604C43.0226 65.3911 42.5675 65.3498 42.2366 65.2877C41.6988 65.1843 41.3265 65.0188 41.1197 64.7913C40.9128 64.5638 40.8301 64.1915 40.8301 63.7157C40.8301 63.302 40.8508 62.8884 40.9128 62.454C40.9749 62.0196 41.0576 61.8128 41.161 61.8128C41.2024 61.8128 41.2231 61.9369 41.2438 62.1851C41.2644 62.4333 41.3472 62.6608 41.5127 62.847C41.8643 63.2193 42.6916 63.4261 44.0154 63.4261C44.7394 63.4261 45.3185 63.4055 45.7529 63.3641C47.842 63.1779 49.5381 62.6815 50.8619 61.8542C51.4824 61.4818 51.9788 61.0475 52.3304 60.5304C52.5993 60.1374 52.8062 59.6616 52.951 59.1238L53.2199 58.0483C53.2406 57.9242 53.3853 57.6139 53.6336 57.0761C53.799 56.7245 53.9024 56.5176 53.9645 56.4142C54.0059 56.3108 54.0886 56.2281 54.1507 56.166C54.1507 56.2694 54.1507 56.3729 54.1507 56.4556C54.0886 56.7452 54.0472 56.952 54.0266 57.0968L53.6129 59.0825C53.5301 59.6203 53.4888 60.1167 53.4474 60.5717C53.406 61.0268 53.3853 61.3577 53.3853 61.5853Z" fill="#000003"/>
<path fill-rule="evenodd" clip-rule="evenodd" d="M54.9374 54.7389C55.2269 54.4286 55.8061 53.9115 56.7369 53.1669C57.5436 52.5257 58.3709 51.8638 59.1776 51.2019C59.7568 50.7262 60.3152 50.2297 60.853 49.7333C61.2253 49.3817 61.7424 48.8853 62.363 48.2854C63.3144 47.3753 63.7902 46.8996 63.7902 46.8789C63.7902 46.941 63.7695 47.003 63.7488 47.0444C63.7074 47.2305 63.5833 47.4787 63.3972 47.8511C63.1903 48.2027 63.0249 48.4716 62.8801 48.6577C62.6732 48.9266 62.4664 49.1955 62.2182 49.4437C61.9907 49.7126 61.8045 49.8988 61.6597 50.0436C61.4735 50.2297 61.1426 50.54 60.6876 50.933C60.3359 51.2433 59.8395 51.6776 59.1362 52.2568C58.6605 52.6705 58.2261 53.0221 57.8331 53.3117C57.316 53.7047 56.8196 54.0977 56.3025 54.47L54.9787 55.5042C54.7926 55.649 54.6064 55.7938 54.4409 55.9386C54.2755 56.0627 54.1721 56.1247 54.1514 56.0833C54.2548 55.8145 54.3582 55.5456 54.503 55.318C54.6271 55.1112 54.7719 54.9043 54.9374 54.7389Z" fill="#000003"/>
<path fill-rule="evenodd" clip-rule="evenodd" d="M37.7274 61.585V61.8745C37.7274 62.3916 37.8722 62.764 38.1411 62.9501C38.3066 63.0742 38.4927 63.1156 38.7409 63.1156C38.9271 63.1156 39.0719 62.9087 39.2167 62.5157C39.2373 62.433 39.2787 62.3296 39.2994 62.2055C39.3408 62.0814 39.3821 62.04 39.4235 62.04C39.4856 62.04 39.5269 62.1021 39.5269 62.2262C39.5269 62.2675 39.5269 62.3503 39.5062 62.4537C39.4856 62.5571 39.4649 62.6399 39.4649 62.7019C39.2994 63.4465 39.0926 64.0257 38.8443 64.4394C38.5961 64.8531 38.3272 65.0599 38.0583 65.0599C37.6447 65.0599 37.3551 64.8737 37.1896 64.4807C37.0241 64.1084 36.9414 63.612 36.9414 63.0328L37.7274 61.585Z" fill="#000003"/>
<path fill-rule="evenodd" clip-rule="evenodd" d="M38.8033 71.7408C38.8033 71.927 38.7826 72.0511 38.7619 72.1338C38.7205 72.2165 38.6585 72.3407 38.5551 72.4854C38.2655 72.8784 38.038 73.0853 37.8518 73.0853C37.8104 73.0853 37.7484 73.0232 37.6243 72.9198C37.5209 72.8164 37.4174 72.713 37.3347 72.6096C37.0244 72.3407 36.8797 72.1752 36.8797 72.1338C36.8797 72.0924 36.9624 71.927 37.1072 71.6581C37.2313 71.4719 37.314 71.3271 37.3554 71.2444C37.4795 71.0169 37.5622 70.8721 37.6036 70.81C37.7277 70.6239 37.8104 70.5204 37.8518 70.5204C37.8725 70.5204 37.9345 70.5411 37.9966 70.6032C38.0586 70.6446 38.1414 70.7273 38.2448 70.81C38.493 71.0376 38.6378 71.2237 38.7205 71.3478C38.7619 71.4719 38.8033 71.596 38.8033 71.7408ZM37.9139 69.3414C37.9139 69.5276 37.8932 69.6517 37.8725 69.7345C37.8311 69.8172 37.7691 69.9413 37.6657 70.0861C37.3761 70.4791 37.1485 70.6859 36.9624 70.6859C36.921 70.6859 36.859 70.6239 36.7349 70.5204C36.6314 70.417 36.528 70.3136 36.4453 70.2102C36.135 69.9413 35.9902 69.7758 35.9902 69.7345C35.9902 69.6931 36.073 69.5276 36.2178 69.2587C36.3419 69.0726 36.4246 68.9278 36.466 68.845C36.5901 68.6175 36.6728 68.4727 36.7142 68.4107C36.8383 68.2245 36.921 68.1211 36.9624 68.1211C36.9831 68.1211 37.0451 68.1418 37.1072 68.2038C37.1692 68.2452 37.252 68.3279 37.3554 68.4107C37.6036 68.6382 37.7484 68.8244 37.8311 68.9485C37.8932 69.0726 37.9139 69.1967 37.9139 69.3414ZM39.7961 69.3414C39.7961 69.5276 39.7754 69.6517 39.7547 69.7345C39.7134 69.8172 39.6513 69.9413 39.5479 70.0861C39.2583 70.4791 39.0308 70.6859 38.8446 70.6859C38.8033 70.6859 38.7412 70.6239 38.6171 70.5204C38.5137 70.417 38.4103 70.3136 38.3275 70.2102C38.0173 69.9413 37.8725 69.7758 37.8725 69.7345C37.8725 69.6931 37.9552 69.5276 38.1 69.2587C38.2241 69.0726 38.3069 68.9278 38.3482 68.845C38.4723 68.6175 38.5551 68.4727 38.5964 68.4107C38.7205 68.2245 38.8033 68.1211 38.8446 68.1211C38.8653 68.1211 38.9274 68.1418 38.9894 68.2038C39.0515 68.2452 39.1342 68.3279 39.2376 68.4107C39.4859 68.6382 39.6306 68.8244 39.7134 68.9485C39.7754 69.0726 39.7961 69.1967 39.7961 69.3414Z" fill="#000003"/>
<path fill-rule="evenodd" clip-rule="evenodd" d="M37.7276 61.5854C37.6242 61.9163 37.5207 62.2473 37.4173 62.5575C37.2725 62.9091 37.1071 63.0746 36.9209 63.0746C36.9209 62.9298 36.983 62.2679 37.1277 61.0889C37.2725 59.91 37.376 59.0205 37.4794 58.4C37.5001 58.3586 37.6035 58.0897 37.7896 57.614C37.9758 57.1383 38.1413 56.7867 38.2447 56.5384C38.2654 56.5178 38.2861 56.5178 38.3274 56.4971C38.3481 56.5384 38.3274 56.6419 38.3067 56.8073L38.224 57.3038L37.8931 59.6204C37.831 60.0961 37.7896 60.4891 37.7689 60.8407C37.7276 61.1924 37.7276 61.4406 37.7276 61.5854Z" fill="#000003"/>
<path fill-rule="evenodd" clip-rule="evenodd" d="M35.4524 59.9516C35.4524 60.0964 35.411 60.3653 35.349 60.7169C35.2869 61.0686 35.2249 61.3788 35.1628 61.6477L34.9353 62.5785C34.8112 62.9301 34.7078 63.199 34.625 63.3645C34.5009 63.6127 34.3975 63.7988 34.3148 63.9643C34.2114 64.1091 34.1286 64.2332 34.0252 64.316C33.9218 64.3987 33.7563 64.5021 33.5081 64.6262L32.8255 64.9158C32.7635 64.9365 32.6187 64.9778 32.3705 65.0399C32.1429 65.0813 31.9775 65.1226 31.9154 65.1226C31.8534 65.1226 31.812 65.102 31.7913 65.0606C31.7706 65.0192 31.7913 64.9572 31.8327 64.8951C31.8947 64.771 32.0602 64.6262 32.3084 64.4194C32.5773 64.2125 32.8255 64.0264 33.0737 63.8195C33.3633 63.5507 33.5908 63.3438 33.7149 63.199C33.9218 62.9922 34.1079 62.7233 34.2941 62.413C34.3355 62.351 34.3768 62.2269 34.4596 62.02C34.5423 61.8132 34.6457 61.5029 34.7905 61.0685L35.018 60.386C35.0387 60.2826 35.0801 60.1584 35.1421 60.0137C35.1835 59.8689 35.2663 59.7861 35.3283 59.7861C35.4317 59.8482 35.4524 59.9102 35.4524 59.9516Z" fill="#000003"/>
<path fill-rule="evenodd" clip-rule="evenodd" d="M11.3762 68.8452C11.3969 68.9693 11.3969 69.1141 11.3555 69.2589C11.3142 69.4037 11.2314 69.5691 11.1487 69.7553C11.0453 69.9414 10.9212 70.1069 10.7557 70.2517C10.6523 70.3551 10.5695 70.3965 10.5075 70.3965C10.4661 70.3965 10.3834 70.3344 10.2593 70.231C10.1352 70.1069 10.0111 70.0242 9.90765 69.9414C9.80422 69.8587 9.7008 69.776 9.63875 69.6932C9.55601 69.6105 9.51465 69.5484 9.51465 69.5071C9.59738 69.3416 9.63875 69.2175 9.68012 69.1348C9.80423 68.8452 9.90765 68.659 9.9697 68.5349C10.0938 68.3488 10.1972 68.1419 10.3213 67.9351C10.342 67.8937 10.3834 67.8317 10.4454 67.7696C10.4868 67.811 10.5282 67.8317 10.5695 67.873C10.6109 67.8937 10.6523 67.9351 10.7143 67.9764C10.9832 68.1833 11.1487 68.3488 11.2521 68.4729C11.2935 68.5556 11.3555 68.6797 11.3762 68.8452ZM13.3412 68.7211C13.3619 68.8452 13.3619 68.99 13.3205 69.1348C13.2792 69.2795 13.1964 69.445 13.1137 69.6312C13.0103 69.8173 12.8862 69.9828 12.7207 70.1276C12.6173 70.231 12.5345 70.2724 12.4725 70.2724C12.4311 70.2724 12.3484 70.2103 12.2243 70.1069C12.1002 69.9828 11.9761 69.9001 11.8726 69.8173C11.7692 69.7346 11.6658 69.6519 11.6037 69.5691C11.521 69.4864 11.4796 69.4243 11.4796 69.383C11.5624 69.2175 11.6037 69.0934 11.6451 69.0107C11.7692 68.7418 11.8726 68.5349 11.9347 68.4108C12.0588 68.2247 12.1622 68.0178 12.2863 67.811C12.307 67.7696 12.3484 67.7076 12.4104 67.6455C12.4518 67.6869 12.4932 67.7076 12.5345 67.7489C12.5759 67.7696 12.6173 67.811 12.6793 67.8523C12.9482 68.0592 13.1137 68.2247 13.2171 68.3488C13.2585 68.4315 13.3205 68.5763 13.3412 68.7211Z" fill="#000003"/>
<path fill-rule="evenodd" clip-rule="evenodd" d="M18.1197 63.5297C19.0918 63.5297 20.0019 63.4883 20.8913 63.3849C22.2565 63.2401 23.6216 62.9712 24.9868 62.5782C26.352 62.2059 27.9653 61.5233 29.8062 60.5305C31.2955 59.7652 32.4951 59.0205 33.3846 58.3173C33.7569 58.0277 34.274 57.6554 34.9152 57.221C35.453 56.8487 36.0114 56.4557 36.5699 56.042C36.8388 55.8559 37.1491 55.6904 37.5007 55.5249C37.6248 55.4836 37.7696 55.4215 37.9557 55.3595C38.1419 55.2974 38.2867 55.1733 38.4315 55.0078C38.5763 54.8423 38.7004 54.6355 38.8452 54.408C38.99 54.0977 39.0727 53.9116 39.0934 53.8495C39.1141 53.7875 39.0727 53.7461 39.0106 53.7461C38.7624 53.8288 38.5763 53.8909 38.4108 53.9736C38.3694 53.9943 37.9764 54.2011 37.2111 54.6148C36.9629 54.7596 36.1769 55.256 34.8738 56.1248C33.5707 56.9935 32.7227 57.5313 32.309 57.7588C31.0679 58.5034 29.8476 59.1446 28.6065 59.6617C27.7585 60.0134 26.8484 60.3443 25.8555 60.6132C25.235 60.7994 24.6559 60.9235 24.1387 61.0269C23.2493 61.1924 22.3806 61.3165 21.5119 61.3992C20.6431 61.482 19.8365 61.5233 19.0918 61.5233H18.5127C18.3058 61.5233 18.161 61.5233 18.0576 61.5026V63.5297H18.1197Z" fill="#000003"/>
<path fill-rule="evenodd" clip-rule="evenodd" d="M18.1395 63.5296C17.3742 63.5296 16.5054 63.4676 15.5126 63.3435C14.5198 63.2194 13.8992 63.0539 13.6304 62.8471C13.4649 62.723 13.3408 62.6816 13.258 62.6816C13.2167 62.6816 13.1546 62.723 13.0305 62.785C12.9271 62.8471 12.803 62.9918 12.6789 63.178C12.5134 63.4676 12.3686 63.7158 12.2652 63.9019C12.017 64.3156 11.8722 64.5845 11.7895 64.6673C11.5619 64.9155 11.293 65.0396 10.9621 65.0396C10.4657 65.0396 10.1141 64.812 9.90721 64.3777C9.76242 64.0467 9.67969 63.571 9.67969 62.9712L10.4864 61.4819C10.5277 62.0197 10.6518 62.392 10.838 62.5988C11.0242 62.8057 11.3137 62.9298 11.7067 62.9298C12.017 62.9298 12.2445 62.8471 12.4307 62.6816C12.5134 62.5989 12.6375 62.4127 12.803 62.1438C13.0512 61.7715 13.258 61.4819 13.4649 61.2751C13.7751 60.9648 14.044 60.8614 14.2922 60.9234C14.9541 61.1096 15.5747 61.2544 16.1538 61.3785C16.733 61.4819 17.3949 61.544 18.1188 61.544C18.2015 61.7094 18.2429 61.8335 18.2843 61.9163C18.4084 62.2265 18.4704 62.4541 18.4704 62.6195C18.4704 62.785 18.3877 63.0332 18.2222 63.3435C18.2222 63.3848 18.1809 63.4469 18.1395 63.5296Z" fill="#000003"/>
<path fill-rule="evenodd" clip-rule="evenodd" d="M9.67969 62.9506C9.72106 62.9299 9.74174 62.9299 9.76242 62.9092C9.90721 62.8265 10.0106 62.7437 10.0934 62.661C10.2795 62.4748 10.3829 62.1853 10.445 61.7509C10.445 61.6889 10.4657 61.5854 10.4864 61.4613V61.0476C10.4864 60.7374 10.5277 60.303 10.5898 59.7239C10.5898 59.7032 10.6518 59.2481 10.7553 58.4001C10.8794 57.552 10.9621 56.8901 11.0035 56.4558C11.1276 55.587 11.1689 55.0286 11.1689 54.7804C11.1896 54.6976 11.1689 54.6562 11.1483 54.6562C11.1276 54.6769 11.1069 54.6769 11.0862 54.6976L10.3002 56.7247L10.0313 58.6276L9.88653 60.1169C9.82448 60.7788 9.76242 61.3165 9.74174 61.7302C9.70037 62.1232 9.67969 62.5369 9.67969 62.9506Z" fill="#000003"/>
<path fill-rule="evenodd" clip-rule="evenodd" d="M7.75655 63.943C7.6945 64.2119 7.65313 64.4188 7.61176 64.5636C7.57039 64.7083 7.52902 64.8738 7.46697 65.0393C7.32218 65.4737 7.13602 65.9287 6.86713 66.3838C6.61892 66.8388 6.32934 67.2732 5.9984 67.6869C5.48129 68.2867 4.94351 68.7624 4.38503 69.0727C3.80588 69.383 3.18536 69.5484 2.4821 69.5484C1.67541 69.5484 1.07557 69.3002 0.641206 68.8038C0.206839 68.3074 0 67.6662 0 66.8802C0 66.4872 0.0413676 66.0528 0.144788 65.5978C0.248209 65.1427 0.351631 64.7704 0.475736 64.4601C0.59984 64.1706 0.744627 63.8396 0.9101 63.5087C1.11694 63.0743 1.36515 62.6399 1.61336 62.1849C1.71678 61.9987 1.77883 61.916 1.79952 61.8953C1.8202 61.8746 1.86157 61.8746 1.90294 61.8953C1.92362 61.916 1.92362 61.978 1.90294 62.1021C1.88226 62.2262 1.86157 62.3297 1.84089 62.4331L1.22036 63.7982C1.05489 64.2119 0.951471 64.5015 0.889418 64.6463C0.806682 64.9359 0.765312 65.2048 0.765312 65.4943C0.765312 66.239 1.01352 66.7768 1.53062 67.1077C1.90294 67.3559 2.39936 67.48 2.97851 67.48C3.3922 67.48 3.76451 67.4386 4.07477 67.3766C4.38503 67.3145 4.73666 67.1698 5.08829 66.9836C5.43992 66.7768 5.77087 66.5285 6.03976 66.239C6.22592 66.0321 6.45345 65.7426 6.70166 65.3702C6.84645 65.122 6.97055 64.8738 7.05329 64.6463C7.13602 64.4188 7.17739 64.1499 7.17739 63.8189L7.21876 62.4538C7.21876 62.2262 7.23945 62.0194 7.3015 61.8333C7.34287 61.6471 7.4256 61.3989 7.54971 61.1093L7.92202 60.3647C8.00476 60.2199 8.04613 60.1372 8.06681 60.1165C8.08749 60.0751 8.12886 60.0337 8.17023 59.9717C8.23228 60.0337 8.25297 60.1165 8.25297 60.2199L8.14955 60.8818L8.04612 61.8333C8.04612 62.2056 8.02544 62.5158 7.98407 62.8054C7.9427 63.1157 7.85997 63.488 7.75655 63.943ZM5.33651 62.9709C5.35719 63.0122 5.35719 63.095 5.35719 63.1777C5.35719 63.4052 5.27445 63.6328 5.12966 63.8396C4.8194 64.274 4.61256 64.5015 4.46777 64.5222C4.44709 64.5222 4.38504 64.4808 4.3023 64.4188C4.01272 64.2119 3.86793 64.0878 3.84725 64.0671C3.72314 63.9844 3.59904 63.9224 3.49562 63.8396C3.3922 63.7776 3.33014 63.6948 3.30946 63.5914L3.74383 62.5986C3.88861 62.3504 4.01272 62.1642 4.09546 61.9987C4.11614 61.9574 4.15751 61.8953 4.21956 61.8333C4.3023 61.8746 4.36435 61.916 4.44709 61.9367C4.50914 61.978 4.57119 61.9987 4.63324 62.0401C4.90214 62.2469 5.08829 62.4124 5.19171 62.5158C5.25377 62.6813 5.31582 62.8261 5.33651 62.9709Z" fill="#000003"/>
</svg>
