<svg width="16" height="16" viewBox="0 0 16 16" fill="none" xmlns="http://www.w3.org/2000/svg">
<path d="M12.5997 6.43288C12.9249 6.63203 13.1935 6.9113 13.3798 7.24397C13.5662 7.57663 13.6641 7.95157 13.6641 8.33288C13.6641 8.71419 13.5662 9.08912 13.3798 9.42179C13.1935 9.75446 12.9249 10.0337 12.5997 10.2329L6.19973 14.0329C5.8721 14.2224 5.49991 14.3211 5.12144 14.319C4.74297 14.3169 4.37182 14.214 4.04633 14.0209C3.72053 13.8274 3.45154 13.5515 3.26638 13.2209C3.08246 12.8898 2.99037 12.5155 2.9997 12.1369V4.53355C2.99018 4.15458 3.0818 3.77993 3.26516 3.44814C3.44852 3.11635 3.71698 2.83941 4.04291 2.64582C4.36884 2.45224 4.74049 2.34899 5.11957 2.34672C5.49865 2.34444 5.8715 2.44322 6.19973 2.63288L12.5997 6.43288Z" stroke="#0F172A"/>
</svg>
