<svg width="1152" height="400" viewBox="0 0 1152 400" fill="none" xmlns="http://www.w3.org/2000/svg">
<rect width="1152" height="400" fill="#0F172A"/>
<mask id="mask0_541_1782" style="mask-type:alpha" maskUnits="userSpaceOnUse" x="0" y="0" width="1152" height="400">
<rect width="1152" height="400" fill="#0F172A"/>
</mask>
<g mask="url(#mask0_541_1782)">
<g opacity="0.1">
<path d="M1137.78 156.887C1137.21 156.699 1136.66 156.465 1136.12 156.23C1138.62 156.003 1137.55 156.519 1137.78 156.887Z" fill="white"/>
<path d="M1000.08 44.8447C1000.04 44.6992 999.992 44.5537 999.949 44.4081C1000.05 44.3394 1000.06 44.5321 1000.08 44.8447Z" fill="white"/>
<path d="M1049.85 135.998C1049.75 135.947 1049.66 135.895 1049.59 135.917C1048.71 134.831 1049.11 135.228 1049.85 135.998Z" fill="white"/>
<path d="M1167.64 150.695L1170.42 148.844C1166.3 149.113 1163.85 150.471 1166.3 148.44C1166.62 148.979 1167.5 149.033 1168.69 148.761C1169.88 148.489 1171.36 148.011 1172.84 147.413C1174.33 146.815 1175.74 146.238 1176.95 145.919C1178.11 145.574 1179 145.509 1179.4 146.026L1181.08 144.618C1180.54 144.936 1180.37 144.787 1179.83 145.104C1183.01 142.186 1183.47 145.372 1188.06 142.43C1189.59 141.305 1190.51 140.279 1189.25 140.693L1193.15 139.024C1194.13 138.337 1193.64 138.128 1192.65 138.815C1194.51 137.749 1196.29 136.513 1198.1 135.421L1198 135.37C1199.02 135.189 1200.99 134.367 1201.99 133.992C1203.07 132.684 1201.16 134.277 1201.32 133.754C1202.38 133.165 1203.5 132.675 1204.55 132.086C1204.89 131.353 1204.41 131.337 1203.6 131.694C1202.75 132.025 1201.62 132.755 1200.66 133.515C1201.21 131.493 1201.87 131.179 1203.04 130.714C1204.14 130.151 1205.75 129.437 1207.93 126.534C1207.02 127.199 1206.09 127.792 1205.18 128.458C1205.51 127.172 1206.28 126.31 1207.21 125.285C1208.08 124.234 1209.2 123.071 1210.24 121.497C1209.95 122.376 1206.27 128.254 1209.51 126.107C1210.16 125.241 1211.16 124.194 1213.02 123.128C1212.39 122.483 1213.95 121.191 1215.79 119.38L1214.78 118.649C1215.84 117.821 1216.45 117.481 1216.96 117.331C1217.5 117.133 1217.95 117.076 1218.66 116.668C1220.62 114.309 1220.34 113.243 1220.14 112.155C1223.01 108.219 1219.18 115.725 1222.95 111.362C1223.48 110.492 1224.01 109.741 1224.59 109.017C1225.12 108.266 1225.67 107.588 1226.3 106.889C1227.5 105.465 1228.91 104.096 1230.49 102.205C1231.68 99.5558 1229.62 102.223 1229.87 101.199L1232.04 99.568C1232.35 99.0021 1232.01 99.0627 1231.82 99.0802C1233.24 97.4715 1232.95 99.5748 1234.95 96.8088C1235.72 96.7388 1236.23 95.0034 1236.83 92.8866C1237.38 90.7443 1238.21 88.323 1239.73 86.7656C1239.84 85.6648 1238.86 86.9043 1238.56 86.438C1240.16 84.0667 1240.87 82.9862 1241.47 82.0943C1242.1 81.1552 1242.66 80.3576 1244.17 78.3676C1244.41 77.031 1244.64 75.6943 1244.79 74.3065C1244.68 77.4245 1246.93 74.1868 1248.83 71.2497C1248.89 72.3802 1248.99 73.4164 1248.97 74.016C1249.75 72.3614 1250.53 70.7069 1251.21 69.0011C1251.21 68.3288 1250.62 68.741 1249.92 69.4618C1250.1 69.1317 1250.33 68.8272 1250.45 68.5914C1250.55 66.6255 1249.58 67.3853 1248.58 68.5521C1248.63 69.2501 1248.73 69.9736 1248.8 70.6245C1247.68 71.6672 1246.53 72.5645 1245.92 72.1116C1246.14 71.8072 1246.45 71.2413 1246.76 70.5555C1246.44 70.8088 1246.22 70.9933 1246.15 70.775C1246.09 70.5567 1246.56 70.1404 1247.04 69.3644L1246.09 67.8672L1246.64 67.742L1247.17 64.3021C1247.35 63.1797 1247.44 62.0061 1247.57 60.8581C1248.19 59.7263 1248.82 58.6673 1249.44 57.5355C1250.05 56.4038 1250.62 55.2464 1251.19 53.9691C1251.48 53.3304 1251.76 52.6918 1252.08 52.006C1252.34 51.2946 1252.6 50.5831 1252.85 49.799C1253.33 48.2306 1253.85 46.4952 1254.1 44.5589C1252.96 46.4412 1252.49 44.8403 1251.33 44.8254C1251.87 45.9721 1251.51 47.4246 1251.04 49.1856C1250.82 50.0426 1250.57 50.9467 1250.3 51.8979C1250.03 52.8492 1249.8 53.8261 1249.7 54.807C1249.94 52.6781 1249.3 53.0647 1249.02 53.5834C1249.84 51.2821 1250.43 48.9727 1251.11 46.5945C1250.6 46.6255 1250.52 46.2145 1250.45 45.5636C1250.42 44.9384 1250.43 44.0262 1250.27 43.0843C1251.17 43.8835 1251.58 42.5765 1251.84 40.6403C1251.9 40.1862 1251.99 39.685 1252.03 39.1581C1252.07 38.6313 1252.12 38.1044 1252.16 37.5776C1252.24 36.5239 1252.35 35.543 1252.49 34.8275C1251.87 34.6145 1251.18 35.3353 1251.25 38.9155C1250.57 36.8996 1251.17 35.6951 1251.81 34.3962C1252.43 33.1445 1253 31.8672 1252.35 29.9241C1252.36 30.7892 1252.47 31.2729 1252.14 31.6461C1252.39 30.6221 1252.38 28.8448 1252.26 27.496C1252.09 26.1216 1251.74 25.1972 1251.53 25.8143L1251.59 26.705C1251.4 25.2578 1251.29 23.4293 1251.12 21.5025C1250.94 19.5756 1250.73 17.5032 1250.6 15.602C1250.47 13.7007 1250.27 11.9409 1250.34 10.5746C1250.34 9.22987 1250.51 8.2274 1250.84 7.97412C1250.6 7.966 1249.12 9.11653 1248.84 9.51533C1249.88 5.80462 1250.92 1.97397 1251.65 -1.96315C1250.55 -0.727694 1246.49 -3.24256 1247.02 1.62582C1246.75 0.992487 1246.42 0.260775 1246.18 -0.659558C1245.9 -1.6055 1245.7 -2.69291 1245.46 -4.1657C1245.94 -3.35717 1248.09 -2.49182 1247.8 -3.75037C1246.53 -5.23407 1246.14 -5.75154 1245.75 -6.38893C1245.37 -7.02632 1245.03 -7.75802 1243.65 -9.60555C1244.45 -8.37792 1245.9 -10.5862 1245.03 -12.7045C1244.85 -12.2545 1242.99 -12.1011 1243.04 -11.2832L1243.07 -14.2597C1243.05 -15.2447 1242.99 -16.2553 1242.93 -17.2659C1243.12 -15.8187 1241.39 -16.3336 1240.36 -17.2568C1240.69 -17.0775 1240.18 -18.1515 1239.57 -19.5165C1238.95 -20.8344 1238.11 -22.3275 1237.89 -23.0551L1239.37 -21.1564C1237.8 -23.8986 1237.84 -25.6503 1237.73 -27.3589C1237.71 -28.2239 1237.64 -29.1146 1237.44 -30.0821C1237.18 -31.0752 1236.84 -32.2394 1235.97 -33.5654C1235.99 -32.7004 1234.62 -30.6336 1232.76 -33.1697C1232.82 -34.0563 1233.15 -36.134 1233 -38.6605C1232.82 -41.1398 1232.39 -44.1797 1230.89 -46.7037L1229.71 -47.2239C1229.01 -48.5203 1228.34 -49.8638 1227.52 -51.1642C1227.82 -49.593 1228.35 -46.7417 1229.02 -43.8137C1229.4 -42.384 1229.66 -40.8384 1229.95 -39.4599C1230.24 -38.0815 1230.58 -36.7973 1230.84 -35.8042C1229.12 -37.4712 1229.88 -35.9566 1227.91 -38.8566C1226.76 -39.5439 1228.25 -36.7801 1228.82 -35.9204C1227.19 -38.0886 1225.61 -40.2313 1223.85 -42.2837C1224.46 -42.5032 1223.79 -43.9666 1223.09 -45.3829C1222.33 -46.7776 1221.53 -48.1251 1222.02 -48.3487C1223.64 -45.8207 1224.99 -43.1337 1226.46 -40.5626C1227.07 -40.7822 1227.05 -42.3196 1226.35 -44.4082C1226 -45.4525 1225.54 -46.6208 1224.83 -47.7972C1224.13 -48.9737 1223.3 -50.1541 1222.31 -51.2443C1220.97 -52.0341 1221.34 -48.8999 1220.9 -48.7706C1220.82 -49.1816 1220.14 -50.4052 1219.32 -51.4657C1218.49 -52.5263 1217.61 -53.4925 1217.3 -53.599L1218.45 -51.3271C1217.16 -52.3311 1216.63 -53.5977 1215.9 -54.8469C1215.18 -56.0961 1214.23 -57.2806 1212.46 -58.1809C1211.95 -58.5825 1210.98 -59.0476 1210.13 -59.3886C1209.27 -59.7296 1208.59 -60.0409 1208.79 -60.4182C1211.35 -60.0675 1214.79 -63.0247 1214.37 -64.8398C1214.13 -64.9678 1212.53 -65.9584 1210.79 -66.9058C1209.92 -67.4396 1209 -67.8789 1208.17 -68.2671C1207.34 -68.6553 1206.63 -68.9195 1206.25 -69.0044C1203.8 -69.5437 1207.19 -64.7706 1205.07 -65.2506C1205.25 -65.5807 1204.54 -66.6372 1204.24 -67.1035C1202.94 -67.7477 1204.01 -65.8867 1201.75 -67.9082C1202.11 -69.2408 1196.61 -71.4918 1201.23 -69.6546C1200.14 -70.6761 1199.41 -71.133 1198.65 -71.5427C1197.9 -71.9524 1197.05 -72.4133 1195.57 -73.3999C1196.27 -73.4483 1196.02 -74.4414 1195.24 -75.7162C1194.47 -76.991 1193.23 -78.5218 1191.96 -79.453C1191.95 -79.0933 1191.13 -79.0489 1190.77 -79.0611C1189.4 -79.8037 1188.18 -80.4695 1187.02 -81.037C1185.84 -81.5572 1184.75 -82.0263 1183.66 -82.4953C1182.57 -82.9644 1181.48 -83.4335 1180.4 -83.9025C1179.23 -84.35 1178.05 -84.8703 1176.73 -85.4674C1176.1 -85.4405 1173.39 -86.1806 1174.27 -85.2144C1173.57 -85.7184 1173.04 -86.4326 1171.38 -87.0891C1167.76 -87.2836 1175.02 -85.477 1172.06 -85.1931C1172.11 -85.9598 1168.17 -87.9182 1165.85 -89.053C1166.37 -89.4437 1167.85 -89.1296 1169.38 -88.3573C1170.92 -87.585 1172.56 -86.5688 1173.67 -85.9071C1174.01 -86.64 1173.23 -87.7949 1171.76 -89.1412C1171.02 -89.7907 1170.03 -90.5683 1168.93 -91.2301C1167.77 -91.9174 1166.5 -92.6088 1165.08 -93.2572C1162.81 -94.2465 1162.16 -94.0525 1162.1 -93.8383C1162.02 -93.5769 1162.39 -93.1322 1161.99 -93.4098C1159.73 -93.9666 1158.21 -94.5462 1156.98 -95.0921C1155.8 -95.6124 1154.9 -96.0989 1154.13 -96.5814C1153.31 -97.0895 1152.55 -97.4992 1151.48 -97.8955C1150.42 -98.2918 1149.03 -98.4348 1147.11 -98.4998C1143.93 -98.0313 1146.66 -96.546 1145.85 -95.9492C1147.75 -95.4046 1149.31 -95.3519 1150.72 -95.256C1152.09 -95.1857 1153.33 -95.1196 1154.65 -94.8351L1151.29 -95.0686C1152.47 -94.4284 1154.96 -93.6237 1156.48 -93.5965C1155.82 -93.5225 1154.51 -93.6871 1152.89 -93.9581C1152.05 -94.1064 1151.12 -94.306 1150.17 -94.4584C1149.16 -94.6364 1148.09 -94.7928 1147.01 -94.9493C1145.94 -95.1057 1144.8 -95.3605 1143.65 -95.4954C1142.5 -95.6303 1141.4 -95.7396 1140.25 -95.8745C1138 -96.1187 1135.89 -96.1661 1134.14 -96.0815C1132.9 -96.5074 1130.78 -96.9874 1131.83 -97.3363L1134.05 -97.0449C1136.18 -97.717 1129.87 -98.4589 1132.78 -98.6486C1131.31 -99.0826 1129.66 -99.4264 1127.92 -99.7016C1127.01 -99.8283 1126.1 -99.9551 1125.14 -99.9876C1124.16 -99.9729 1123.15 -99.9111 1122.07 -99.8277L1121.31 -98.6528C1121.37 -98.987 1124.09 -99.3989 1125.33 -99.0929C1124.43 -99.3396 1122.78 -98.8911 1121.16 -98.6097C1120.34 -98.4454 1119.5 -98.3539 1118.75 -98.3311C1118.01 -98.3083 1117.34 -98.4269 1116.84 -98.7558C1117.82 -99.0831 1118.81 -99.4575 1119.81 -99.7121C1118.25 -100.005 1116.49 -100.233 1114.67 -100.486C1113.74 -100.566 1112.8 -100.645 1111.82 -100.631C1110.88 -100.59 1109.92 -100.503 1108.95 -100.296C1110.58 -101.609 1109.86 -100.289 1112.46 -101.93C1110.24 -100.084 1122.36 -102.723 1118.64 -100.712C1120.01 -101.554 1121.19 -101.706 1122.57 -101.876C1123.9 -102.071 1125.32 -102.215 1127.21 -102.775C1127.08 -102.419 1125.91 -102.075 1129.16 -102.205C1129.27 -102.081 1129.63 -101.949 1129.87 -101.821C1129.98 -101.817 1129.98 -101.817 1130.06 -101.838C1129.98 -101.817 1129.94 -101.842 1129.87 -101.821C1130.01 -101.744 1130.01 -101.744 1129.79 -101.799C1129.04 -101.657 1128.39 -101.463 1128.09 -101.256C1128.87 -100.774 1130.59 -100.572 1132.24 -100.348C1133.91 -100.051 1135.63 -99.8488 1136.44 -99.5333C1138.36 -99.5883 1135.66 -100.016 1136.75 -100.339C1137.58 -100.071 1138.44 -99.7298 1139.24 -99.4144C1139.56 -100.22 1144.48 -100.174 1140.05 -101.236L1144.14 -100.785C1146.59 -100.918 1149.92 -100.518 1151.88 -99.7549C1153.82 -99.4973 1156.47 -97.7507 1154.95 -98.7628C1155.99 -98.4393 1156.99 -98.1414 1158.01 -97.7707L1161.02 -96.6842L1161.12 -96.8729C1164.22 -96.1677 1167.2 -94.6744 1170.32 -93.464C1173.42 -92.0865 1176.62 -90.8976 1180.24 -90.0307C1181.16 -89.4714 1182.1 -88.9592 1183.24 -88.3446C1184.34 -87.6829 1185.59 -87.0643 1187.27 -86.3351L1188.24 -86.6624C1189.44 -85.9494 1191.29 -85.0706 1192.96 -84.2215C1194.64 -83.3724 1196.13 -82.6257 1196.41 -81.9196C1197.28 -81.9384 1198.44 -81.4909 1199.79 -80.821C1200.45 -80.4625 1201.15 -80.0784 1201.88 -79.6215C1202.61 -79.1646 1203.29 -78.6134 1204.04 -78.0838C1205.47 -77.0029 1206.94 -75.8965 1208.27 -74.747C1209.55 -73.623 1210.79 -72.6446 1211.75 -71.9398L1211.29 -71.0909L1212.27 -70.3133L1213.16 -69.467C1213.76 -68.8943 1214.37 -68.3215 1214.99 -67.676C1215.57 -67.0561 1216.2 -66.4106 1216.87 -65.7395C1217.47 -65.0468 1218.09 -64.2814 1218.79 -63.5375L1218.01 -63.1078C1219.04 -61.6322 1220.77 -60.205 1222.63 -58.4612C1223.56 -57.5893 1224.56 -56.7389 1225.56 -55.7686C1226.51 -54.8239 1227.46 -53.7593 1228.34 -52.6732C1228.35 -53.1529 1227.33 -54.1959 1226.59 -54.8455C1228.02 -53.8846 1229.25 -52.6663 1230.33 -51.285C1231.41 -49.9038 1232.3 -48.3851 1233.18 -46.8664C1234.09 -45.3949 1234.83 -43.8331 1235.72 -42.4343C1236.61 -41.0356 1237.55 -39.7311 1238.59 -38.6153C1239.14 -37.1559 1239.78 -36.3177 1240.5 -35.5011C1240.43 -35.5995 1240.39 -35.745 1240.32 -35.8434C1240.44 -35.7194 1240.53 -35.5483 1240.64 -35.3044C1241.1 -34.8084 1241.61 -34.2869 1242.1 -33.7182C1241.61 -34.167 1241.19 -34.6373 1240.84 -35.0092C1241.46 -34.004 1242.17 -32.395 1242.81 -30.7645L1243.98 -30.5569C1244.03 -30.4114 1244.09 -30.313 1244.16 -30.2146C1245.27 -28.8805 1244.45 -28.8361 1243.41 -29.2796C1243.69 -28.4536 1243.86 -27.6316 1243.96 -27.0279C1244.91 -26.7556 1245.31 -25.6857 1245.72 -24.543C1245.92 -24.0081 1246.14 -23.4003 1246.48 -22.9085C1246.75 -22.395 1247.12 -21.9503 1247.67 -21.7158C1247.55 -21.0475 1248.27 -19.006 1248.9 -16.8959C1249.4 -14.7897 1249.81 -12.7348 1249.23 -12.01C1249.43 -12.0275 1249.72 -11.5612 1249.42 -12.46C1250.32 -10.7486 1251 -8.97263 1251.13 -7.19129L1252.26 -7.12915L1252.16 -4.92341L1251.94 -2.72171C1253.28 -0.467261 1253.95 0.44369 1254.16 -2.19053C1254.22 -0.62749 1254.31 0.455865 1254.4 1.29938C1254.44 2.11728 1254.54 2.72094 1254.6 3.299C1254.73 4.40797 1254.83 5.44417 1254.67 8.10399L1255.36 7.74297C1255.63 9.60113 1255.14 12.6342 1255.95 13.6219C1256.47 14.576 1256.84 16.3654 1257.22 18.5874C1257.4 19.722 1257.57 20.9765 1257.65 22.2997C1257.77 23.6485 1257.87 25.0445 1257.96 26.5603C1258.21 32.4999 1258.15 39.2452 1258.28 44.6282C1257.24 43.5124 1257.41 44.7669 1257.6 46.334C1257.71 47.9226 1257.84 49.8239 1257 49.9154C1257.43 50.5784 1257.57 52.1199 1258.23 50.4613C1258.11 51.1296 1257.94 51.7723 1257.87 52.3463C1257.78 52.9675 1257.67 53.5159 1257.62 54.0427C1257.47 55.1179 1257.36 56.0989 1257.24 57.007C1257.03 58.8489 1256.64 60.4685 1255.55 62.1365C1255.93 62.8938 1256.57 61.1624 1256.74 61.7445C1256.51 62.169 1255.91 63.3735 1256.09 63.9556C1256.23 64.5849 1256.71 63.2564 1257.07 62.4763C1256.76 63.8344 1256.37 64.9016 1256 65.6817C1255.59 66.4362 1255.17 66.998 1254.79 67.3456C1253.98 68.0623 1253.19 68.0595 1252.39 68.0567C1252.34 69.4958 1252.26 70.5495 1251.89 71.4495C1251.53 72.3496 1251.02 73.0529 1250.23 73.8424C1250.38 74.9042 1250.37 76.6087 1251.61 73.4329C1251.47 73.9085 1251.2 74.8598 1250.87 76.0253C1250.69 76.5952 1250.52 77.2379 1250.35 77.8806C1250.12 78.5449 1249.9 79.162 1249.66 79.8263C1248.69 82.4105 1247.63 84.7037 1247.03 84.5635C1247.08 85.2615 1245.99 87.0494 1245.68 87.4954C1245.26 88.4897 1244.9 89.2698 1244.66 89.9341C1244.38 90.5728 1244.1 91.0915 1243.86 91.6358C1243.34 92.6989 1242.81 93.6892 1241.78 95.5754L1242.16 94.4356C1240.18 95.2572 1240.21 97.3471 1238.33 100.237L1238.53 100.22C1237.77 102.067 1237.2 103.104 1236.77 103.786C1236.34 104.468 1236.09 104.819 1235.82 105.098C1235.52 105.424 1235.29 105.729 1234.91 106.436C1234.73 106.766 1234.47 107.238 1234.16 107.804C1233.86 108.37 1233.5 109.03 1233.06 109.951L1232.56 109.07C1231.54 108.819 1230.84 110.332 1229.85 112.364C1228.9 114.349 1227.64 116.78 1225.96 118.307L1226.59 116.696C1225.62 117.456 1224.97 119.114 1224.4 120.944C1223.86 122.727 1223.36 124.655 1222.54 125.611C1222.26 126.13 1223.37 125.207 1223.94 124.722C1220.19 130.262 1222.5 124.554 1218.91 127.794C1218.71 128.843 1220.91 128.15 1218.6 130.497C1218.19 131.251 1216.04 132.523 1213.75 134.03C1212.58 134.735 1211.35 135.534 1210.21 136.384C1209.67 136.822 1209.13 137.26 1208.66 137.676C1208.19 138.092 1207.76 138.534 1207.39 139.002C1207.85 138.033 1208.32 137.064 1206.34 138.126C1205.65 138.607 1204.86 139.276 1204.11 140.091C1203.71 140.486 1203.32 140.881 1202.92 141.275C1202.52 141.67 1202.08 142.039 1201.63 142.408C1199.9 143.911 1198.12 145.387 1196.36 145.472C1196.07 145.798 1196.01 146.012 1196.01 146.132C1194.76 146.618 1192.9 147.684 1191.03 148.437C1189.16 149.19 1187.38 149.874 1186.51 149.893C1186.34 150.895 1185.28 151.724 1183.83 152.467C1182.37 153.258 1180.52 153.964 1178.7 154.503C1176.88 155.041 1175.16 155.631 1173.91 156.118C1172.67 156.604 1171.96 157.132 1172.2 157.812C1170.91 158.273 1169.67 158.759 1168.36 159.147L1164.48 160.337L1164.78 160.563C1162.33 161.488 1160.59 161.766 1159.24 161.888C1157.89 162.011 1156.96 161.931 1155.98 161.826C1154.88 162.269 1155.77 162.323 1155.93 162.472C1152.29 163.55 1150.3 164.179 1148.35 164.281C1146.43 164.456 1144.6 164.442 1141.37 164.093L1140.84 165.083C1140.38 165.02 1139.51 165.158 1138.31 165.358C1137.12 165.63 1135.6 165.842 1133.86 166.12C1132.99 166.258 1132.12 166.397 1131.16 166.485C1130.2 166.572 1129.26 166.612 1128.32 166.653C1126.37 166.755 1124.38 166.711 1122.55 166.385C1122.61 166.483 1122.75 166.68 1123.35 166.82C1119.17 166.199 1114.14 166.581 1109.75 166.456C1105.36 166.331 1101.66 165.726 1100.45 163.788C1098.67 163.248 1096.94 162.493 1095.28 161.836C1102.23 163.104 1094.59 160.18 1097.54 160.256C1096.24 159.852 1094.46 159.744 1093.41 159.78C1092.35 159.816 1092 160.117 1093.64 160.58L1094.22 160.528C1095.01 162.668 1085.59 158.891 1085.45 160.039C1078.78 157.94 1072.31 155.464 1066.04 152.731C1064.48 152.005 1062.96 151.306 1061.4 150.581C1059.87 149.808 1058.41 149.015 1056.95 148.221C1056.19 147.811 1055.48 147.427 1054.73 147.017C1054 146.56 1053.32 146.129 1052.56 145.719C1051.15 144.831 1049.72 143.99 1048.36 143.008C1049.01 142.934 1049.71 142.885 1050.38 142.764C1049.12 141.953 1047.9 141.047 1046.61 140.163C1045.45 139.716 1044.64 140.073 1047.34 141.965C1046.41 141.765 1045.38 140.842 1044.6 139.927C1043.81 139.012 1043.37 138.036 1043.4 137.869C1038.07 134.303 1044.36 140.711 1042.81 139.506L1040.78 137.733L1041.38 137.993C1040.71 137.082 1040.42 136.496 1039.91 135.854C1039.66 135.534 1039.36 135.187 1038.92 134.764C1038.5 134.294 1037.96 133.819 1037.22 133.17C1035.18 131.756 1035.69 132.95 1034.92 132.348C1034.87 132.442 1034.56 132.216 1033.75 131.348C1032.31 130.074 1030.91 128.706 1029.49 127.386L1031.91 128.212C1030.45 126.073 1028.03 124.455 1030.78 125.46C1028.74 124.719 1024.93 120.94 1021.64 116.891C1020.76 115.924 1020.05 114.868 1019.29 113.906C1018.53 112.944 1017.86 112.033 1017.27 111.22C1016.1 109.548 1015.21 108.269 1014.74 107.893C1014.41 107.041 1014.01 106.211 1013.58 105.428C1013.17 104.598 1012.77 103.768 1012.34 102.985C1011.46 101.347 1010.34 99.6999 1009.3 97.7918C1010.01 98.6085 1011.38 98.5588 1009.45 95.3718C1008.69 96.5467 1007.58 95.2125 1006.38 93.2748C1005.24 91.3154 1003.84 88.8427 1002.46 87.7875C1003.55 88.809 1002.53 86.3013 1001.68 83.9431C1000.82 81.585 1000.27 79.3333 1001.78 81.065C1000.46 78.211 1000.83 81.2252 999.438 79.185C999.205 78.2647 998.925 77.3187 998.693 76.3984C998.413 75.4525 998.158 74.4594 997.831 73.4878C997.504 72.5163 997.177 71.5447 996.803 70.5476C996.501 69.5288 996.127 68.5317 995.804 67.4402C995.455 66.3959 995.107 65.3516 994.784 64.2601C994.508 63.1943 994.185 62.1028 993.887 60.9642C993.267 58.7341 992.839 56.4865 992.583 54.1486C992.878 53.9425 993.668 55.41 993.81 53.3498C992.973 51.8567 992.259 50.2477 991.494 48.7331C991.454 47.7953 991.877 47.3534 992.116 46.6891C992.355 46.0249 992.405 45.2582 991.717 43.6021C992.013 44.0684 992.519 44.7098 992.513 43.485C990.969 34.5243 991.505 25.1057 992.826 15.9298C994.172 6.70678 996.28 -2.3464 997.939 -11.5829C997.755 -8.9958 998.36 -10.5601 998.974 -12.3642C998.741 -11.1475 999.758 -12.1216 1000.11 -11.7497C1000.62 -14.2774 1001.17 -16.8523 1001.76 -19.4015C1002.64 -19.78 1003.49 -21.696 1004.3 -23.5176C1004.69 -24.4648 1005.15 -25.3137 1005.56 -25.9483C1005.99 -26.63 1006.39 -27.0248 1006.73 -27.0853L1005.43 -25.0401C1006.79 -26.1947 1006.96 -24.8203 1007.1 -23.1589C1007.28 -21.4718 1007.31 -19.5019 1008.26 -19.3495C1007.54 -18.7014 1007.06 -17.8055 1006.73 -16.7599C1006.39 -15.6672 1006.25 -14.3992 1005.99 -13.1354C1005.78 -11.8459 1005.42 -10.5133 1005.06 -9.18076C1004.66 -7.8738 1004.01 -6.57497 1003.06 -5.38259C1003.01 -4.06346 1003.95 -6.2408 1004.14 -5.466C1002.93 -4.35453 1002.32 -2.67031 1001.8 0.529777L1002.07 0.250938C1001.91 0.773719 1001.75 1.29649 1001.59 1.81928C1001.43 2.34206 1001.34 2.84328 1001.25 3.34451C1001.02 4.32137 1000.82 5.25109 1000.65 6.13363C1000.25 7.87314 1000.08 9.54798 999.948 11.2484C999.771 12.9233 999.568 14.6453 999.55 16.5896C999.459 18.5555 999.291 20.6629 999.253 23.2069L998.417 22.3862C998.39 24.5704 998.614 25.0582 998.795 26.0728C997.296 28.4953 999.196 19.9393 997.513 22.1395C997.895 22.8968 998.017 24.2456 998.058 25.8558C998.1 27.466 998.107 29.3632 998.068 31.2348C997.981 33.0808 998.134 34.9349 998.299 36.4292C998.464 37.9236 998.762 39.0622 999.371 39.515C999.642 42.8378 998.273 38.6134 998.544 41.9362L999.188 42.7744L998.509 43.6879C998.639 44.7968 998.949 45.5757 999.266 46.1147C999.584 46.6538 999.936 46.9058 1000.18 46.9139C1000.02 46.4045 1000.13 45.4236 1000.08 44.8455C1000.56 46.2065 1000.76 48.2062 1000.84 49.9619C1000.92 51.7176 1001.11 53.2847 1001.24 53.7213C1000.94 52.7026 1000.66 51.6368 1000.36 50.618C1000.6 52.8831 1000.95 55.2722 1001.39 57.7124C1001.91 60.1312 1002.4 62.597 1003.09 65.0454C1003.41 66.2568 1003.73 67.4682 1004.05 68.6796C1004.44 69.8695 1004.76 71.0808 1005.1 72.2451C1005.72 74.5951 1006.46 76.8293 1006.96 79.0553L1006.3 78.5769C1006.51 79.4245 1006.68 80.1265 1006.9 80.7342C1007.12 81.3419 1007.3 81.8041 1007.47 82.2663C1007.85 83.1436 1008.19 83.7554 1008.58 84.3927C1008.96 85.0301 1009.28 85.6891 1009.78 86.5704C1010.27 87.4517 1010.86 88.624 1011.61 90.3785L1011.58 90.113C1011.83 91.6586 1012.61 93.4858 1013.66 95.274C1013.17 93.3606 1016.21 97.8816 1015.5 95.4804C1015.83 96.332 1016.12 97.0381 1016.39 97.5516C1016.63 98.1121 1016.84 98.5272 1016.99 98.9166C1017.28 99.6227 1017.39 99.9865 1017.45 100.325C1017.51 100.663 1017.5 100.903 1017.53 101.408C1017.56 101.913 1017.7 102.663 1018.07 103.9L1019.3 104.445C1019.51 105.293 1019.59 105.824 1019.83 106.504C1020.07 107.185 1020.5 108.088 1021.59 109.662C1020.2 106.829 1023.9 110.916 1022.45 107.746C1023.92 109.092 1025.05 110.379 1025.92 111.585C1026.79 112.791 1027.55 113.873 1028.21 114.904C1029.49 116.94 1030.64 118.42 1032.66 118.969C1033.17 120.955 1031.86 119.878 1030.51 118.536C1029.14 117.241 1027.95 115.496 1028.42 116.424C1027.62 115.989 1027.86 116.789 1028.47 117.914C1029.15 119.018 1030.25 120.472 1031.16 121.271C1032.02 122.165 1033.21 122.565 1034.77 123.17C1035.53 123.46 1036.38 123.921 1037.3 124.48C1037.74 124.784 1038.24 125.112 1038.75 125.514C1039.27 125.916 1039.83 126.343 1040.41 126.843C1039.94 126.467 1040.02 126.325 1039.53 125.877C1040.57 126.44 1041.31 127.329 1042.14 128.27C1042.55 128.74 1043 129.163 1043.48 129.612C1044 130.014 1044.59 130.394 1045.3 130.658C1045.83 132.597 1048.22 132.918 1047.72 134.414L1043.41 130.546C1044.54 131.713 1045.48 133.137 1046.7 134.595C1047.92 136.054 1049.6 137.455 1052.03 138.714C1051.88 138.205 1050.8 136.943 1050.01 136.148C1051.55 136.681 1052.32 138.195 1053.93 138.706C1054.15 137.969 1052.77 136.914 1051.08 135.632C1050.22 134.979 1049.3 134.299 1048.46 133.599C1047.65 132.851 1046.91 132.081 1046.4 131.32C1047.24 131.588 1048.32 132.849 1049.28 133.674C1050.16 134.52 1050.82 134.999 1050.59 133.839C1050.97 135.388 1052.29 136.225 1053.79 137.165C1055.35 138.01 1057.07 138.884 1058.45 140.732L1058.7 139.828C1059.16 140.324 1060.18 141.367 1061.24 142.003L1059.89 139.868C1062.35 142.425 1065.95 142.427 1068.65 144.319C1065.63 142.8 1065.15 142.784 1065.11 143.191C1065.03 143.572 1065.34 144.231 1063.94 143.775C1070.95 148.743 1069.26 144.099 1077.62 148.272C1076.48 147.657 1073.03 146.82 1074.69 148.029C1075.57 148.323 1076.55 148.668 1077.5 148.82C1078.43 149.02 1079.34 149.147 1079.92 149.094C1085.62 151.52 1078.72 149.606 1080.98 151.075C1083.34 150.891 1083.74 152.513 1086.24 153.751L1086.53 152.872C1087.39 153.093 1088.08 153.285 1088.6 153.446C1089.13 153.608 1089.53 153.766 1089.77 153.894C1090.33 154.201 1090.49 154.471 1090.58 154.762C1090.82 155.322 1091 155.784 1094.24 156.327L1091.93 154.399C1093 154.796 1094.04 155.239 1095.09 155.563L1094.67 154.42C1096.32 155.196 1097.51 155.597 1098.65 155.852C1099.8 156.106 1100.99 156.267 1102.74 156.422C1101.81 156.895 1102.92 158.109 1106.07 158.72C1108.31 158.532 1105.03 157.724 1109.47 158.427C1108.97 158.098 1108.51 157.722 1107.89 157.509C1107.27 157.296 1106.51 157.246 1105.49 157.428C1105.36 157.111 1104.6 156.701 1104.42 156.359C1106.76 156.222 1110.16 157.033 1111.81 157.257C1111.16 157.211 1110.45 157.187 1110.03 157.269C1111.08 157.593 1112.1 157.963 1113.22 158.265L1116.41 159.142C1117.47 158.866 1116.67 158.55 1115.86 158.235C1117.17 158.399 1118.04 158.933 1119.98 159.071C1119.53 158.335 1119.67 157.62 1116.98 157.072C1118.98 157.548 1121.04 157.81 1123.07 158.119C1123.49 157.797 1126.22 157.265 1125.43 157.022C1127.1 156.766 1129.18 157.101 1131.42 157.345C1133.65 157.516 1136.05 157.717 1138.3 157.169C1138.53 157.297 1139.03 157.386 1139.97 157.346C1141.03 157.19 1142.03 156.935 1143.04 156.754C1144.03 156.499 1145.03 156.244 1146.07 156.016C1147.11 155.787 1148.12 155.605 1149.26 155.427C1150.39 155.249 1151.55 155.144 1152.84 155.116C1153.68 154.472 1154.49 153.876 1155.31 153.159C1159.2 152.402 1151.98 155.808 1158.46 154.562C1163.12 153.735 1159.83 153.048 1161.32 152.21C1162.5 152.178 1164.16 152.162 1166.01 151.888C1167.83 151.589 1169.82 150.841 1171.64 149.629C1169.88 149.714 1168.95 150.307 1167.64 150.695ZM1209.58 126.085C1209.14 126.334 1208.53 126.674 1207.96 127.039C1207.4 127.404 1206.88 127.795 1206.77 128.223C1207.54 128.273 1207.95 128.071 1208.4 127.702C1208.77 127.354 1209.08 126.789 1209.58 126.085ZM1249.35 63.5357C1248.9 64.1446 1248.72 65.267 1248.75 66.5646C1249.06 65.7589 1249.31 64.7349 1249.35 63.5357ZM1147.04 -99.823C1147.08 -99.7973 1147.08 -99.7973 1147.13 -99.7717C1149.43 -99.7418 1148.64 -99.7446 1147.04 -99.823ZM1142.36 -100.101C1141.91 -100.284 1141.96 -100.379 1142.16 -100.516C1142.44 -100.243 1143.52 -100.086 1144.69 -99.9984C1144.33 -99.8907 1143.7 -99.7439 1142.36 -100.101ZM1034.82 131.624L1035.67 132.085C1034.26 130.524 1034.58 131.063 1034.82 131.624Z" fill="white"/>
<path d="M1138.13 157.02L1137.99 157.063C1137.89 157.011 1137.85 156.986 1137.82 156.913L1138.13 157.02Z" fill="white"/>
</g>
<g opacity="0.5">
<path d="M112.918 245.927C114.569 247.495 116.674 249.127 115.805 249.266L114.756 249.062C114.227 247.676 113.587 246.718 112.918 245.927Z" fill="white"/>
<path d="M120.072 351.126C120.055 350.933 120.063 350.693 119.998 350.475C120.396 350.08 120.793 349.686 121.118 349.312C120.811 349.878 120.478 350.491 120.072 351.126Z" fill="white"/>
<path d="M116.386 351.506L116.031 354.183C116.051 353.584 116.152 352.723 116.386 351.506Z" fill="white"/>
<path d="M42.6657 186.641C44.5249 187.041 45.9515 187.449 47.1855 187.875C44.8939 187.485 42.9969 187.493 42.6657 186.641Z" fill="white"/>
<path d="M52.1303 190.011C51.7962 189.952 51.4877 189.845 51.1536 189.786C49.9749 189.146 48.7746 188.433 47.2105 187.828C48.8811 188.124 50.6594 188.785 52.1303 190.011Z" fill="white"/>
<path d="M2.99219 177.734C1.57886 177.639 2.75644 177.606 2.99219 177.734V177.734Z" fill="white"/>
<path d="M61.8225 200.832C61.8697 200.858 61.8697 200.858 61.917 200.884C61.5349 200.799 61.5822 200.824 61.8225 200.832Z" fill="white"/>
<path d="M0.870023 178.047C1.40087 177.969 2.00447 177.869 2.67676 177.868C2.36419 177.882 1.83335 177.96 0.870023 178.047Z" fill="white"/>
<path d="M1.14746 177.648C0.642209 177.679 0.282478 177.667 -0.102864 177.702C-0.218697 177.578 -0.0947088 177.462 1.14746 177.648Z" fill="white"/>
<path d="M4.90723 177.919C4.09347 177.843 3.37401 177.819 2.62894 177.842C2.89437 177.803 3.03988 177.76 2.94558 177.708C3.39961 177.772 3.97356 177.839 4.90723 177.919Z" fill="white"/>
<path d="M118.261 281.503C118.24 281.43 118.265 281.382 118.291 281.335C118.313 281.408 118.334 281.481 118.381 281.507L118.261 281.503Z" fill="white"/>
<path d="M118.703 286.2C119.256 284.057 118.958 282.919 118.309 281.528C119.188 281.822 120.113 282.141 120.966 282.482C120.274 283.756 119.488 284.978 118.703 286.2Z" fill="white"/>
<path d="M38.64 430.683L41.4159 428.832C37.3012 429.101 34.8541 430.459 37.3001 428.429C37.6179 428.968 38.5044 429.022 39.6901 428.75C40.8758 428.478 42.3566 427.999 43.8415 427.401C45.3264 426.803 46.7385 426.227 47.9499 425.908C49.114 425.563 50.0046 425.497 50.3952 426.014L52.0757 424.606C51.5367 424.924 51.3737 424.775 50.8347 425.093C54.0071 422.175 54.475 425.36 59.0648 422.418C60.5916 421.293 61.5148 420.268 60.2522 420.681L64.1505 419.012C65.1342 418.325 64.6371 418.116 63.6534 418.803C65.5143 417.738 67.285 416.501 69.0988 415.41L69.0045 415.359C70.0191 415.177 71.9918 414.355 72.9889 413.981C74.0658 412.672 72.1629 414.265 72.3248 413.742C73.3772 413.153 74.4983 412.663 75.5507 412.074C75.8877 411.341 75.4081 411.325 74.6036 411.682C73.752 412.014 72.6228 412.744 71.6606 413.504C72.2095 411.481 72.8685 411.167 74.0367 410.702C75.1363 410.139 76.7452 409.425 78.9327 406.522C78.0217 407.188 77.0892 407.78 76.1783 408.446C76.5101 407.16 77.2837 406.298 78.2069 405.273C79.083 404.222 80.2029 403.059 81.2408 401.486C80.9468 402.364 77.2656 408.242 80.5078 406.095C81.1615 405.229 82.1575 404.182 84.0184 403.116C83.3921 402.471 84.9486 401.179 86.7869 399.368L85.7793 398.638C86.8399 397.809 87.4517 397.47 87.961 397.319C88.496 397.121 88.954 397.064 89.6642 396.656C91.6171 394.297 91.3413 393.231 91.1381 392.144C94.0091 388.207 90.1765 395.713 93.9502 391.351C94.484 390.48 95.0137 389.73 95.5906 389.005C96.1203 388.254 96.6715 387.577 97.2955 386.877C98.4964 385.453 99.9114 384.085 101.488 382.193C102.683 379.544 100.623 382.212 100.874 381.188L103.043 379.556C103.35 378.99 103.012 379.051 102.819 379.068C104.242 377.46 103.955 379.563 105.945 376.797C106.716 376.727 107.231 374.992 107.832 372.875C108.385 370.733 109.211 368.311 110.729 366.754C110.838 365.653 109.86 366.893 109.563 366.426C111.157 364.055 111.866 362.974 112.472 362.083C113.104 361.143 113.66 360.346 115.168 358.356C115.405 357.019 115.643 355.683 115.786 354.295C115.68 357.413 117.927 354.175 119.828 351.238C119.885 352.368 119.994 353.405 119.974 354.004C120.75 352.35 121.527 350.695 122.209 348.989C122.208 348.317 121.618 348.729 120.921 349.45C121.1 349.12 121.327 348.815 121.455 348.58C121.545 346.614 120.583 347.374 119.583 348.54C119.632 349.238 119.727 349.962 119.801 350.613C118.685 351.656 117.526 352.553 116.917 352.1C117.144 351.795 117.451 351.23 117.762 350.544C117.442 350.797 117.219 350.982 117.155 350.763C117.09 350.545 117.56 350.129 118.043 349.353L117.086 347.856L117.642 347.73L118.167 344.29C118.349 343.168 118.437 341.994 118.572 340.846C119.187 339.715 119.823 338.656 120.438 337.524C121.053 336.392 121.62 335.235 122.192 333.957C122.478 333.319 122.764 332.68 123.075 331.994C123.339 331.283 123.604 330.571 123.846 329.787C124.332 328.219 124.847 326.483 125.105 324.547C123.961 326.429 123.487 324.829 122.335 324.814C122.872 325.96 122.511 327.413 122.042 329.174C121.821 330.031 121.574 330.935 121.302 331.886C121.03 332.837 120.804 333.814 120.699 334.795C120.939 332.666 120.302 333.053 120.02 333.572C120.843 331.27 121.426 328.961 122.107 326.583C121.601 326.614 121.519 326.203 121.445 325.552C121.419 324.927 121.426 324.014 121.266 323.073C122.175 323.872 122.579 322.565 122.837 320.629C122.901 320.174 122.99 319.673 123.032 319.146C123.074 318.62 123.116 318.093 123.157 317.566C123.241 316.512 123.347 315.531 123.491 314.816C122.874 314.603 122.177 315.324 122.248 318.904C121.572 316.888 122.165 315.683 122.81 314.385C123.428 313.133 124 311.856 123.346 309.912C123.364 310.777 123.468 311.261 123.143 311.634C123.394 310.61 123.382 308.833 123.26 307.484C123.091 306.11 122.738 305.186 122.525 305.803L122.591 306.693C122.4 305.246 122.294 303.418 122.12 301.491C121.945 299.564 121.727 297.491 121.6 295.59C121.472 293.689 121.268 291.929 121.339 290.563C121.336 289.218 121.515 288.216 121.835 287.962C121.595 287.954 120.116 289.105 119.838 289.504C120.877 285.793 121.919 281.962 122.653 278.025C121.555 279.261 117.487 276.746 118.018 281.614C117.751 280.981 117.416 280.249 117.183 279.329C116.903 278.383 116.7 277.295 116.462 275.823C116.939 276.631 119.094 277.496 118.801 276.238C117.531 274.754 117.14 274.237 116.754 273.599C116.367 272.962 116.032 272.23 114.654 270.383C115.453 271.61 116.896 269.402 116.032 267.284C115.849 267.734 113.995 267.887 114.039 268.705L114.068 265.729C114.054 264.744 113.992 263.733 113.93 262.722C114.121 264.17 112.386 263.655 111.361 262.732C111.691 262.911 111.175 261.837 110.573 260.472C109.946 259.154 109.108 257.661 108.893 256.933L110.365 258.832C108.802 256.09 108.837 254.338 108.727 252.629C108.709 251.764 108.643 250.874 108.436 249.906C108.181 248.913 107.837 247.749 106.97 246.423C106.988 247.288 105.621 249.355 103.763 246.819C103.817 245.932 104.152 243.854 103.998 241.328C103.818 238.848 103.393 235.809 101.894 233.285L100.712 232.764C100.011 231.468 99.3367 230.125 98.5166 228.824C98.8233 230.395 99.3506 233.247 100.019 236.175C100.403 237.604 100.662 239.15 100.952 240.528C101.241 241.907 101.581 243.191 101.836 244.184C100.116 242.517 100.881 244.032 98.9144 241.132C97.7613 240.444 99.2519 243.208 99.8229 244.068C98.192 241.9 96.6082 239.757 94.8533 237.705C95.461 237.485 94.7905 236.022 94.0944 234.605C93.3255 233.211 92.531 231.863 93.0188 231.64C94.6375 234.168 95.9867 236.855 97.4598 239.426C98.0675 239.206 98.0478 237.669 97.3505 235.58C97.0019 234.536 96.5374 233.367 95.8331 232.191C95.1288 231.015 94.3046 229.834 93.3093 228.744C91.9677 227.954 92.3412 231.088 91.9047 231.218C91.8226 230.807 91.144 229.583 90.3157 228.523C89.4874 227.462 88.608 226.496 88.2995 226.389L89.4466 228.661C88.1603 227.657 87.6271 226.391 86.9013 225.141C86.1755 223.892 85.2314 222.708 83.4613 221.807C82.9468 221.406 81.9782 220.941 81.1255 220.6C80.2728 220.259 79.5871 219.947 79.792 219.57C82.349 219.921 85.7869 216.964 85.3684 215.149C85.1327 215.02 83.5338 214.03 81.7893 213.082C80.9191 212.549 79.9977 212.109 79.1706 211.721C78.3434 211.333 77.6321 211.069 77.2509 210.984C74.7962 210.445 78.1873 215.218 76.0668 214.738C76.2461 214.408 75.5377 213.351 75.2415 212.885C73.9429 212.241 75.008 214.102 72.7479 212.08C73.1053 210.748 67.6117 208.497 72.231 210.334C71.1373 209.312 70.4086 208.855 69.6542 208.446C68.8999 208.036 68.0512 207.575 66.5722 206.588C67.2701 206.54 67.0157 205.547 66.2428 204.272C65.4698 202.997 64.2254 201.466 62.9606 200.535C62.9483 200.895 62.1305 200.939 61.7708 200.927C60.4035 200.185 59.1777 199.519 58.0205 198.951C56.8378 198.431 55.7493 197.962 54.6608 197.493C53.5723 197.024 52.4838 196.555 51.3954 196.086C50.2341 195.638 49.0514 195.118 47.7272 194.521C47.102 194.548 44.3901 193.808 45.2696 194.774C44.5665 194.27 44.0386 193.556 42.3802 192.899C38.7615 192.705 46.0228 194.511 43.0601 194.795C43.1101 194.028 39.1672 192.07 36.8529 190.935C37.3703 190.545 38.8482 190.859 40.3826 191.631C41.9169 192.403 43.563 193.419 44.6689 194.081C45.006 193.348 44.2289 192.193 42.7621 190.847C42.0159 190.198 41.034 189.42 39.9281 188.758C38.775 188.071 37.502 187.379 36.0835 186.731C33.8122 185.742 33.1574 185.936 33.1021 186.15C33.0212 186.411 33.3902 186.856 32.9915 186.578C30.7296 186.022 29.2127 185.442 27.9828 184.896C26.8 184.376 25.9042 183.889 25.1283 183.407C24.3053 182.899 23.5509 182.489 22.4839 182.093C21.417 181.696 20.0293 181.553 18.1108 181.489C14.9257 181.957 17.6602 183.442 16.8476 184.039C18.7498 184.584 20.3086 184.636 21.7219 184.732C23.0881 184.803 24.3343 184.869 25.6451 185.153L22.2918 184.92C23.4705 185.56 25.9641 186.365 27.4757 186.392C26.825 186.466 25.5101 186.301 23.8866 186.03C23.0514 185.882 22.1218 185.682 21.1666 185.53C20.1643 185.352 19.0892 185.195 18.0141 185.039C16.939 184.883 15.7952 184.628 14.6473 184.493C13.4995 184.358 12.3988 184.249 11.2509 184.114C9.00236 183.87 6.89119 183.822 5.13564 183.907C3.90164 183.481 1.78113 183.001 2.82539 182.652L5.04836 182.943C7.18402 182.271 0.870817 181.529 3.78237 181.34C2.30857 180.906 0.663605 180.562 -1.07971 180.287C-1.98774 180.16 -2.89577 180.033 -3.85505 180.001C-4.83992 180.015 -5.85042 180.077 -6.93368 180.161L-7.6939 181.335C-7.63453 181.001 -4.90747 180.589 -3.6694 180.895C-4.57336 180.649 -6.22122 181.097 -7.8394 181.379C-8.66131 181.543 -9.50475 181.634 -10.2498 181.657C-10.9949 181.68 -11.6631 181.561 -12.1561 181.232C-11.1846 180.905 -10.1875 180.531 -9.19445 180.276C-10.7451 179.984 -12.5141 179.756 -14.3301 179.502C-15.2638 179.422 -16.1974 179.343 -17.1823 179.358C-18.12 179.398 -19.0834 179.485 -20.0508 179.693C-18.4215 178.379 -19.1387 179.7 -16.5379 178.059C-18.7615 179.904 -6.64312 177.265 -10.3609 179.276C-8.98775 178.434 -7.80615 178.282 -6.43186 178.113C-5.10471 177.917 -3.68328 177.773 -1.79151 177.213C-1.92366 177.569 -3.08782 177.914 0.157856 177.783C0.273691 177.907 0.629331 178.039 0.865068 178.167C0.984985 178.172 0.984972 178.172 1.05773 178.15C0.984972 178.172 0.93784 178.146 0.865068 178.167C1.00652 178.244 1.00653 178.244 0.792325 178.189C0.0431896 178.332 -0.611656 178.526 -0.906767 178.732C-0.130878 179.214 1.5909 179.417 3.23992 179.641C4.91048 179.937 6.63224 180.14 7.43783 180.455C9.36044 180.4 6.66196 179.972 7.75337 179.649C8.58456 179.917 9.43728 180.258 10.2429 180.574C10.5584 179.768 15.4787 179.815 11.0491 178.752L15.1393 179.203C17.5928 179.07 20.9165 179.47 22.8833 180.233C24.8193 180.491 27.4729 182.238 25.9467 181.225C26.9921 181.549 27.9904 181.847 29.0102 182.218L32.0224 183.304L32.1249 183.115C35.2221 183.821 38.1965 185.314 41.3245 186.524C44.4229 187.902 47.6237 189.091 51.2436 189.958C52.161 190.517 53.1039 191.029 54.2355 191.644C55.3414 192.305 56.5928 192.924 58.2727 193.653L59.2442 193.326C60.4444 194.039 62.2872 194.918 63.963 195.767C65.6388 196.616 67.126 197.363 67.4141 198.069C68.2791 198.05 69.4403 198.497 70.7861 199.167C71.4461 199.526 72.1533 199.91 72.8821 200.367C73.6108 200.824 74.2884 201.375 75.0387 201.905C76.4665 202.985 77.9414 204.092 79.2708 205.241C80.5531 206.365 81.7923 207.344 82.7528 208.049L82.2917 208.897L83.2737 209.675L84.1572 210.521C84.762 211.094 85.3668 211.667 85.9931 212.312C86.5722 212.932 87.1985 213.578 87.872 214.249C88.4727 214.941 89.0949 215.707 89.7898 216.451L89.0069 216.88C90.0372 218.356 91.7653 219.783 93.6268 221.527C94.5575 222.399 95.561 223.249 96.5604 224.22C97.5126 225.164 98.4608 226.229 99.3362 227.315C99.3525 226.835 98.3316 225.792 97.5854 225.143C99.0173 226.104 100.248 227.322 101.33 228.703C102.411 230.085 103.296 231.603 104.181 233.122C105.091 234.593 105.83 236.155 106.719 237.554C107.608 238.953 108.548 240.257 109.59 241.373C110.141 242.832 110.785 243.671 111.501 244.487C111.432 244.389 111.389 244.243 111.321 244.145C111.437 244.269 111.527 244.44 111.639 244.684C112.102 245.18 112.612 245.701 113.097 246.27C112.608 245.821 112.192 245.351 111.845 244.979C112.459 245.984 113.172 247.593 113.813 249.224L114.982 249.431C115.025 249.577 115.094 249.675 115.163 249.774C116.27 251.108 115.452 251.152 114.411 250.709C114.695 251.535 114.859 252.357 114.958 252.96C115.91 253.233 116.305 254.303 116.723 255.445C116.921 255.98 117.14 256.588 117.483 257.08C117.754 257.593 118.123 258.038 118.667 258.272C118.549 258.941 119.271 260.982 119.896 263.092C120.401 265.199 120.811 267.253 120.234 267.978C120.427 267.961 120.723 268.427 120.417 267.528C121.32 269.24 122.003 271.016 122.135 272.797L123.261 272.859L123.162 275.065L122.943 277.267C124.283 279.521 124.948 280.432 125.158 277.798C125.225 279.361 125.308 280.444 125.4 281.288C125.444 282.106 125.543 282.709 125.596 283.287C125.726 284.396 125.835 285.432 125.672 288.092L126.357 287.731C126.63 289.589 126.143 292.622 126.949 293.61C127.469 294.564 127.84 296.354 128.221 298.576C128.398 299.71 128.572 300.965 128.647 302.288C128.769 303.637 128.866 305.033 128.958 306.549C129.212 312.488 129.151 319.233 129.28 324.617C128.238 323.501 128.411 324.755 128.598 326.322C128.712 327.911 128.839 329.812 127.996 329.904C128.43 330.567 128.569 332.108 129.226 330.45C129.107 331.118 128.941 331.761 128.874 332.335C128.781 332.956 128.666 333.504 128.624 334.031C128.467 335.106 128.362 336.087 128.235 336.995C128.028 338.837 127.637 340.457 126.548 342.125C126.93 342.882 127.565 341.151 127.738 341.733C127.507 342.157 126.914 343.362 127.086 343.944C127.233 344.573 127.71 343.245 128.073 342.465C127.763 343.823 127.366 344.89 127.004 345.67C126.594 346.424 126.167 346.986 125.795 347.334C124.978 348.051 124.186 348.048 123.394 348.045C123.345 349.484 123.261 350.538 122.894 351.438C122.527 352.338 122.023 353.041 121.228 353.831C121.384 354.892 121.374 356.597 122.61 353.421C122.474 353.897 122.202 354.848 121.874 356.014C121.687 356.584 121.521 357.226 121.355 357.869C121.116 358.533 120.903 359.15 120.664 359.815C119.688 362.399 118.626 364.692 118.03 364.552C118.079 365.25 116.985 367.038 116.682 367.484C116.264 368.478 115.902 369.258 115.663 369.922C115.377 370.561 115.095 371.08 114.861 371.624C114.344 372.687 113.807 373.677 112.782 375.564L113.157 374.424C111.184 375.246 111.209 377.335 109.334 380.225L109.527 380.208C108.768 382.055 108.204 383.093 107.773 383.774C107.342 384.456 107.09 384.808 106.816 385.087C106.517 385.413 106.29 385.717 105.906 386.425C105.727 386.755 105.471 387.226 105.163 387.792C104.856 388.358 104.498 389.018 104.058 389.94L103.56 389.058C102.536 388.808 101.836 390.321 100.855 392.353C99.8989 394.337 98.6398 396.768 96.9553 398.296L97.5863 396.684C96.6241 397.444 95.9674 399.103 95.401 400.932C94.8602 402.715 94.3625 404.643 93.5377 405.6C93.2559 406.118 94.3677 405.196 94.9364 404.711C91.1947 410.251 93.5016 404.542 89.9101 407.782C89.7063 408.832 91.9148 408.138 89.6021 410.485C89.1923 411.239 87.0362 412.511 84.7521 414.019C83.5757 414.723 82.3481 415.522 81.2148 416.372C80.6717 416.81 80.1286 417.248 79.6583 417.664C79.1879 418.08 78.7647 418.522 78.3887 418.99C78.8538 418.021 79.3189 417.052 77.3381 418.114C76.6494 418.595 75.8584 419.264 75.1104 420.079C74.7128 420.474 74.3153 420.869 73.9177 421.264C73.5201 421.658 73.0754 422.028 72.6307 422.397C70.8989 423.899 69.1201 425.375 67.3645 425.46C67.0653 425.786 67.01 426 67.0059 426.12C65.7649 426.607 63.904 427.672 62.0297 428.425C60.1554 429.178 58.3794 429.862 57.5145 429.881C57.3363 430.884 56.2758 431.712 54.8339 432.456C53.3665 433.246 51.5178 433.952 49.6988 434.491C47.8797 435.03 46.155 435.62 44.914 436.106C43.673 436.592 42.9588 437.12 43.1998 437.801C41.9116 438.261 40.6706 438.748 39.3609 439.136L35.479 440.325L35.7834 440.551C33.327 441.477 31.5889 441.754 30.2403 441.876C28.8916 441.999 27.9579 441.919 26.9771 441.814C25.8816 442.257 26.7681 442.311 26.9311 442.461C23.2931 443.538 21.3029 444.167 19.3547 444.269C17.428 444.444 15.6038 444.431 12.3745 444.081L11.8366 445.071C11.3826 445.008 10.5135 445.147 9.30628 445.346C8.12058 445.618 6.60078 445.831 4.86268 446.108C3.99364 446.247 3.12458 446.385 2.16123 446.473C1.19789 446.56 0.260161 446.601 -0.677565 446.641C-2.62579 446.743 -4.61706 446.7 -6.45467 446.373C-6.38598 446.472 -6.24864 446.668 -5.65318 446.809C-9.83365 446.187 -14.8646 446.569 -19.254 446.444C-23.6435 446.32 -27.3443 445.714 -28.5509 443.777C-30.3332 443.236 -32.0602 442.481 -33.7185 441.825C-26.7749 443.092 -34.4065 440.169 -31.4559 440.244C-32.7627 439.84 -34.5357 439.732 -35.5933 439.768C-36.651 439.804 -36.9973 440.105 -35.3564 440.569L-34.7785 440.516C-33.9869 442.656 -43.4141 438.879 -43.5492 440.027C-50.2244 437.928 -56.6947 435.452 -62.9642 432.719C-64.5242 431.994 -66.037 431.294 -67.5969 430.569C-69.1312 429.797 -70.5928 429.003 -72.0544 428.209C-72.8088 427.799 -73.516 427.415 -74.2703 427.005C-74.9991 426.549 -75.6807 426.117 -76.4351 425.708C-77.8454 424.819 -79.2814 423.978 -80.6405 422.996C-79.9897 422.922 -79.2918 422.874 -78.6154 422.752C-79.8843 421.941 -81.102 421.035 -82.3924 420.151C-83.5537 419.704 -84.3581 420.061 -81.6614 421.953C-82.591 421.753 -83.616 420.83 -84.4012 419.915C-85.1864 419 -85.6334 418.025 -85.6037 417.858C-90.9325 414.292 -84.644 420.699 -86.1876 419.495L-88.2161 417.721L-87.6247 417.981C-88.29 417.07 -88.5822 416.484 -89.0886 415.843C-89.3418 415.522 -89.6421 415.176 -90.0839 414.752C-90.5001 414.282 -91.0362 413.808 -91.7824 413.158C-93.8231 411.744 -93.3115 412.938 -94.0833 412.336C-94.1345 412.43 -94.4389 412.204 -95.2497 411.336C-96.695 410.062 -98.0891 408.695 -99.5087 407.374L-97.0878 408.2C-98.5517 406.062 -100.97 404.443 -98.2187 405.449C-100.258 404.707 -104.067 400.929 -107.363 396.879C-108.242 395.913 -108.951 394.856 -109.71 393.894C-110.47 392.932 -111.135 392.021 -111.732 391.208C-112.899 389.536 -113.792 388.257 -114.26 387.881C-114.591 387.03 -114.995 386.2 -115.424 385.417C-115.828 384.587 -116.232 383.756 -116.662 382.974C-117.542 381.335 -118.663 379.688 -119.702 377.78C-118.986 378.597 -117.616 378.547 -119.548 375.36C-120.308 376.535 -121.415 375.201 -122.622 373.263C-123.756 371.304 -125.16 368.831 -126.541 367.776C-125.447 368.797 -126.466 366.29 -127.323 363.931C-128.179 361.573 -128.726 359.322 -127.225 361.053C-128.544 358.199 -128.167 361.214 -129.562 359.173C-129.795 358.253 -130.075 357.307 -130.307 356.387C-130.587 355.441 -130.842 354.448 -131.169 353.476C-131.496 352.505 -131.823 351.533 -132.197 350.536C-132.499 349.517 -132.873 348.52 -133.196 347.429C-133.545 346.384 -133.893 345.34 -134.216 344.248C-134.492 343.183 -134.815 342.091 -135.113 340.952C-135.733 338.722 -136.161 336.475 -136.417 334.137C-136.122 333.931 -135.332 335.398 -135.19 333.338C-136.027 331.845 -136.741 330.236 -137.506 328.721C-137.546 327.784 -137.123 327.342 -136.884 326.677C-136.645 326.013 -136.595 325.246 -137.283 323.59C-136.987 324.057 -136.481 324.698 -136.487 323.473C-138.031 314.513 -137.495 305.094 -136.174 295.918C-134.828 286.695 -132.72 277.642 -131.061 268.405C-131.245 270.992 -130.64 269.428 -130.026 267.624C-130.259 268.841 -129.242 267.867 -128.894 268.239C-128.376 265.711 -127.833 263.136 -127.242 260.587C-126.364 260.208 -125.507 258.292 -124.701 256.471C-124.308 255.523 -123.847 254.675 -123.442 254.04C-123.01 253.358 -122.613 252.964 -122.275 252.903L-123.569 254.948C-122.209 253.794 -122.04 255.168 -121.904 256.829C-121.721 258.516 -121.692 260.486 -120.737 260.639C-121.455 261.287 -121.942 262.183 -122.266 263.228C-122.615 264.321 -122.754 265.589 -123.013 266.853C-123.225 268.142 -123.582 269.475 -123.94 270.808C-124.344 272.114 -124.989 273.413 -125.942 274.606C-125.987 275.925 -125.048 273.747 -124.858 274.522C-126.073 275.634 -126.682 277.318 -127.199 280.518L-126.926 280.239C-127.087 280.762 -127.249 281.285 -127.411 281.808C-127.573 282.33 -127.662 282.832 -127.751 283.333C-127.976 284.31 -128.176 285.239 -128.35 286.122C-128.745 287.861 -128.922 289.536 -129.052 291.237C-129.229 292.912 -129.432 294.634 -129.45 296.578C-129.541 298.544 -129.709 300.651 -129.747 303.195L-130.583 302.374C-130.61 304.559 -130.386 305.046 -130.205 306.061C-131.704 308.484 -129.804 299.928 -131.487 302.128C-131.105 302.885 -130.983 304.234 -130.942 305.844C-130.9 307.454 -130.893 309.351 -130.932 311.223C-131.019 313.069 -130.866 314.923 -130.701 316.417C-130.536 317.912 -130.238 319.05 -129.629 319.503C-129.358 322.826 -130.727 318.602 -130.456 321.925L-129.812 322.763L-130.491 323.676C-130.361 324.785 -130.051 325.564 -129.734 326.103C-129.416 326.642 -129.064 326.894 -128.825 326.902C-128.975 326.393 -128.87 325.412 -128.922 324.834C-128.44 326.195 -128.244 328.194 -128.16 329.95C-128.076 331.706 -127.889 333.273 -127.76 333.71C-128.061 332.691 -128.337 331.625 -128.638 330.606C-128.403 332.871 -128.052 335.26 -127.607 337.701C-127.089 340.119 -126.597 342.585 -125.912 345.034C-125.593 346.245 -125.274 347.457 -124.955 348.668C-124.563 349.858 -124.244 351.069 -123.9 352.233C-123.283 354.583 -122.543 356.818 -122.042 359.044L-122.698 358.565C-122.487 359.413 -122.319 360.115 -122.1 360.722C-121.88 361.33 -121.704 361.792 -121.527 362.255C-121.149 363.132 -120.81 363.744 -120.423 364.381C-120.037 365.018 -119.723 365.677 -119.225 366.559C-118.727 367.44 -118.142 368.612 -117.386 370.367L-117.425 370.101C-117.165 371.647 -116.387 373.474 -115.343 375.262C-115.83 373.349 -112.791 377.87 -113.502 375.469C-113.17 376.32 -112.882 377.026 -112.612 377.54C-112.367 378.1 -112.165 378.515 -112.01 378.905C-111.722 379.611 -111.614 379.975 -111.553 380.313C-111.493 380.651 -111.501 380.891 -111.47 381.396C-111.439 381.902 -111.297 382.651 -110.931 383.888L-109.701 384.434C-109.49 385.281 -109.412 385.812 -109.171 386.493C-108.93 387.173 -108.504 388.076 -107.405 389.65C-108.798 386.817 -105.095 390.905 -106.548 387.734C-105.081 389.08 -103.948 390.367 -103.077 391.573C-102.206 392.779 -101.45 393.862 -100.789 394.892C-99.5136 396.929 -98.3635 398.408 -96.3414 398.957C-95.8327 400.943 -97.1406 399.866 -98.4875 398.524C-99.86 397.229 -101.049 395.484 -100.577 396.412C-101.378 395.977 -101.141 396.777 -100.531 397.903C-99.8484 399.006 -98.7454 400.46 -97.8362 401.259C-96.9783 402.153 -95.7914 402.553 -94.2274 403.158C-93.4689 403.448 -92.6203 403.909 -91.7029 404.469C-91.2571 404.772 -90.7641 405.101 -90.2495 405.502C-89.735 405.904 -89.1733 406.331 -88.5901 406.831C-89.0574 406.455 -88.9806 406.314 -89.4695 405.865C-88.4323 406.428 -87.6942 407.318 -86.8619 408.258C-86.4457 408.729 -86.0039 409.152 -85.515 409.6C-85.0005 410.002 -84.4132 410.382 -83.7019 410.646C-83.1676 412.585 -80.7776 412.906 -81.2846 414.402L-85.5948 410.534C-84.458 411.701 -83.5221 413.126 -82.2992 414.584C-81.0763 416.042 -79.3953 417.443 -76.9651 418.702C-77.1159 418.193 -78.2014 416.932 -78.9907 416.136C-77.4482 416.669 -76.6834 418.183 -75.0681 418.694C-74.851 417.957 -76.2316 416.902 -77.9167 415.62C-78.7829 414.967 -79.6961 414.288 -80.5366 413.587C-81.3515 412.839 -82.0936 412.069 -82.5959 411.308C-81.7647 411.576 -80.6792 412.838 -79.7229 413.662C-78.8393 414.509 -78.1833 414.987 -78.408 413.827C-78.0285 415.377 -76.7124 416.213 -75.2078 417.153C-73.6519 417.998 -71.929 418.873 -70.5513 420.72L-70.3044 419.816C-69.8411 420.312 -68.8202 421.355 -67.7614 421.991L-69.1053 419.857C-66.6473 422.413 -63.046 422.415 -60.3493 424.307C-63.3708 422.788 -63.8504 422.772 -63.8883 423.179C-63.9733 423.56 -63.6595 424.219 -65.0606 423.763C-58.0508 428.731 -59.7416 424.088 -51.3842 428.26C-52.5158 427.646 -55.9686 426.809 -54.3051 428.017C-53.4267 428.311 -52.4541 428.656 -51.4989 428.809C-50.5693 429.008 -49.6613 429.135 -49.0833 429.083C-43.3795 431.509 -50.2771 429.594 -48.0222 431.063C-45.663 430.879 -45.262 432.502 -42.7591 433.739L-42.4652 432.86C-41.6083 433.081 -40.9186 433.273 -40.3959 433.435C-39.8732 433.596 -39.4704 433.754 -39.2347 433.882C-38.6689 434.189 -38.51 434.459 -38.4238 434.75C-38.1788 435.311 -38.0025 435.773 -34.7556 436.315L-37.067 434.388C-36.0001 434.784 -34.9588 435.227 -33.9134 435.551L-34.3307 434.408C-32.6764 435.185 -31.4895 435.585 -30.3458 435.84C-29.202 436.095 -28.007 436.255 -26.2596 436.41C-27.188 436.883 -26.0769 438.097 -22.9285 438.708C-20.6892 438.52 -23.975 437.712 -19.5332 438.415C-20.0262 438.086 -20.4936 437.71 -21.1106 437.497C-21.7276 437.284 -22.4942 437.234 -23.5087 437.416C-23.642 437.099 -24.3964 436.69 -24.5768 436.347C-22.2433 436.21 -18.8375 437.022 -17.1885 437.246C-17.8352 437.2 -18.5547 437.175 -18.9656 437.258C-17.9202 437.581 -16.9004 437.952 -15.7822 438.254L-12.5948 439.13C-11.529 438.854 -12.3346 438.538 -13.1402 438.223C-11.8253 438.388 -10.9551 438.921 -9.01502 439.059C-9.47019 438.323 -9.32583 437.608 -12.0202 437.06C-10.0197 437.536 -7.96375 437.798 -5.93347 438.107C-5.51436 437.785 -2.78325 437.253 -3.56731 437.01C-1.90197 436.754 0.175471 437.089 2.42403 437.333C4.65106 437.505 7.04513 437.706 9.29663 437.158C9.53237 437.286 10.0335 437.375 10.9713 437.334C12.033 437.178 13.026 436.924 14.0406 436.742C15.0336 436.487 16.0266 436.233 17.0668 436.004C18.107 435.775 19.1216 435.593 20.2561 435.415C21.3905 435.238 22.5465 435.133 23.844 435.105C24.6822 434.461 25.4948 433.864 26.3115 433.147C30.2027 432.39 22.9802 435.796 29.457 434.55C34.1189 433.724 30.829 433.036 32.322 432.198C33.4996 432.166 35.1568 432.15 37.0148 431.877C38.8256 431.578 40.8199 430.829 42.6377 429.618C40.8822 429.702 39.9496 430.295 38.64 430.683ZM80.5806 406.074C80.1399 406.323 79.5282 406.662 78.9635 407.027C78.3989 407.392 77.8814 407.783 77.7708 408.212C78.5374 408.262 78.9524 408.059 79.3972 407.69C79.7691 407.343 80.0765 406.777 80.5806 406.074ZM120.354 343.524C119.901 344.133 119.719 345.255 119.747 346.553C120.062 345.747 120.313 344.723 120.354 343.524ZM18.0358 180.165C18.0829 180.191 18.0829 180.191 18.1301 180.217C20.4339 180.246 19.6417 180.244 18.0358 180.165ZM13.3634 179.887C12.9135 179.704 12.9647 179.609 13.1614 179.472C13.4402 179.746 14.5154 179.902 15.6888 179.99C15.325 180.098 14.6958 180.244 13.3634 179.887ZM-94.1787 411.612L-93.3301 412.073C-94.7416 410.513 -94.4238 411.052 -94.1787 411.612Z" fill="white"/>
<path d="M116.796 351.423C116.882 351.714 116.998 351.838 117.114 351.962C116.887 352.266 116.72 352.236 116.796 351.423Z" fill="white"/>
<path d="M74.5369 213.845C75.3128 214.328 75.8355 214.489 76.2168 214.574C76.1143 214.763 75.6603 214.699 74.5369 213.845Z" fill="white"/>
<path d="M7.47387 178.703C6.48492 178.838 6.93258 177.676 6.34642 177.969C5.83596 177.447 7.50243 177.864 8.54375 178.307C9.08798 178.542 9.51231 178.772 9.41394 178.841C9.36271 178.935 8.83591 178.893 7.47387 178.703Z" fill="white"/>
<path d="M0.563534 182.095L-2.7078 182.272C-2.67811 182.105 -3.05936 182.02 -3.56053 181.931C-1.56921 181.974 0.644449 181.833 0.563534 182.095Z" fill="white"/>
<path d="M35.2294 187.854L38.5205 189.214C38.7696 189.655 37.7417 189.524 36.5589 189.004C35.8301 188.547 34.6002 188.001 35.2294 187.854Z" fill="white"/>
<path d="M24.22 187.554C25.1793 187.586 25.2817 187.397 25.8894 187.178L25.7543 188.326L24.22 187.554Z" fill="white"/>
<path d="M33.9874 190.478C34.2365 190.919 38.5135 192.936 34.336 191.522C34.1125 191.034 30.8431 189.747 33.9874 190.478Z" fill="white"/>
<path d="M80.7697 214.849L80.0706 214.225L81.4385 212.831L80.7697 214.849Z" fill="white"/>
<path d="M105.937 253.495C103.576 250.198 106.538 252.051 104.212 249.139C104.129 248.055 106.101 251.508 105.919 250.493C106.75 252.898 107.629 253.865 105.937 253.495Z" fill="white"/>
<path d="M105.991 250.471C105.884 250.107 105.754 249.67 105.625 249.234C105.866 249.914 105.927 250.252 105.991 250.471Z" fill="white"/>
<path d="M84.0765 399.3L84.4107 399.36C84.3687 399.887 83.9455 400.328 83.1463 401.238L84.0765 399.3Z" fill="white"/>
</g>
<g opacity="0.3">
<path d="M418.559 49.3828L418.077 48.7278C418.295 49.0164 418.438 49.2191 418.559 49.3828Z" fill="white"/>
<path d="M422.865 53.4296L422.83 53.6836C422.703 53.4192 422.675 53.2799 422.865 53.4296Z" fill="white"/>
<path d="M526.332 55.4834C525.658 56.6503 525.01 58.0872 524.81 57.6064L524.782 56.9744C525.506 56.4784 525.969 55.9779 526.332 55.4834Z" fill="white"/>
<path d="M466.792 74.14C466.901 74.1033 467.04 74.0749 467.157 74.0075C467.439 74.1817 467.721 74.3559 467.98 74.4912C467.612 74.3926 467.214 74.2858 466.792 74.14Z" fill="white"/>
<path d="M466.065 72.072L464.475 72.2377C464.823 72.1666 465.333 72.1059 466.065 72.072Z" fill="white"/>
<path d="M402.073 21.9576C402.102 21.6038 402.161 21.2583 402.221 20.9127C402.698 22.3224 402.253 21.7758 402.073 21.9576Z" fill="white"/>
<path d="M550.731 6.86859C550.759 7.99345 550.721 8.87077 550.646 9.63965C550.554 8.26724 550.287 7.17685 550.731 6.86859Z" fill="white"/>
<path d="M416.635 54.7182C416.327 54.274 416.223 54.0489 416.309 53.9734C416.648 54.4258 416.797 54.7286 416.635 54.7182Z" fill="white"/>
<path d="M550.101 12.7798C550.089 12.5794 550.108 12.3872 550.096 12.1867C550.301 11.42 550.545 10.6309 550.677 9.64737C550.738 10.6496 550.603 11.764 550.101 12.7798Z" fill="white"/>
<path d="M545.215 19.8525C545.206 19.8833 545.206 19.8833 545.198 19.9141C545.194 19.6821 545.186 19.7129 545.215 19.8525Z" fill="white"/>
<path d="M506.601 63.4743C506.64 63.4518 506.671 63.46 506.701 63.4683C506.662 63.4908 506.623 63.5133 506.615 63.5441L506.601 63.4743Z" fill="white"/>
<path d="M503.96 64.3776C505.269 64.3997 505.883 64.0712 506.593 63.5057C506.545 64.0516 506.489 64.6283 506.411 65.166C505.583 64.9441 504.771 64.6609 503.96 64.3776Z" fill="white"/>
<path d="M409.763 38.2829L411.212 39.6242C410.488 37.2939 409.369 36.0736 410.875 37.2003C410.609 37.4577 410.7 37.9752 411.02 38.6198C411.341 39.2644 411.821 40.0504 412.37 40.8221C412.919 41.5938 413.446 42.3266 413.797 42.9794C414.157 43.6016 414.318 44.1049 414.074 44.4011L415.116 45.1734C414.859 44.9072 414.922 44.7928 414.665 44.5266C416.782 45.9485 415.014 46.658 417.341 48.8922C418.2 49.6152 418.917 50.0046 418.505 49.3354L420.004 51.3476C420.535 51.8186 420.587 51.5037 420.055 51.0327C420.926 51.9561 421.882 52.804 422.761 53.6968L422.777 53.6354C423.022 54.1941 423.767 55.2155 424.121 55.7375C425.022 56.1762 423.843 55.3015 424.166 55.3224C424.65 55.8465 425.087 56.4238 425.571 56.9479C426.04 57.0405 425.983 56.7623 425.666 56.3488C425.358 55.9046 424.782 55.3558 424.211 54.9072C425.451 54.9436 425.723 55.2793 426.152 55.8872C426.627 56.4421 427.261 57.2691 429.234 58.1264C428.725 57.6942 428.255 57.2396 427.746 56.8075C428.531 56.8207 429.134 57.1467 429.852 57.5361C430.578 57.8949 431.401 58.3786 432.45 58.7582C431.904 58.7105 428.013 57.405 429.697 58.9736C430.286 59.23 431.026 59.6584 431.896 60.5818C432.181 60.1322 433.139 60.8492 434.435 61.6566L434.716 60.9759C435.339 61.4716 435.619 61.7767 435.777 62.0489C435.964 62.3293 436.06 62.5851 436.393 62.9373C438.021 63.7348 438.596 63.4288 439.193 63.1616C441.855 64.2693 437.007 63.1016 440.038 64.6699C440.613 64.8568 441.118 65.0578 441.615 65.2895C442.12 65.4906 442.586 65.7141 443.074 65.9765C444.06 66.4706 445.043 67.0955 446.349 67.7414C448.038 68.0625 446.219 67.2463 446.843 67.2491L448.081 68.2712C448.449 68.3698 448.368 68.1836 448.331 68.0752C449.453 68.6717 448.203 68.7969 450.07 69.56C450.217 69.9938 451.286 70.0504 452.587 70.1031C453.896 70.1252 455.404 70.2661 456.51 70.924C457.158 70.8348 456.31 70.4431 456.537 70.2082C458.122 70.7972 458.841 71.0557 459.438 71.2815C460.066 71.5154 460.602 71.7246 461.955 72.3174C462.757 72.2693 463.559 72.2212 464.377 72.1118C462.568 72.4817 464.742 73.327 466.694 74.0146C466.052 74.204 465.471 74.4098 465.123 74.481C466.182 74.6991 467.242 74.9172 468.317 75.0739C468.704 74.9803 468.385 74.6977 467.874 74.3965C468.089 74.454 468.295 74.5422 468.449 74.5833C469.593 74.3638 469.022 73.9152 468.213 73.5011C467.818 73.6254 467.415 73.7803 467.051 73.9128C466.296 73.4149 465.62 72.8721 465.796 72.4592C466.003 72.5474 466.371 72.646 466.808 72.7304C466.618 72.5809 466.481 72.4784 466.598 72.4111C466.715 72.3438 467.019 72.5568 467.533 72.7272L468.262 71.9694L468.411 72.2723L470.462 72.0989C471.133 72.0486 471.821 71.937 472.5 71.856C473.236 72.0533 473.933 72.273 474.67 72.4703C475.406 72.6675 476.15 72.8341 476.964 72.9864C477.371 73.0626 477.778 73.1388 478.215 73.2232C478.661 73.2769 479.107 73.3306 479.592 73.3619C480.561 73.4245 481.631 73.481 482.781 73.3618C481.54 72.9635 482.395 72.4697 482.245 71.8048C481.659 72.2724 480.773 72.2652 479.695 72.2393C479.172 72.2304 478.618 72.2134 478.033 72.1881C477.448 72.1628 476.854 72.1683 476.275 72.2432C477.534 72.0873 477.223 71.774 476.886 71.6836C478.323 71.8388 479.733 71.8548 481.195 71.918C481.108 71.6316 481.333 71.5276 481.697 71.3951C482.053 71.2933 482.579 71.1712 483.099 70.949C482.764 71.5825 483.572 71.6347 484.722 71.5154C484.992 71.4892 485.293 71.4711 485.602 71.4225C485.911 71.3738 486.22 71.3251 486.528 71.2764C487.146 71.179 487.725 71.104 488.157 71.0882C488.194 70.7038 487.683 70.4025 485.633 70.9378C486.699 70.2704 487.474 70.4452 488.311 70.6364C489.117 70.8194 489.93 70.9718 490.958 70.3268C490.463 70.4571 490.199 70.5835 489.939 70.4482C490.563 70.4511 491.584 70.1987 492.343 69.942C493.111 69.6546 493.594 69.3239 493.209 69.2866L492.706 69.4475C493.512 69.1377 494.55 68.824 495.634 68.4573C496.719 68.0905 497.881 67.6788 498.957 67.3427C500.034 67.0066 501.018 66.6459 501.814 66.4976C502.587 66.3104 503.188 66.2743 503.379 66.4238C503.35 66.2847 502.484 65.5924 502.216 65.4878C504.494 65.5724 506.842 65.6428 509.209 65.521C508.346 65.0598 509.231 62.3716 506.503 63.3498C506.831 63.1089 507.206 62.8149 507.703 62.5537C508.209 62.2619 508.806 61.9947 509.621 61.6542C509.221 62.0403 509.021 63.4 509.705 63.0573C510.383 62.1215 510.627 61.8252 510.94 61.5148C511.253 61.2043 511.628 60.9103 512.501 59.8622C511.905 60.4914 513.375 61.0167 514.474 60.2267C514.19 60.1833 513.845 59.1379 513.381 59.2764L515.098 58.8817C515.662 58.7372 516.235 58.5621 516.808 58.3869C516.002 58.6968 516.058 57.6272 516.448 56.9099C516.39 57.1245 516.937 56.6794 517.639 56.1444C518.311 55.6013 519.054 54.913 519.443 54.6885L518.554 55.7979C519.916 54.5194 520.928 54.2977 521.896 53.9983C522.391 53.868 522.895 53.7071 523.423 53.4541C523.959 53.1705 524.581 52.8114 525.224 52.1291C524.729 52.2594 523.351 51.7587 524.553 50.3388C525.071 50.2474 526.313 50.1528 527.745 49.7149C529.147 49.2688 530.837 48.6042 532.082 47.393L532.218 46.6405C532.867 46.0585 533.547 45.4847 534.182 44.8331C533.32 45.2267 531.752 45.9242 530.16 46.7136C529.39 47.1319 528.537 47.4949 527.784 47.8519C527.031 48.2088 526.339 48.5822 525.803 48.8658C526.524 47.6458 525.758 48.2952 527.155 46.7631C527.391 46.0046 526.007 47.2443 525.591 47.6917C526.613 46.4536 527.627 45.2462 528.566 43.9528C528.776 44.2721 529.525 43.684 530.244 43.0878C530.94 42.4526 531.606 41.8092 531.802 42.0589C530.571 43.3397 529.211 44.4874 527.936 45.6904C528.146 46.0097 529.028 45.7858 530.133 45.0959C530.686 44.751 531.294 44.3223 531.873 43.7545C532.453 43.1866 533.018 42.5493 533.508 41.8259C533.777 40.9448 532.025 41.5929 531.89 41.3596C532.116 41.2556 532.726 40.696 533.222 40.0729C533.717 39.4497 534.152 38.8101 534.17 38.6179L533.022 39.592C533.422 38.7131 534.077 38.2313 534.695 37.641C535.313 37.0507 535.864 36.3438 536.138 35.2009C536.298 34.8494 536.431 34.2278 536.51 33.6901C536.588 33.1523 536.673 32.7147 536.918 32.7805C537.07 34.3002 539.246 35.8695 540.233 35.3778C540.274 35.2245 540.623 34.1676 540.927 33.0329C541.114 32.4585 541.239 31.8676 541.348 31.3381C541.457 30.8085 541.511 30.3627 541.507 30.1316C541.478 28.6448 539.2 31.2556 539.183 29.9692C539.398 30.0268 539.908 29.4732 540.135 29.2383C540.327 28.402 539.403 29.2721 540.254 27.6923C541.07 27.7138 541.606 24.2418 541.187 27.1535C541.624 26.3831 541.786 25.9006 541.917 25.41C542.049 24.9193 542.197 24.3673 542.56 23.38C542.684 23.7748 543.22 23.4912 543.847 22.8703C544.474 22.2493 545.182 21.3218 545.543 20.4653C545.335 20.508 545.196 20.0436 545.153 19.8349C545.392 18.9456 545.605 18.1483 545.772 17.404C545.908 16.6516 546.027 15.9605 546.147 15.2694C546.266 14.5783 546.386 13.8872 546.505 13.1961C546.602 12.4661 546.738 11.7137 546.898 10.8692C546.796 10.5133 546.847 8.85063 546.413 9.49022C546.606 9.01599 546.944 8.61353 547.092 7.56867C546.704 5.45966 546.668 9.8873 546.095 8.22185C546.544 8.1447 547.125 5.60537 547.458 4.11694C547.755 4.36068 547.778 5.25443 547.546 6.24398C547.314 7.23353 546.956 8.32109 546.729 9.04887C547.197 9.14148 547.754 8.53478 548.326 7.50475C548.596 6.98563 548.908 6.31317 549.136 5.58539C549.372 4.82695 549.594 3.99894 549.771 3.09317C550.026 1.64964 549.824 1.29968 549.693 1.29747C549.532 1.28704 549.327 1.56084 549.431 1.29306C549.439 -0.0853403 549.563 -1.03821 549.707 -1.82132C549.843 -2.57375 549.999 -3.15642 550.169 -3.66953C550.348 -4.21331 550.479 -4.70398 550.56 -5.37263C550.641 -6.04128 550.531 -6.85947 550.303 -7.9723C549.593 -9.74017 549.117 -7.96151 548.661 -8.34655C548.611 -7.17681 548.796 -6.27264 548.936 -5.44624C549.084 -4.6505 549.219 -3.92432 549.236 -3.13079L548.907 -5.09246C548.701 -4.3258 548.583 -2.77984 548.776 -1.90633C548.644 -2.27053 548.557 -3.04983 548.488 -4.02134C548.458 -4.52244 548.445 -5.08487 548.4 -5.65552C548.364 -6.25683 548.306 -6.89701 548.247 -7.53721C548.188 -8.1774 548.177 -8.87072 548.096 -9.54979C548.015 -10.2289 547.926 -10.8773 547.845 -11.5564C547.674 -12.8839 547.41 -14.1051 547.118 -15.1035C547.193 -15.8724 547.176 -17.1588 547.521 -16.6062L547.661 -15.2869C548.343 -14.151 547.897 -17.8859 548.408 -16.2369C548.454 -17.1449 548.425 -18.1389 548.342 -19.18C548.29 -19.7199 548.237 -20.2599 548.123 -20.8163C547.979 -21.381 547.803 -21.9538 547.606 -22.5656L546.825 -22.8406C547.025 -22.8526 547.639 -21.3405 547.634 -20.5858C547.651 -21.1401 547.165 -22.0262 546.78 -22.9183C546.571 -23.3685 546.402 -23.8412 546.286 -24.2667C546.17 -24.6922 546.146 -25.0931 546.267 -25.4222C546.59 -24.9085 546.943 -24.3865 547.227 -23.8504C547.181 -24.783 547.067 -25.8323 546.962 -26.9122C546.879 -27.4604 546.796 -28.0086 546.651 -28.5733C546.498 -29.1072 546.315 -29.6494 546.062 -30.1774C547.043 -29.4215 546.184 -29.6516 547.487 -28.382C546.118 -29.4063 549.312 -22.7986 547.641 -24.6597C548.315 -23.986 548.566 -23.3272 548.853 -22.5599C549.149 -21.8233 549.428 -21.0254 550.012 -20.0143C549.789 -20.0412 549.43 -20.6634 549.954 -18.8139C549.898 -18.7301 549.871 -18.5073 549.83 -18.3539C549.845 -18.2844 549.845 -18.2844 549.867 -18.2455C549.845 -18.2844 549.853 -18.315 549.83 -18.3539C549.806 -18.2619 549.806 -18.2619 549.808 -18.3928C549.622 -18.8041 549.42 -19.1541 549.261 -19.2954C549.09 -18.7823 549.212 -17.7636 549.311 -16.7839C549.371 -15.7817 549.493 -14.7631 549.423 -14.256C549.72 -13.1574 549.593 -14.7691 549.93 -14.1858C549.89 -13.6705 549.812 -13.1328 549.742 -12.6257C550.249 -12.5555 550.902 -9.71809 550.901 -12.4136L551.208 -9.9979C551.623 -8.60465 551.852 -6.63695 551.685 -5.39985C551.804 -4.25035 551.166 -2.48213 551.538 -3.50014C551.496 -2.85393 551.463 -2.23839 551.39 -1.6004L551.181 0.282908L551.304 0.315783C551.327 2.19527 550.878 4.11303 550.614 6.08011C550.25 8.05319 550.008 10.0592 550.01 12.2617C549.815 12.8669 549.651 13.4802 549.453 14.2162C549.226 14.944 549.043 15.7495 548.855 16.8168L549.178 17.3306C548.933 18.1197 548.683 19.3014 548.426 20.383C548.169 21.4645 547.945 22.4234 547.578 22.6868C547.709 23.1819 547.612 23.9119 547.412 24.7787C547.297 25.2081 547.174 25.6681 547.012 26.1505C546.85 26.633 546.626 27.099 546.425 27.6039C546.001 28.5748 545.568 29.5763 545.09 30.5001C544.621 31.3933 544.229 32.2415 543.956 32.8915L543.404 32.7436L543.092 33.416L542.728 34.0414C542.482 34.4685 542.236 34.8956 541.951 35.3452C541.674 35.7641 541.389 36.2137 541.096 36.6939C540.781 37.1353 540.426 37.5991 540.095 38.1018L539.739 37.7107C539.032 38.5074 538.45 39.699 537.704 41.011C537.331 41.667 536.981 42.3619 536.56 43.0711C536.148 43.7495 535.667 44.4422 535.163 45.0961C535.441 45.0391 535.9 44.3076 536.171 43.7884C535.816 44.7451 535.285 45.6218 534.64 46.435C533.995 47.2481 533.243 47.9671 532.492 48.686C531.771 49.4132 530.974 50.0543 530.292 50.7591C529.61 51.4638 528.99 52.1849 528.492 52.9389C527.728 53.4575 527.335 53.9437 526.964 54.4688C527.011 54.4157 527.089 54.3708 527.136 54.3177C527.081 54.4015 526.995 54.4771 526.87 54.5751C526.649 54.9102 526.419 55.276 526.159 55.6336C526.35 55.2902 526.563 54.9858 526.729 54.7344C526.235 55.2267 525.408 55.8596 524.559 56.4537L524.601 57.1552C524.523 57.2001 524.476 57.2532 524.429 57.3064C523.814 58.1277 523.676 57.6633 523.787 57.0029C523.351 57.2805 522.901 57.4885 522.567 57.6292C522.542 58.2141 521.981 58.5897 521.381 58.9877C521.101 59.1755 520.781 59.3858 520.546 59.6514C520.288 59.878 520.083 60.1518 520.023 60.4974C519.622 60.5214 518.548 61.2195 517.42 61.8705C516.278 62.4519 515.152 62.972 514.655 62.7403C514.692 62.8488 514.465 63.0837 514.94 62.7836C514.08 63.5392 513.152 64.1782 512.146 64.5001L512.266 65.1567L510.983 65.4046L509.686 65.583C508.574 66.6655 508.142 67.1742 509.686 66.9307C508.796 67.1852 508.184 67.3829 507.712 67.552C507.247 67.6905 506.914 67.8312 506.588 67.9412C505.968 68.1695 505.387 68.3753 503.834 68.6495L504.136 68.9935C503.105 69.4073 501.293 69.5462 500.836 70.1469C500.359 70.5778 499.38 71.0388 498.155 71.5649C497.526 71.8238 496.829 72.097 496.078 72.3231C495.318 72.5798 494.529 72.8283 493.669 73.0911C490.287 74.0583 486.397 74.9554 483.318 75.7737C483.816 75.0196 483.118 75.2928 482.242 75.6169C481.344 75.9021 480.268 76.2382 480.099 75.7656C479.777 76.1067 478.909 76.4001 479.954 76.5487C479.553 76.5727 479.161 76.5661 478.821 76.6066C478.451 76.6388 478.12 76.6486 477.811 76.6973C477.17 76.7558 476.591 76.8308 476.051 76.8833C474.963 77.019 473.977 77.0177 472.867 76.6216C472.484 76.9463 473.568 77.0724 473.257 77.252C472.981 77.178 472.206 77.0032 471.895 77.1828C471.553 77.3542 472.383 77.4452 472.882 77.546C472.058 77.5552 471.389 77.4747 470.89 77.3738C470.399 77.2423 470.017 77.0742 469.766 76.9082C469.24 76.5374 469.132 76.0812 469.024 75.625C468.19 75.7957 467.572 75.8931 467.003 75.8065C466.435 75.7199 465.96 75.5271 465.396 75.1787C464.807 75.4152 463.825 75.6451 465.823 75.9175C465.53 75.9049 464.946 75.8796 464.23 75.8521C463.876 75.8231 463.483 75.8164 463.09 75.8098C462.675 75.7643 462.291 75.727 461.875 75.6815C460.254 75.477 458.787 75.1827 458.786 74.8207C458.391 74.945 457.211 74.5631 456.913 74.4503C456.283 74.3472 455.784 74.2464 455.368 74.2009C454.962 74.1247 454.624 74.0343 454.279 73.9746C453.595 73.8244 452.951 73.6518 451.724 73.3231L452.432 73.3812C451.687 72.3598 450.488 72.663 448.566 71.9837L448.602 72.0921C447.435 71.9107 446.76 71.7299 446.308 71.5759C445.856 71.422 445.619 71.3256 445.421 71.2067C445.192 71.0796 444.985 70.9914 444.525 70.8681C444.31 70.8106 444.004 70.7284 443.636 70.6298C443.268 70.5312 442.838 70.4161 442.247 70.2906L442.685 69.8821C442.688 69.2584 441.721 69.0649 440.416 68.7811C439.142 68.5055 437.57 68.117 436.458 67.3589L437.472 67.4992C436.902 67.0506 435.857 66.9021 434.726 66.8291C433.625 66.7643 432.447 66.7445 431.783 66.4021C431.445 66.3117 432.13 66.8238 432.488 67.084C428.783 65.6969 432.387 66.2351 430.026 64.6166C429.394 64.6444 430.098 65.8192 428.428 64.8129C427.937 64.6814 426.908 63.6167 425.725 62.5108C425.157 61.9314 424.527 61.3355 423.882 60.8009C423.555 60.5489 423.228 60.297 422.923 60.0839C422.618 59.8708 422.306 59.6884 421.985 59.5367C422.606 59.6704 423.228 59.8041 422.344 58.8111C421.972 58.4814 421.477 58.1188 420.905 57.8011C420.623 57.6269 420.341 57.4527 420.058 57.2785C419.776 57.1043 419.503 56.8995 419.229 56.6946C418.125 55.9059 417.03 55.0864 416.738 54.0881C416.509 53.961 416.378 53.9588 416.309 53.973C415.858 53.3262 414.987 52.4027 414.295 51.4284C413.603 50.4541 412.963 49.5268 412.833 49.0318C412.232 49.0678 411.608 48.5721 410.981 47.8453C410.323 47.1103 409.662 46.1442 409.1 45.172C408.539 44.1999 407.961 43.2891 407.51 42.6423C407.059 41.9955 406.656 41.6575 406.298 41.8902C405.855 41.2127 405.403 40.5659 404.999 39.866L403.778 37.7968L403.69 38.0033C402.818 36.7179 402.418 35.7562 402.162 34.9971C401.905 34.238 401.822 33.6898 401.747 33.111C401.34 32.5419 401.432 33.0595 401.368 33.1739C400.245 31.2296 399.608 30.1715 399.28 29.0647C398.913 27.9803 398.669 26.9288 398.424 25.0225L397.78 24.8499C397.753 24.5799 397.553 24.099 397.272 23.432C396.951 22.7874 396.619 21.9423 396.219 20.9806C396.019 20.4998 395.819 20.0189 395.636 19.4767C395.452 18.9345 395.3 18.4006 395.147 17.8666C394.819 16.7598 394.569 15.6081 394.502 14.5057C394.455 14.5588 394.361 14.665 394.363 15.027C394.143 12.5358 393.227 9.69397 392.692 7.15121C392.157 4.60846 391.994 2.39544 392.942 1.43338C393.007 0.333182 393.203 -0.764804 393.351 -1.80968C393.581 2.36061 394.209 -2.43442 394.573 -0.72629C394.625 -1.53405 394.442 -2.5691 394.275 -3.17262C394.108 -3.77614 393.887 -3.93388 393.847 -2.92569L393.957 -2.60039C392.836 -1.84918 393.706 -7.7953 393.026 -7.71434C393.311 -11.8451 393.842 -15.9102 394.548 -19.8952C394.75 -20.893 394.943 -21.8601 395.145 -22.8579C395.377 -23.8474 395.632 -24.7981 395.886 -25.7487C396.018 -26.2394 396.141 -26.6994 396.272 -27.1901C396.435 -27.6725 396.589 -28.1243 396.72 -28.615C397.036 -29.5492 397.321 -30.4916 397.699 -31.4094C397.831 -31.0452 397.956 -30.6504 398.119 -30.2779C398.41 -31.1202 398.763 -31.946 399.093 -32.8106C399.19 -33.5406 398.874 -33.9541 398.158 -32.141C398.144 -32.7034 398.534 -33.4208 398.952 -33.999C399.37 -34.5773 399.869 -34.9693 399.969 -34.9753C401.285 -38.5342 398.467 -34.0303 398.947 -35.085L399.687 -36.4972L399.619 -36.121C400.051 -36.6297 400.348 -36.8788 400.647 -37.2589C400.797 -37.4489 400.954 -37.6696 401.137 -37.9822C401.35 -38.2867 401.549 -38.6607 401.819 -39.1798C402.351 -40.5494 401.734 -40.09 401.974 -40.6174C401.913 -40.6338 402.001 -40.8402 402.388 -41.4267C402.921 -42.4343 403.516 -43.4254 404.079 -44.4248L403.939 -42.9177C404.967 -44.0556 405.564 -45.6705 405.365 -43.9487C405.51 -45.2247 407.158 -47.9386 409.032 -50.3945C409.467 -51.034 409.976 -51.5876 410.425 -52.1577C410.874 -52.7277 411.306 -53.2364 411.691 -53.692C412.492 -54.5949 413.104 -55.2854 413.256 -55.6063C413.7 -55.9146 414.122 -56.2617 414.513 -56.6171C414.935 -56.9642 415.357 -57.3114 415.748 -57.6667C416.569 -58.3999 417.361 -59.2722 418.315 -60.134C417.945 -59.6089 418.163 -58.8274 419.729 -60.3797C418.948 -60.6547 419.563 -61.4761 420.511 -62.4382C421.481 -63.3614 422.71 -64.5112 423.126 -65.4515C422.69 -64.681 423.992 -65.614 425.23 -66.4326C426.469 -67.2511 427.689 -67.8774 426.9 -66.774C428.359 -67.9277 426.677 -67.2938 427.658 -68.3785C428.156 -68.6397 428.661 -68.9315 429.159 -69.1926C429.664 -69.4845 430.2 -69.7681 430.714 -70.0906C431.228 -70.4131 431.742 -70.7355 432.264 -71.0887C432.808 -71.403 433.33 -71.7561 433.914 -72.0928C434.466 -72.4378 435.019 -72.7827 435.602 -73.1194C436.177 -73.4255 436.761 -73.7622 437.375 -74.0907C438.572 -74.7559 439.806 -75.3127 441.116 -75.7835C441.275 -75.6422 440.54 -74.9846 441.745 -75.1876C442.489 -75.8758 443.316 -76.5088 444.081 -77.1582C444.615 -77.3109 444.928 -77.1285 445.343 -77.083C445.759 -77.0375 446.207 -77.1146 447.064 -77.7394C446.837 -77.5045 446.538 -77.1245 447.242 -77.2974C452.184 -79.4243 457.677 -80.4175 463.139 -80.9261C468.632 -81.4264 474.132 -81.4646 479.676 -81.7869C478.162 -81.5352 479.146 -81.4031 480.268 -81.2994C479.536 -81.2656 480.237 -80.8148 480.071 -80.5634C481.597 -80.6147 483.154 -80.6578 484.702 -80.6701C485.041 -80.2177 486.262 -79.9892 487.422 -79.7771C488.021 -79.6823 488.573 -79.5344 488.994 -79.3887C489.446 -79.2347 489.728 -79.0605 489.81 -78.8743L488.454 -79.3361C489.307 -78.7134 488.539 -78.426 487.602 -78.1183C486.657 -77.78 485.527 -77.491 485.571 -76.9204C485.099 -77.2441 484.517 -77.4002 483.87 -77.4419C483.193 -77.4919 482.444 -77.3967 481.681 -77.371C480.91 -77.3147 480.094 -77.3362 479.278 -77.3577C478.47 -77.4098 477.634 -77.601 476.816 -77.9845C476.051 -77.828 477.433 -77.589 477.014 -77.3728C476.206 -77.9178 475.153 -78.0357 473.24 -77.8908L473.439 -77.7719C473.116 -77.7928 472.792 -77.8137 472.469 -77.8345C472.146 -77.8554 471.845 -77.8374 471.545 -77.8193C470.951 -77.8139 470.389 -77.8003 469.857 -77.7785C468.802 -77.7655 467.813 -77.6358 466.817 -77.4755C465.829 -77.3458 464.81 -77.2244 463.689 -76.9661C462.545 -76.7466 461.31 -76.5518 459.841 -76.2223L460.197 -76.817C458.937 -76.5302 458.687 -76.3342 458.128 -76.0895C456.527 -76.6171 461.713 -76.7067 460.214 -77.3712C459.831 -77.0465 459.072 -76.7898 458.151 -76.5435C457.231 -76.2972 456.14 -76.0306 455.058 -75.7947C453.984 -75.5895 452.938 -75.2452 452.101 -74.9435C451.264 -74.6419 450.65 -74.3134 450.474 -73.9005C448.599 -73.2852 450.841 -74.6568 448.966 -74.0415L448.573 -73.5552L447.954 -73.8198C447.334 -73.5916 446.928 -73.3057 446.662 -73.0484C446.396 -72.791 446.3 -72.5539 446.328 -72.4148C446.6 -72.572 447.179 -72.6469 447.505 -72.7569C446.788 -72.2915 445.665 -71.9023 444.666 -71.6111C443.668 -71.3199 442.792 -70.9958 442.558 -70.8611C443.103 -71.1754 443.678 -71.4814 444.222 -71.7957C442.952 -71.3474 441.626 -70.8153 440.283 -70.2218C438.963 -69.5895 437.612 -68.9653 436.298 -68.2328C435.645 -67.8818 434.993 -67.5309 434.34 -67.1799C433.709 -66.7901 433.056 -66.4392 432.434 -66.08C431.167 -65.4005 429.984 -64.6658 428.772 -64.0701L428.957 -64.5137C428.498 -64.275 428.118 -64.0812 427.798 -63.8709C427.479 -63.6607 427.238 -63.4953 426.996 -63.33C426.544 -62.991 426.238 -62.7112 425.925 -62.4008C425.612 -62.0903 425.276 -61.8187 424.838 -61.4102C424.4 -61.0017 423.806 -60.5035 422.901 -59.8256L423.048 -59.8847C422.195 -59.5218 421.251 -58.8215 420.367 -57.9739C421.4 -58.5186 419.219 -56.1449 420.502 -56.8857C420.058 -56.5774 419.692 -56.3141 419.434 -56.0874C419.145 -55.8689 418.934 -55.6953 418.732 -55.5524C418.365 -55.2891 418.171 -55.1768 417.984 -55.0952C417.798 -55.0137 417.659 -54.9852 417.373 -54.8976C417.086 -54.8101 416.675 -54.6245 416.014 -54.2428L415.87 -53.4597C415.411 -53.221 415.116 -53.1028 414.758 -52.8701C414.4 -52.6374 413.939 -52.2678 413.186 -51.418C414.623 -52.6105 412.783 -49.9153 414.407 -51.1894C413.835 -50.1594 413.251 -49.3298 412.677 -48.6618C412.104 -47.9937 411.586 -47.4095 411.084 -46.8866C410.089 -45.8714 409.396 -45.0051 409.36 -43.7658C408.288 -43.1986 408.726 -44.1 409.312 -45.0604C409.868 -46.0291 410.708 -46.9545 410.239 -46.5543C410.378 -47.0756 409.951 -46.8287 409.387 -46.3222C408.847 -45.7768 408.163 -44.9412 407.829 -44.3076C407.433 -43.6905 407.367 -42.9523 407.235 -41.9688C407.173 -41.4923 407.025 -40.9403 406.83 -40.3352C406.717 -40.0368 406.596 -39.7077 406.436 -39.3561C406.276 -39.0045 406.108 -38.6223 405.901 -38.2176C406.053 -38.5385 406.145 -38.5139 406.335 -38.8572C406.154 -38.1825 405.745 -37.635 405.319 -37.026C405.106 -36.7216 404.923 -36.4089 404.733 -36.0656C404.573 -35.714 404.435 -35.3236 404.381 -34.8778C403.34 -34.3024 403.485 -32.8829 402.555 -32.9679L404.184 -35.9824C403.67 -35.167 402.98 -34.4316 402.31 -33.5265C401.64 -32.6213 401.066 -31.4604 400.677 -29.8882C400.95 -30.0454 401.525 -30.8443 401.874 -31.4083C401.781 -30.4472 401.015 -29.7978 400.944 -28.7978C401.398 -28.7748 401.814 -29.715 402.319 -30.8617C402.575 -31.4504 402.84 -32.0697 403.127 -32.6502C403.445 -33.2224 403.785 -33.7558 404.153 -34.15C404.114 -33.6347 403.538 -32.8358 403.196 -32.1715C402.831 -31.5462 402.647 -31.1026 403.283 -31.3922C402.444 -30.9597 402.144 -30.0868 401.812 -29.0913C401.541 -28.0793 401.275 -26.9671 400.403 -25.919L400.957 -25.9019C400.736 -25.5668 400.277 -24.8352 400.057 -24.1381L401.1 -25.2064C399.968 -23.4388 400.465 -21.3665 399.749 -19.5533C400.206 -21.5018 400.149 -21.78 399.909 -21.7455C399.678 -21.7417 399.342 -21.4701 399.411 -22.3392C397.522 -17.6194 399.96 -19.234 398.714 -13.8487C398.911 -14.5847 398.915 -16.6871 398.45 -15.5629C398.402 -15.0169 398.338 -14.4096 398.382 -13.8389C398.396 -13.2765 398.449 -12.7365 398.559 -12.4112C397.951 -8.79416 398.099 -13.0274 397.566 -11.5269C397.998 -10.195 397.12 -9.74005 396.754 -8.12894L397.3 -8.08122C397.291 -7.55768 397.276 -7.13437 397.255 -6.81127C397.235 -6.48817 397.2 -6.23462 397.158 -6.08129C397.06 -5.71329 396.927 -5.5846 396.771 -5.49481C396.483 -5.27634 396.241 -5.111 396.378 -3.16796L397.167 -4.76422C397.087 -4.09556 396.975 -3.43513 396.934 -2.78892L397.534 -3.18698C397.316 -2.12787 397.249 -1.38965 397.261 -0.696344C397.272 -0.00303408 397.345 0.706698 397.497 1.73354C397.097 1.26471 396.552 2.07185 396.636 3.96779C397.053 5.23014 397.064 3.228 397.274 5.88078C397.395 5.55167 397.546 5.23076 397.584 4.84633C397.621 4.46189 397.544 4.01391 397.299 3.45529C397.463 3.33483 397.594 2.84416 397.766 2.69304C398.168 4.01673 398.171 6.08846 398.27 7.06819C398.207 6.68977 398.122 6.27244 398.018 6.04735C397.976 6.69356 397.904 7.33156 397.885 8.01665L397.821 9.9717C398.127 10.5468 398.197 10.0397 398.268 9.53256C398.355 10.3119 398.168 10.8863 398.357 12.0216C398.717 11.658 399.149 11.6422 399.091 10.0162C399.094 11.2331 399.228 12.4521 399.331 13.663C399.574 13.8596 400.257 15.3575 400.289 14.8728C400.666 15.7956 400.761 17.0372 400.931 18.3647C401.14 19.6697 401.355 21.075 401.982 22.2946C401.941 22.448 401.959 22.7486 402.112 23.2826C402.348 23.8719 402.632 24.4081 402.877 24.9667C403.16 25.5029 403.444 26.039 403.72 26.6059C403.995 27.1727 404.24 27.7313 404.499 28.3595C404.758 28.9877 404.978 29.6383 405.174 30.3809C405.66 30.7742 406.116 31.1592 406.641 31.5301C407.614 33.6643 404.657 29.9794 406.269 33.5338C407.389 36.1019 407.329 34.1139 408.018 34.8572C408.199 35.5302 408.437 36.4815 408.852 37.5128C409.274 38.5134 409.98 39.5572 410.928 40.4358C410.637 39.4374 410.167 38.9828 409.763 38.2829ZM429.719 59.0125C429.515 58.7934 429.235 58.4884 428.947 58.214C428.659 57.9396 428.363 57.6958 428.101 57.6914C428.178 58.1394 428.352 58.3503 428.626 58.5551C428.877 58.7211 429.245 58.8197 429.719 59.0125ZM471.206 73.2512C470.793 73.0748 470.122 73.1251 469.379 73.3206C469.886 73.3907 470.51 73.3935 471.206 73.2512ZM551.054 -8.19837C551.046 -8.1677 551.046 -8.1677 551.038 -8.13703C551.339 -6.80733 551.231 -7.26353 551.054 -8.19837ZM550.568 -10.9251C550.612 -11.2093 550.673 -11.1929 550.779 -11.0987C550.66 -10.9005 550.719 -10.2603 550.831 -9.57297C550.718 -9.7674 550.547 -10.1091 550.568 -10.9251ZM402.377 -40.7723L402.23 -40.2203C402.932 -41.2481 402.666 -40.9908 402.377 -40.7723Z" fill="white"/>
<path d="M466.169 72.2964C466.013 72.3863 465.958 72.4702 465.903 72.5541C465.696 72.4658 465.69 72.3654 466.169 72.2964Z" fill="white"/>
<path d="M402.045 22.1807L402 22.1027C402.016 22.0411 402.025 22.0104 402.064 21.9878L402.045 22.1807Z" fill="white"/>
<path d="M539.485 28.9668C539.315 29.48 539.294 29.8031 539.298 30.0342C539.175 30.0013 539.149 29.7313 539.485 28.9668Z" fill="white"/>
<path d="M549.007 2.7578L548.679 4.83936C548.46 5.04361 548.393 4.43408 548.529 3.68162C548.691 3.19917 548.835 2.41604 549.007 2.7578Z" fill="white"/>
<path d="M547.326 2.40575C547.107 2.60999 546.537 5.34972 546.773 2.75068C547.023 2.55466 547.312 0.495605 547.326 2.40575Z" fill="white"/>
<path d="M539.77 32.6912L540.032 32.2027L541.023 32.797L539.77 32.6912Z" fill="white"/>
<path d="M521.012 52.5134C522.583 50.6992 521.926 52.6597 523.28 50.9189C523.892 50.7213 522.178 52.3328 522.737 52.0881C521.467 52.8984 521.033 53.538 521.012 52.5134Z" fill="white"/>
<path d="M522.759 52.1257C522.954 52.0133 523.187 51.8783 523.421 51.7434C523.062 51.9765 522.876 52.0582 522.759 52.1257Z" fill="white"/>
<path d="M434.099 60.0874L434.111 60.2879C433.802 60.3366 433.489 60.1542 432.856 59.82L434.099 60.0874Z" fill="white"/>
<path d="M417.72 47.4824L417.977 47.7486L417.038 47.6943L417.72 47.4824Z" fill="white"/>
<path d="M408.188 32.9971C408.548 33.6193 408.835 34.3866 409.233 34.9863C408.539 33.65 407.399 33.2457 408.188 32.9971Z" fill="white"/>
</g>
</g>
</svg>
