<svg width="64" height="72" viewBox="0 0 64 72" fill="none" xmlns="http://www.w3.org/2000/svg">
<path fill-rule="evenodd" clip-rule="evenodd" d="M34.793 35.4608L34.8708 28.4011C35.1564 28.374 38.0115 28.2658 39.7764 29.1855C40.4253 29.5101 40.4772 29.9428 40.4772 30.4027C40.4772 32.5125 34.9227 35.5419 34.3777 35.8394C27.3437 39.5451 17.4287 40.1672 17.4287 40.1672L17.5325 47.9302C21.7633 47.3351 29.4202 46.4425 38.6603 41.2762C43.2285 38.7336 48.1601 34.514 47.2516 28.5093C46.3692 22.7208 40.4772 21.0709 34.9228 21.3143L34.8449 28.374C34.5594 28.4011 31.7043 28.5093 29.9393 27.5896C29.2904 27.265 29.2385 26.8322 29.2385 26.3724C29.2385 24.2626 34.793 21.2332 35.338 20.9356C42.372 17.23 52.287 16.6079 52.287 16.6079L52.1832 8.8449C47.9524 9.43997 40.2955 10.3326 31.0554 15.4989C26.4872 18.0414 21.5556 22.261 22.4641 28.2658C23.3466 34.0542 29.2385 35.7042 34.793 35.4608ZM25.7345 7.49247C28.0964 7.49247 30.0172 9.49407 30.0172 11.9555C30.0172 14.4169 28.0964 16.4185 25.7345 16.4185C23.3725 16.4185 21.4518 14.4169 21.4518 11.9555C21.4518 9.49407 23.3725 7.49247 25.7345 7.49247ZM44.8637 0C47.2257 0 49.1464 2.0016 49.1464 4.46302C49.1464 6.92445 47.2257 8.92605 44.8637 8.92605C42.5018 8.92605 40.5811 6.92445 40.5811 4.46302C40.5811 2.0016 42.5018 0 44.8637 0ZM34.8708 2.92125C37.2328 2.92125 39.1535 4.92285 39.1535 7.38427C39.1535 9.8457 37.2328 11.8473 34.8708 11.8473C32.5089 11.8473 30.5882 9.8457 30.5882 7.38427C30.5882 4.92285 32.5089 2.92125 34.8708 2.92125Z" fill="#ED1C24"/>
<path fill-rule="evenodd" clip-rule="evenodd" d="M21.9282 70.3291C21.9609 70.3291 21.9935 70.34 22.0262 70.34C22.0589 70.34 22.1024 70.3509 22.146 70.3618C22.1895 70.3727 22.2222 70.3727 22.2549 70.3835C22.3311 70.4053 22.3855 70.4489 22.44 70.4924C22.4944 70.536 22.5162 70.6013 22.5162 70.6993C22.5162 70.7211 22.5053 70.7537 22.4944 70.7864C22.4835 70.83 22.4617 70.8735 22.4291 70.9062C22.4182 70.9171 22.4073 70.9279 22.3855 70.9388C22.3637 70.9497 22.3528 70.9497 22.3311 70.9606C22.3093 70.9715 22.2984 70.9715 22.2657 70.9824H21.6669V69.2185H22.2657C22.2875 69.2294 22.3093 69.2403 22.3311 69.2403C22.3528 69.2403 22.3637 69.2512 22.3855 69.2621C22.4073 69.273 22.4182 69.2839 22.4291 69.2947C22.44 69.3056 22.4508 69.3165 22.4508 69.3274C22.4617 69.3383 22.4617 69.3492 22.4726 69.371C22.4944 69.4036 22.5053 69.4254 22.5053 69.4472C22.5053 69.4689 22.5053 69.4907 22.5053 69.5016C22.5053 69.5887 22.4835 69.654 22.4291 69.7085C22.3855 69.752 22.3202 69.7956 22.244 69.8174C22.2113 69.8283 22.1677 69.8391 22.1351 69.85C22.0915 69.8609 22.0589 69.8609 22.0153 69.8718C21.9827 69.8718 21.95 69.8827 21.9173 69.8827C21.8847 69.8827 21.8629 69.8827 21.852 69.8827V70.0896V70.34C21.8847 70.3291 21.9064 70.3291 21.9282 70.3291ZM22.821 70.0242C22.8755 69.9807 22.9408 69.9371 22.9952 69.9045C23.0497 69.8609 23.1041 69.8174 23.1368 69.7738C23.1803 69.7303 23.213 69.6758 23.2348 69.6214C23.2566 69.5669 23.2783 69.4907 23.2783 69.3927C23.2783 69.3056 23.2674 69.2185 23.2348 69.1314C23.2021 69.0443 23.1586 68.9681 23.1041 68.8919C23.0388 68.8157 22.9735 68.7612 22.8864 68.7177C22.7993 68.6741 22.7013 68.6523 22.6033 68.6523H20.8721V71.5921H22.5271C22.7666 71.5921 22.9735 71.5159 23.1368 71.3744C23.2892 71.2328 23.3763 71.0477 23.3763 70.8191C23.3545 70.438 23.1803 70.1767 22.821 70.0242Z" fill="#ED1C24"/>
<path fill-rule="evenodd" clip-rule="evenodd" d="M25.652 68.6299H25.2491L24.1494 71.5697H25.0205L25.652 69.8929L25.9242 70.7095L26.0875 71.2212L26.1964 71.5697H27.1327L26.0657 68.6299H25.652Z" fill="#ED1C24"/>
<path fill-rule="evenodd" clip-rule="evenodd" d="M30.1054 69.9582L29.169 68.6299H28.3633V71.5697H29.1799V70.274L30.1271 71.5697H30.9329V68.6299H30.1054V69.9582Z" fill="#ED1C24"/>
<path fill-rule="evenodd" clip-rule="evenodd" d="M35.1136 68.6299H34.1555L33.1973 69.7731V68.6299H32.3916V71.5697H33.1864V70.0998L34.2317 71.5697H35.2552L34.1228 69.9147L35.1136 68.6299Z" fill="#ED1C24"/>
<path fill-rule="evenodd" clip-rule="evenodd" d="M39.8175 69.8827C39.6542 69.8065 39.4691 69.752 39.284 69.7194C39.186 69.6976 39.0989 69.6758 39.0118 69.6649C38.9247 69.6432 38.8485 69.6214 38.7614 69.6105C38.7396 69.6105 38.7178 69.5996 38.7069 69.5887C38.696 69.5778 38.6851 69.5561 38.6851 69.5452C38.6851 69.5234 38.6743 69.5016 38.6851 69.4907C38.6851 69.4689 38.6851 69.4581 38.6851 69.4363C38.6851 69.3927 38.696 69.3492 38.7069 69.3165C38.7287 69.2839 38.7505 69.2621 38.7831 69.2403C38.8158 69.2185 38.8485 69.2076 38.892 69.1967C38.9356 69.1859 38.9791 69.1859 39.0227 69.1859C39.1316 69.1859 39.2296 69.2076 39.2949 69.2403C39.3602 69.273 39.4255 69.3492 39.4909 69.4798H40.3075L40.2966 69.4145C40.2966 69.2512 40.253 69.1205 40.1768 69.0225C40.0897 68.9245 39.9917 68.8374 39.8611 68.783C39.7304 68.7286 39.5997 68.6959 39.4473 68.6741C39.2949 68.6523 39.1642 68.6523 39.0336 68.6523C38.892 68.6523 38.7396 68.6632 38.5763 68.685C38.4238 68.7068 38.2823 68.7503 38.1625 68.8048C38.0428 68.8701 37.9339 68.9572 37.8577 69.0661C37.7814 69.175 37.7379 69.3165 37.7379 69.4798C37.7379 69.6105 37.7597 69.7194 37.8141 69.8065C37.8685 69.8936 37.9339 69.9698 38.0101 70.0351C38.0863 70.1005 38.1843 70.144 38.2932 70.1876C38.4021 70.2311 38.5109 70.2638 38.6198 70.2964C38.7723 70.3291 38.9247 70.3727 39.0445 70.4053C39.1751 70.4489 39.284 70.4924 39.3711 70.536C39.4582 70.5795 39.5018 70.6557 39.5018 70.7537C39.5018 70.7973 39.4909 70.8408 39.4582 70.8735C39.4255 70.9062 39.3929 70.9388 39.3493 70.9606C39.3058 70.9824 39.2513 71.0042 39.1969 71.0042C39.1424 71.0151 39.0989 71.0151 39.0553 71.0151C38.9247 71.0151 38.8049 70.9824 38.7178 70.9171C38.6198 70.8517 38.5654 70.7755 38.5218 70.6775H37.6943C37.6943 70.8517 37.7379 70.9933 37.825 71.113C37.9012 71.2328 38.0101 71.3199 38.1407 71.3961C38.2714 71.4724 38.4129 71.5268 38.5763 71.5486C38.7287 71.5812 38.892 71.5921 39.0553 71.5921C39.2078 71.5921 39.3602 71.5703 39.5235 71.5377C39.676 71.505 39.8175 71.4506 39.9482 71.3744C40.0788 71.2981 40.1768 71.2001 40.2639 71.0913C40.351 70.9715 40.3837 70.83 40.3837 70.6666C40.3837 70.4706 40.3292 70.3073 40.2095 70.1876C40.1224 70.0569 39.9808 69.9589 39.8175 69.8827Z" fill="#ED1C24"/>
<path fill-rule="evenodd" clip-rule="evenodd" d="M43.4212 69.8493H43.2905H42.7788H42.7461V70.3611H42.8114H43.4212V71.5697H44.2378V68.6299H43.4212V69.8493Z" fill="#ED1C24"/>
<path fill-rule="evenodd" clip-rule="evenodd" d="M41.6689 71.5697H42.4964V70.1107V68.6299H41.6689V71.5697Z" fill="#ED1C24"/>
<path fill-rule="evenodd" clip-rule="evenodd" d="M46.9381 68.6299H46.5352L45.4355 71.5697H46.3066L46.9381 69.8929L47.2103 70.7095L47.3736 71.2212L47.4825 71.5697H48.4189L47.3518 68.6299H46.9381Z" fill="#ED1C24"/>
<path fill-rule="evenodd" clip-rule="evenodd" d="M49.1816 71.5697H50.0091V70.1107V68.6299H49.1816V71.5697Z" fill="#ED1C24"/>
<path fill-rule="evenodd" clip-rule="evenodd" d="M50.9348 69.8493H50.8042H50.2924H50.2598V70.3611H50.336H50.9348V71.5697H51.7623V68.6299H50.9348V69.8493Z" fill="#ED1C24"/>
<path fill-rule="evenodd" clip-rule="evenodd" d="M55.2355 69.8277C55.2899 69.7733 55.3335 69.7079 55.3662 69.6317C55.3988 69.5555 55.4206 69.4684 55.4206 69.3595C55.4206 69.2615 55.3988 69.1635 55.3553 69.0764C55.3117 68.9893 55.2682 68.9131 55.192 68.8478C55.1266 68.7825 55.0504 68.728 54.9524 68.6845C54.8653 68.6409 54.7673 68.6191 54.6584 68.6191H52.8184V71.5589H53.5914V69.2071H54.2011C54.2774 69.2071 54.3209 69.218 54.3536 69.2289C54.3753 69.2398 54.408 69.2615 54.4298 69.2942C54.4516 69.3269 54.4733 69.3595 54.4842 69.414C54.4951 69.4684 54.506 69.4902 54.506 69.512C54.506 69.5882 54.4842 69.6535 54.4298 69.7079C54.3754 69.7624 54.3209 69.795 54.2447 69.8386C54.1685 69.8713 54.1031 69.893 54.016 69.893C53.9398 69.893 53.8854 69.893 53.8418 69.893V70.4048C53.8527 70.4048 53.8636 70.4157 53.8854 70.4157C53.9072 70.4157 53.9398 70.4266 53.9725 70.4266C54.0378 70.4374 54.0923 70.4483 54.1358 70.4592C54.2229 70.5028 54.2882 70.5463 54.3318 70.6117C54.3862 70.677 54.4189 70.7532 54.4407 70.8512C54.4733 70.9492 54.4842 71.0472 54.4842 71.1778C54.4842 71.2976 54.4951 71.4391 54.4951 71.5807H55.3879C55.3879 71.4391 55.3879 71.2976 55.3771 71.1452C55.3662 70.9927 55.3444 70.8512 55.3117 70.7205C55.2791 70.5899 55.2137 70.4701 55.1375 70.3612C55.0613 70.2523 54.9415 70.1652 54.8 70.1108C54.8762 70.0672 54.9524 70.0237 55.0286 69.9801C55.1266 69.9366 55.192 69.8822 55.2355 69.8277Z" fill="#ED1C24"/>
<path fill-rule="evenodd" clip-rule="evenodd" d="M61.3757 68.1729C60.4176 68.1729 59.6445 68.935 59.6445 69.8714C59.6445 70.8078 60.4176 71.5699 61.3757 71.5699C62.3339 71.5699 63.1069 70.8078 63.1069 69.8714C63.1069 68.935 62.3339 68.1729 61.3757 68.1729Z" fill="#ED1C24"/>
<path fill-rule="evenodd" clip-rule="evenodd" d="M53.7429 56.915C52.7848 56.915 52.0117 57.6772 52.0117 58.6136C52.0117 59.5499 52.7848 60.3121 53.7429 60.3121C54.7011 60.3121 55.4741 59.5499 55.4741 58.6136C55.4741 57.6772 54.7011 56.915 53.7429 56.915Z" fill="#ED1C24"/>
<path fill-rule="evenodd" clip-rule="evenodd" d="M34.5916 56.915C33.6334 56.915 32.8604 57.6772 32.8604 58.6136C32.8604 59.5499 33.6334 60.3121 34.5916 60.3121C35.5497 60.3121 36.3228 59.5499 36.3228 58.6136C36.3228 57.6772 35.5497 56.915 34.5916 56.915Z" fill="#ED1C24"/>
<path fill-rule="evenodd" clip-rule="evenodd" d="M29.8445 56.915C28.8863 56.915 28.1133 57.6772 28.1133 58.6136C28.1133 59.5499 28.8863 60.3121 29.8445 60.3121C30.8026 60.3121 31.5757 59.5499 31.5757 58.6136C31.5757 57.6772 30.8026 56.915 29.8445 56.915Z" fill="#ED1C24"/>
<path fill-rule="evenodd" clip-rule="evenodd" d="M24.9558 56.915C23.9977 56.915 23.2246 57.6772 23.2246 58.6136C23.2246 59.5499 23.9977 60.3121 24.9558 60.3121C25.914 60.3121 26.687 59.5499 26.687 58.6136C26.687 57.6772 25.914 56.915 24.9558 56.915Z" fill="#ED1C24"/>
<path fill-rule="evenodd" clip-rule="evenodd" d="M12.7608 61.6506C12.6519 61.6506 12.5866 61.6506 12.5866 61.6506C12.5866 61.6506 12.4015 59.5928 13.5339 58.2645C13.5883 58.1991 13.621 58.1665 13.621 58.1665C13.621 58.1665 14.9711 59.2879 15.0908 61.2696C15.0908 61.2587 13.7407 61.6833 12.7608 61.6506ZM20.4369 61.6506C19.0977 61.6506 17.9871 62.293 17.1378 63.5343C16.3539 64.6775 16.539 65.5486 16.1034 67.3124C15.8095 68.4883 14.5791 66.8443 13.8169 65.5812C13.6318 65.309 13.4576 64.9606 13.3161 64.5904C14.198 64.4162 14.786 64.2202 14.7969 64.2202C16.0599 63.5561 16.6914 62.293 16.6914 60.4312C16.6914 59.4948 16.3647 58.3407 15.7006 56.9688C15.1453 55.8582 14.7207 54.998 13.9367 55.5533C11.378 57.3825 11.0514 59.2988 11.0514 61.6398H10.3763H10.2892C9.15686 61.6398 7.95917 60.7143 6.63083 58.8742C6.47839 58.7544 6.3804 58.7544 6.33685 58.8742C6.33685 58.8742 4.76897 60.9756 4.94318 61.7704C5.07383 62.3801 5.78156 62.8048 6.43484 63.2947C6.54372 63.3818 6.64171 63.4581 6.72882 63.5343C7.34944 64.0896 7.40388 64.4815 7.40388 64.8626C7.40388 65.2546 7.37121 65.7228 7.19701 66.2454C6.95747 66.9205 6.45662 67.6609 5.42225 68.325C3.57128 69.5009 2.3736 69.5445 0.130657 70.078C0.0435527 70.0998 0 70.1542 0 70.2195C0 70.3284 0.108881 70.47 0.261314 70.5462C1.48078 71.0035 3.49507 71.9616 5.58557 71.2321C5.79245 71.1559 6.78326 70.6006 7.32766 69.9473C7.89384 69.2505 8.35114 68.5646 8.62334 67.5411C8.80844 66.8443 8.90643 65.995 8.90643 64.8844C8.90643 64.8844 8.89554 64.6775 8.90643 64.6231C8.96087 64.634 9.01531 64.6449 9.06975 64.6666C9.89724 64.8517 10.7356 64.8735 11.5849 64.83C11.9769 66.4087 12.4559 67.5084 12.4559 67.5084C13.6863 69.882 15.5808 72.702 18.2484 71.3192C18.9888 70.9382 18.6186 69.7622 18.2048 69.0219C17.4753 67.7153 17.3556 67.0947 17.4427 66.3325C17.4971 65.8208 17.9326 65.3853 18.5859 65.2328C18.869 65.1675 19.5114 65.1348 20.5022 65.1348H27.1657H27.9061H36.377V61.6398H20.4369V61.6506Z" fill="#ED1C24"/>
<path fill-rule="evenodd" clip-rule="evenodd" d="M63.9995 65.1459V61.6508H60.9073C59.4592 61.6508 58.7406 60.9976 58.7406 59.7019L58.7623 52.6573C58.7514 52.4395 58.7297 52.3198 58.697 52.2871H58.6752C58.5555 52.3198 58.3921 52.4178 58.1962 52.5811L56.3234 54.4103C56.2363 54.4865 56.2472 54.6498 56.2799 54.9111C56.5847 57.6985 56.6501 58.8308 56.5521 60.5838C56.465 62.1952 56.9985 63.4038 57.8368 64.1986C58.4792 64.8084 59.2414 65.1459 60.1125 65.1459H63.9995Z" fill="#ED1C24"/>
<path fill-rule="evenodd" clip-rule="evenodd" d="M53.6894 61.6508H52.8837C51.4356 61.6508 50.717 60.9976 50.717 59.7019L50.7388 52.6573C50.7279 52.4395 50.6952 52.3198 50.6734 52.2871H50.6517C50.5319 52.3198 50.3686 52.4178 50.1726 52.5811L48.2998 54.4103C48.2127 54.4865 48.191 54.6498 48.2563 54.9111C48.5176 58.4606 48.7136 58.1775 48.5285 60.1592C48.4087 61.1391 47.7337 61.6399 46.5795 61.6399H45.8065H45.0988H37.7275V65.135H45.0988H45.8065H46.6122C47.1022 65.135 47.5921 64.9608 48.093 64.6233C48.5829 64.2966 48.9531 63.9047 49.2362 63.4691C49.2798 63.5454 49.3342 63.6216 49.3886 63.6978C49.5629 64.0244 49.8568 64.3293 50.2488 64.5906C50.815 64.9608 51.392 65.135 51.98 65.135H55.486V61.6399H54.125H53.6894V61.6508Z" fill="#ED1C24"/>
<path fill-rule="evenodd" clip-rule="evenodd" d="M45.327 58.8965C45.4576 58.8747 45.4467 58.6025 45.4576 58.3303C45.4794 58.069 45.4794 57.8839 45.4576 57.7641C45.1419 57.8512 44.8588 57.9383 44.5975 58.0146C44.2817 58.1452 43.9877 58.2105 43.7046 58.2105C43.3562 58.2105 43.0622 58.0908 42.8336 57.8621C42.6049 57.6226 42.4852 57.4048 42.4852 57.1762C42.4852 57.0129 42.6049 56.8604 42.8554 56.7515C43.0622 56.6427 43.2582 56.5882 43.4433 56.5882C43.5958 56.5882 43.8026 56.6427 44.0639 56.7407C44.3253 56.8386 44.4995 56.8931 44.5975 56.8931C44.8479 56.8931 44.9677 56.7407 44.9677 56.4249C44.9568 56.2289 44.8152 56.0329 44.5321 55.8369C44.2599 55.641 43.9768 55.543 43.6938 55.543C43.1929 55.5756 42.7029 55.8369 42.2021 56.3487C41.7012 56.8604 41.4508 57.3068 41.4508 57.6988C41.4508 57.9601 41.5706 58.2214 41.7992 58.4827C42.0279 58.7441 42.213 58.8965 42.3545 58.9509C41.9517 59.1578 41.5924 59.3538 41.2875 59.5171C41.2875 59.5171 40.8955 59.8438 41.2875 60.3555C42.3872 61.7601 42.2239 59.3429 45.327 58.8965Z" fill="#ED1C24"/>
</svg>
