<svg width="20" height="20" viewBox="0 0 20 20" fill="none" xmlns="http://www.w3.org/2000/svg">
<path d="M4.0917 18.3333C3.68077 18.3436 3.28234 18.1911 2.9833 17.9091C2.83482 17.7697 2.71564 17.6021 2.63265 17.4161C2.54966 17.2301 2.50458 17.0294 2.5 16.8258V16.8258C2.53578 15.558 3.07231 14.3561 3.99221 13.4831C4.91211 12.61 6.14047 12.137 7.40835 12.1674H12.5917C13.8597 12.1365 15.0882 12.6094 16.0082 13.4826C16.9282 14.3557 17.4647 15.5579 17.5 16.8258V16.8258C17.4956 17.0294 17.4505 17.2301 17.3676 17.4162C17.2846 17.6022 17.1653 17.7698 17.0167 17.9091C16.7176 18.1912 16.3194 18.3442 15.9083 18.3349L4.0917 18.3333Z" stroke="#0F172A" stroke-linecap="round" stroke-linejoin="round"/>
<path d="M10 9.16685C9.02312 9.17424 8.07842 8.81777 7.34996 8.16685C7.00828 7.86409 6.73307 7.4938 6.54165 7.07935C6.35761 6.66284 6.25847 6.21381 6.25 5.75852V5.07518C6.25856 4.62017 6.35769 4.17144 6.54165 3.75518C6.73297 3.34043 7.00818 2.96986 7.34996 2.66685C8.08234 2.02245 9.02448 1.66699 10 1.66699C10.9755 1.66699 11.9177 2.02245 12.65 2.66685C12.9918 2.96986 13.267 3.34043 13.4584 3.75518C13.6423 4.17144 13.7414 4.62017 13.75 5.07518V5.75852C13.7415 6.21381 13.6424 6.66284 13.4584 7.07935C13.2669 7.4938 12.9917 7.86409 12.65 8.16685C11.9216 8.81777 10.9769 9.17424 10 9.16685Z" stroke="#0F172A" stroke-linecap="square" stroke-linejoin="round"/>
</svg>
