<svg width="44" height="44" viewBox="0 0 44 44" fill="none" xmlns="http://www.w3.org/2000/svg">
<path d="M43.5593 12.6704C43.5593 12.5235 43.1185 9.29147 41.7229 7.7489C40.0334 5.91253 38.197 5.69217 37.2421 5.61865H36.9483C30.9984 5.17792 22.1103 5.10449 21.9634 5.10449C21.8899 5.10449 12.9283 5.17792 7.05183 5.76559H6.83147C5.80297 5.83902 3.96661 6.05939 2.35061 7.89575C0.881468 9.43832 0.440734 12.7438 0.440734 12.8908C0.440734 12.8908 0 16.637 0 20.3833V23.8357C0 27.5085 0.440734 31.2548 0.440734 31.3282C0.440734 31.4751 0.881468 34.7071 2.2771 36.2497C3.81967 38.0126 5.65603 38.233 6.83138 38.3799C7.05175 38.3799 7.19869 38.3799 7.41905 38.4534C10.798 38.7472 21.5226 38.8941 21.9633 38.8941C22.0367 38.8941 30.9983 38.8941 36.9482 38.233H37.1686C38.197 38.1596 40.0334 37.9392 41.6494 36.1027C43.1185 34.5602 43.5593 31.2547 43.5593 31.1077C43.5593 31.1077 44 27.3615 44 23.6152V20.1629C44 16.4901 43.5593 12.7438 43.5593 12.6704ZM42.5309 23.7622C42.5309 27.435 42.0901 31.1077 42.0901 31.1077C41.9432 31.9158 41.5024 34.2663 40.5476 35.2947C39.2988 36.7638 37.8297 36.9107 37.0217 36.9842H36.8013C30.9248 37.4249 22.0367 37.4249 21.9633 37.4249C21.8899 37.4249 10.8715 37.278 7.63942 36.9108C7.41906 36.9108 7.19869 36.8374 6.97832 36.8374C5.94991 36.7639 4.48086 36.5436 3.30551 35.2214C2.42404 34.2665 1.90988 31.9159 1.83636 31.1078C1.83636 31.0344 1.39563 27.3616 1.39563 23.7623V20.3098C1.39563 16.637 1.83636 12.9643 1.83636 12.9643C1.90979 12.1562 2.42404 9.80572 3.30551 8.77731C4.62771 7.30816 6.02334 7.16122 6.90481 7.0878H7.12518C13.0017 6.64706 21.8898 6.57364 21.9632 6.57364C22.0366 6.57364 30.9248 6.64706 36.8012 7.0878H37.095C37.9031 7.16122 39.3721 7.30816 40.6209 8.77731C41.5024 9.80572 41.9431 12.1562 42.09 12.9643C42.1635 13.1112 42.5308 16.784 42.5308 20.3098V23.7622H42.5309Z" fill="#F8FAFC"/>
<path d="M31.1453 22.0734L17.1887 13.9198C16.9684 13.7728 16.6746 13.7728 16.4542 13.9198C16.2339 14.0667 16.0869 14.2871 16.0869 14.5809V30.5207C16.0869 30.8145 16.2339 31.0349 16.4542 31.1818C16.6012 31.2553 16.6746 31.2553 16.8215 31.2553C16.9685 31.2553 17.0419 31.2553 17.1888 31.1818L31.1454 23.3956C31.3658 23.2486 31.5127 23.0282 31.5127 22.7345C31.5127 22.4407 31.3657 22.2202 31.1453 22.0734ZM17.5561 29.272V15.8296L29.3089 22.7344L17.5561 29.272Z" fill="#F8FAFC"/>
</svg>
